<?xml version="1.0" encoding="utf-8"?>
<!-- Generator: Adobe Illustrator 23.0.5, SVG Export Plug-In . SVG Version: 6.00 Build 0)  -->
<svg version="1.1" id="Layer_1" xmlns="http://www.w3.org/2000/svg" xmlns:xlink="http://www.w3.org/1999/xlink" x="0px" y="0px"
	 viewBox="0 0 43 89" style="enable-background:new 0 0 43 89;" xml:space="preserve">
<style type="text/css">
	.st0{fill:#EF26EF;}
	.st1{fill:#FB6EFF;}
	.st2{fill:#FFFFFF;}
</style>
<path class="st0" d="M22.7,1.8c-0.4-1.1-2-1.1-2.3,0L0.6,58.4l6.9-6.9c0.8-0.8,2.1-0.2,2.1,0.9v12c0,1.1,1.3,1.7,2.1,0.9l1.8-1.8
	c0.8-0.8,2.1-0.2,2.1,0.9v21l3-4.5V89h3h3v-8.1l3,4.5v-21c0-1.1,1.3-1.7,2.1-0.9l1.8,1.8c0.8,0.8,2.1,0.2,2.1-0.9v-12
	c0-1.1,1.3-1.7,2.1-0.9l6.9,6.9L22.7,1.8z"/>
<path class="st1" d="M22.1,9.5c-0.3-0.8-1.5-0.8-1.7,0L5.6,48.6l5.1-4.8c0.6-0.5,1.6-0.2,1.6,0.6v8.3c0,0.8,1,1.2,1.6,0.6l1.3-1.2
	c0.6-0.5,1.6-0.2,1.6,0.6v14.5l2.2-3.1v19.2h2.2h2.2V64.2l2.2,3.1V52.8c0-0.8,1-1.2,1.6-0.6l1.3,1.2c0.6,0.5,1.6,0.2,1.6-0.6v-8.3
	c0-0.8,1-1.2,1.6-0.6l5.1,4.8L22.1,9.5z"/>
<path class="st2" d="M21.9,13.3c-0.2-0.6-1.2-0.6-1.4,0l-12.1,32l4.2-3.9c0.5-0.4,1.3-0.1,1.3,0.5v6.8c0,0.6,0.8,0.9,1.3,0.5l1.1-1
	c0.5-0.4,1.3-0.1,1.3,0.5v11.9l1.8-2.5v22.4h1.8H23V58.1l1.8,2.5V48.8c0-0.6,0.8-0.9,1.3-0.5l1.1,1c0.5,0.4,1.3,0.1,1.3-0.5V42
	c0-0.6,0.8-0.9,1.3-0.5l4.2,3.9L21.9,13.3z"/>
</svg>
