<?xml version="1.0" encoding="utf-8"?>
<!-- Generator: Adobe Illustrator 23.0.5, SVG Export Plug-In . SVG Version: 6.00 Build 0)  -->
<svg version="1.1" id="Layer_1" xmlns="http://www.w3.org/2000/svg" xmlns:xlink="http://www.w3.org/1999/xlink" x="0px" y="0px"
	 viewBox="0 0 43 89" style="enable-background:new 0 0 43 89;" xml:space="preserve">
<style type="text/css">
	.st0{fill:#18C1CE;}
	.st1{fill:#31EFF4;}
	.st2{fill:#FFFFFF;}
</style>
<path class="st0" d="M22.7,1.83c-0.39-1.11-1.95-1.11-2.34,0L0.56,58.41l6.87-6.87c0.78-0.78,2.12-0.23,2.12,0.88l0,11.99
	c0,1.1,1.34,1.66,2.12,0.88l1.76-1.76c0.78-0.78,2.12-0.23,2.12,0.88l0,20.98l3-4.49l0,8.12h3h3l0-8.12l3,4.49l0-20.98
	c0-1.1,1.34-1.66,2.12-0.88l1.76,1.76c0.78,0.78,2.12,0.23,2.12-0.88l0-11.99c0-1.1,1.34-1.66,2.12-0.88l6.87,6.87L22.7,1.83z"/>
<path class="st1" d="M22.09,9.46c-0.29-0.77-1.45-0.77-1.74,0L5.6,48.62l5.12-4.76c0.58-0.54,1.58-0.16,1.58,0.61l0,8.3
	c0,0.76,0.99,1.15,1.58,0.61l1.31-1.22c0.58-0.54,1.58-0.16,1.58,0.61l0,14.52l2.23-3.11l0,19.15h2.23l2.23,0l0-19.15l2.23,3.11
	l0-14.52c0-0.76,0.99-1.15,1.58-0.61l1.31,1.22c0.58,0.54,1.58,0.16,1.58-0.61l0-8.3c0-0.76,0.99-1.15,1.58-0.61l5.12,4.76
	L22.09,9.46z"/>
<path class="st2" d="M21.93,13.34c-0.24-0.63-1.19-0.63-1.43,0L8.44,45.38l4.19-3.89c0.48-0.44,1.29-0.13,1.29,0.5l0,6.79
	c0,0.63,0.81,0.94,1.29,0.5l1.07-1c0.48-0.44,1.29-0.13,1.29,0.5l0,11.88l1.82-2.54l0,22.38h1.82l1.82,0l0-22.38l1.82,2.54l0-11.88
	c0-0.63,0.81-0.94,1.29-0.5l1.07,1c0.48,0.44,1.29,0.13,1.29-0.5l0-6.79c0-0.63,0.81-0.94,1.29-0.5l4.19,3.89L21.93,13.34z"/>
</svg>
