<?xml version="1.0" encoding="utf-8"?>
<!-- Generator: Adobe Illustrator 23.0.5, SVG Export Plug-In . SVG Version: 6.00 Build 0)  -->
<svg version="1.1" id="Layer_1" xmlns="http://www.w3.org/2000/svg" xmlns:xlink="http://www.w3.org/1999/xlink" x="0px" y="0px"
	 viewBox="0 0 14 36" style="enable-background:new 0 0 14 36;" xml:space="preserve">
<style type="text/css">
	.st0{fill:#BD4E07;}
	.st1{fill:#E26F1F;}
	.st2{fill:#E6B58A;}
	.st3{fill:#A33A02;}
	.st4{fill:#F7893A;}
	.st5{fill:#F4D5A3;}
	.st6{fill:#FCC45D;}
</style>
<path class="st0" d="M12.87,3.61C11.7,0.1,10.66-0.37,7.16,0.78c1.73,1.4,2.21,3.4,2.66,5.44c0.2,0.9-0.27,0.98-0.89,0.89
	C8.58,7.05,8.24,6.86,7.91,7.09C7.57,7.31,7.23,7.6,7.49,8.07c0.22,0.4,0.59,0.4,0.91,0.12C8.85,7.79,9.49,8.05,10,7.6v2.49
	c0,0.36-0.01,0.79-0.43,0.89c-1,0.24-1.02,0.96-1,1.76c0.01,0.85,0.11,1.65-0.71,2.37c-0.65,0.57-0.27,1.09,0.89,0.97
	c-1.28,0.57-1.06,1.56-1.18,2.48c-0.1,0.78-0.51,1.51-1.08,2.09c-0.25,0.25-0.59,0.51-0.95,0.41c-0.53-0.13-0.07-0.52-0.11-0.78
	c-0.1-0.53-1.41-1.45-1.83-1.18c-0.68,0.44-0.86-0.05-1.05-0.46c-0.5-1.05-0.95-2.11-1.41-3.16c-0.02-0.04-0.01-0.11-0.03-0.12
	c-0.2-0.08-0.16,0.11-0.21,0.19c0.17,1.56,0.76,2.97,1.48,4.33c1.14,2.17,2.41,4.28,2.89,6.72c0.06,0.1,0.12,0.19,0.18,0.28
	c0.95,0.37,1.88,0.15,2.82-0.06c0.55-2.38,1.52-4.59,2.55-6.79c0.59-1.26,1.13-2.55,1.58-3.87C13.84,12.04,14.29,7.84,12.87,3.61z
	 M12.07,7.78c0.66-0.24,0.54,0.35,0.6,0.71c0.08,0.49,0.68,0.86,0.26,1.38c0.2,0.42,0.25,0.74-0.13,1.01
	c-0.19,0.13-0.31,0.41-0.59,0.24c-0.19-0.11-0.21-0.29-0.19-0.52c0.07-0.6-0.04-1.16-0.39-1.68C11.26,8.35,11.6,7.96,12.07,7.78z
	 M12.76,12.61c-1.13,1.17-1.25,2.69-1.52,4.14c-0.31,1.68-1.62,2.68-2.52,3.96c-0.19,0.27-0.65,0.16-0.56-0.19
	c0.16-0.63-0.07-1.48,0.63-1.85c0.95-0.5,0.48-1.79,1.47-2.19c-0.14-0.21-0.18-0.33-0.27-0.38c-1.48-0.91-0.29-1.32,0.37-1.67
	c0.55-0.29,0.64-0.59,0.53-1.14c-0.15-0.78,0.74-1.8,1.49-1.68C13,11.71,13.06,12.31,12.76,12.61z"/>
<path class="st1" d="M8.4,8.19C8.08,8.47,7.71,8.47,7.49,8.07C7.23,7.6,7.57,7.31,7.91,7.09c0.33-0.23,0.67-0.04,1.02,0.02
	c0.62,0.09,1.09,0.01,0.89-0.89C9.37,4.18,8.89,2.18,7.16,0.78C5.79,1.22,4.5,1.84,3.33,2.67C1.99,3.62,0.49,4.65,0.27,6.33
	c-0.4,3.08-0.2,6.19,0.63,9.22c0.05-0.08,0.01-0.27,0.21-0.19c0.02,0.01,0.01,0.08,0.03,0.12c0.46,1.05,0.91,2.11,1.41,3.16
	c0.19,0.41,0.37,0.9,1.05,0.46c0.42-0.27,1.73,0.65,1.83,1.18c0.04,0.26-0.42,0.65,0.11,0.78c0.36,0.1,0.7-0.16,0.95-0.41
	c0.57-0.58,0.98-1.31,1.08-2.09c0.12-0.92-0.1-1.91,1.18-2.48c-1.16,0.12-1.54-0.4-0.89-0.97c0.82-0.72,0.72-1.52,0.71-2.37
	c-0.02-0.8,0-1.52,1-1.76c0.42-0.1,0.43-0.53,0.43-0.89V7.6C9.49,8.05,8.85,7.79,8.4,8.19z M5.66,2.17c0.26,0,0.46,0.1,0.47,0.39
	C6.08,2.89,5.89,3.08,5.58,3.08c-0.29,0-0.56-0.14-0.52-0.48C5.09,2.27,5.37,2.18,5.66,2.17z M4.71,15.52
	c-0.1,0.21-0.14,0.47-0.28,0.65C4.19,16.47,4.1,17,3.64,16.98c-0.44-0.02-0.61-0.5-0.77-0.84c-0.79-1.66-1.62-4.52-1.5-7.12
	c-0.01-2.73,1-4.47,2.97-5.17c1.63-0.58,2.25-0.16,2.31,1.56c0.05,1.68-0.17,3.35-0.57,4.96C5.66,12.09,5.47,13.88,4.71,15.52z
	 M6.62,16.51c-0.15,0.41-0.37,0.73-0.82,0.72c-0.29,0-0.35-0.27-0.33-0.51c0.05-0.41,0.3-0.62,0.71-0.62
	C6.46,16.1,6.59,16.25,6.62,16.51z M6.15,19.63c-0.69-0.2-0.58-1-0.89-1.51c-0.12-0.2,0.24-0.48,0.45-0.43
	c0.66,0.14,0.57,1,1.2,1.08C6.72,19.31,6.57,19.76,6.15,19.63z M7.53,13.39c-0.3,0.03-0.39-0.2-0.38-0.46
	c0.01-0.34,0.17-0.6,0.54-0.63c0.31-0.03,0.36,0.22,0.39,0.38C8.05,13.1,7.91,13.37,7.53,13.39z M8.74,10.68
	c-0.33,0.11-0.41-0.14-0.4-0.4c0.03-0.44,0.26-0.75,0.7-0.82c0.27-0.05,0.4,0.19,0.45,0.45C9.5,10.41,9.11,10.56,8.74,10.68z"/>
<path class="st2" d="M9.83,33.93c-0.19-0.43-0.32-0.91-0.57-1.31c-0.74-1.2-1-2.5-0.93-3.89c0.03-0.64-0.04-1.27-0.06-1.91
	c-0.94,0.21-1.87,0.43-2.82,0.06c0.1,2.28,0.03,4.54-0.97,6.67c-0.13,0.28-0.2,0.61-0.22,0.92c-0.05,0.87,0.36,1.3,1.15,0.81
	c1.06-0.64,2.02-0.77,3.1-0.08c0.34,0.22,0.86,0.25,1.21-0.14C10.01,34.72,10,34.33,9.83,33.93z M5.87,33.77
	c-0.34,0.18-0.65-0.16-0.54-0.64c0.19-0.86,0.35-1.77,1.33-2.07c0.44-0.14,1.39,1.36,1.37,2.27C7.53,33.98,6.57,33.42,5.87,33.77z"
	/>
<path class="st2" d="M5.27,26.6c0.06,0.09,0.12,0.18,0.18,0.27C5.39,26.79,5.33,26.7,5.27,26.6z"/>
<path class="st3" d="M10.26,16.48c-0.14-0.2-0.19-0.33-0.27-0.38c-1.48-0.9-0.29-1.32,0.37-1.66c0.55-0.29,0.64-0.6,0.53-1.14
	c-0.15-0.79,0.74-1.8,1.49-1.68c0.62,0.1,0.67,0.7,0.38,1c-1.14,1.17-1.25,2.69-1.52,4.14c-0.31,1.68-1.62,2.68-2.52,3.96
	c-0.19,0.27-0.65,0.16-0.56-0.19c0.16-0.63-0.06-1.47,0.63-1.84C9.74,18.17,9.27,16.88,10.26,16.48z"/>
<path class="st3" d="M12.93,9.87c0.2,0.42,0.25,0.74-0.13,1.01c-0.18,0.13-0.3,0.41-0.59,0.24c-0.19-0.11-0.21-0.29-0.18-0.52
	c0.07-0.6-0.05-1.17-0.39-1.68c-0.37-0.56-0.04-0.96,0.44-1.14c0.66-0.24,0.54,0.35,0.6,0.71C12.75,8.98,13.35,9.35,12.93,9.87z"/>
<path class="st4" d="M4.34,3.85c-1.97,0.7-2.98,2.44-2.97,5.17c-0.12,2.6,0.71,5.46,1.5,7.12c0.16,0.34,0.33,0.82,0.77,0.84
	C4.1,17,4.19,16.47,4.43,16.17c0.14-0.18,0.18-0.44,0.28-0.65c0.76-1.64,0.95-3.43,1.37-5.15c0.4-1.61,0.62-3.28,0.57-4.96
	C6.59,3.69,5.97,3.27,4.34,3.85z M4.02,5.55c0.5-0.05,0.74,0.31,0.67,0.76c-0.1,0.61-0.33,1.16-1.14,1.13
	C3.11,7.48,2.78,7.32,2.83,6.79C2.9,6.08,3.31,5.62,4.02,5.55z M3.88,14.12c-0.4,0.1-0.54-0.15-0.61-0.52
	c-0.03-0.17-0.19-0.33-0.3-0.48c-0.27-0.4-0.12-0.75,0.11-1.1c0.18-0.27,0.47-0.28,0.74-0.24c0.52,0.08,0.39,0.5,0.43,0.84
	c0.03,0.23,0.08,0.46,0.15,0.86C4.39,13.69,4.3,14.03,3.88,14.12z M5.43,8.44C5.4,8.88,5.02,8.95,4.72,8.87
	C4.07,8.7,4.02,9.01,3.98,9.53c-0.03,0.42,0.32,1.09-0.37,1.22c-0.88,0.15-0.18-0.9-0.72-1.12C2.8,9.59,2.83,9.26,2.81,9.05
	C2.89,8.39,2.98,7.73,3.95,8c0.22,0.07,0.36-0.05,0.54-0.15c0.26-0.16,0.55-0.47,0.83-0.2C5.47,7.8,5.45,8.18,5.43,8.44z"/>
<path class="st0" d="M6.91,18.77c-0.19,0.54-0.34,0.99-0.76,0.86c-0.69-0.21-0.58-1.01-0.89-1.52c-0.12-0.2,0.23-0.47,0.44-0.43
	C6.37,17.83,6.28,18.69,6.91,18.77z"/>
<path class="st0" d="M9.49,9.91c0,0.5-0.38,0.65-0.75,0.77c-0.33,0.11-0.41-0.14-0.4-0.4c0.03-0.44,0.26-0.75,0.7-0.82
	C9.31,9.41,9.44,9.65,9.49,9.91z"/>
<path class="st0" d="M6.62,16.51c-0.15,0.41-0.37,0.73-0.82,0.73c-0.29,0-0.35-0.27-0.32-0.52c0.05-0.41,0.29-0.61,0.71-0.62
	C6.46,16.1,6.59,16.25,6.62,16.51z"/>
<path class="st0" d="M8.08,12.68c-0.03,0.43-0.18,0.69-0.55,0.71c-0.3,0.02-0.4-0.2-0.39-0.46c0.01-0.35,0.17-0.61,0.54-0.64
	C8,12.27,8.05,12.52,8.08,12.68z"/>
<path class="st0" d="M6.13,2.56C6.08,2.89,5.89,3.08,5.58,3.08c-0.3,0-0.56-0.14-0.53-0.48c0.03-0.33,0.31-0.42,0.6-0.42
	C5.92,2.17,6.12,2.27,6.13,2.56z"/>
<path class="st5" d="M8.03,33.33c-0.51,0.66-1.47,0.09-2.17,0.45c-0.33,0.17-0.65-0.16-0.54-0.65c0.19-0.86,0.35-1.77,1.33-2.07
	C7.1,30.92,8.06,32.42,8.03,33.33z"/>
<path class="st6" d="M2.81,9.05C2.89,8.39,2.98,7.73,3.95,8c0.23,0.07,0.37-0.05,0.54-0.16c0.26-0.16,0.56-0.47,0.84-0.19
	C5.47,7.8,5.45,8.18,5.43,8.44C5.4,8.88,5.02,8.95,4.72,8.87C4.07,8.7,4.02,9.01,3.98,9.53c-0.03,0.42,0.31,1.09-0.37,1.21
	c-0.88,0.16-0.18-0.9-0.72-1.12C2.8,9.59,2.83,9.26,2.81,9.05z"/>
<path class="st6" d="M3.55,7.44C3.11,7.48,2.78,7.32,2.83,6.79C2.9,6.08,3.31,5.62,4.02,5.55c0.5-0.05,0.74,0.31,0.67,0.76
	C4.59,6.92,4.36,7.47,3.55,7.44z"/>
<path class="st6" d="M4.4,13.48c-0.01,0.2-0.1,0.54-0.52,0.64c-0.41,0.1-0.54-0.16-0.61-0.52c-0.03-0.17-0.19-0.33-0.3-0.49
	c-0.26-0.4-0.12-0.75,0.11-1.09c0.18-0.28,0.47-0.28,0.74-0.24c0.51,0.08,0.39,0.5,0.43,0.83C4.28,12.85,4.33,13.08,4.4,13.48z"/>
</svg>
