<?xml version="1.0" encoding="utf-8"?>
<!-- Generator: Adobe Illustrator 23.0.5, SVG Export Plug-In . SVG Version: 6.00 Build 0)  -->
<svg version="1.1" id="Layer_1" xmlns="http://www.w3.org/2000/svg" xmlns:xlink="http://www.w3.org/1999/xlink" x="0px" y="0px"
	 viewBox="0 0 48 56" style="enable-background:new 0 0 48 56;" xml:space="preserve">
<style type="text/css">
	.st0{fill:#CE0303;}
	.st1{fill:#F90403;}
	.st2{fill:#E26F1F;}
	.st3{fill:#BD4E07;}
	.st4{fill:#E6B58A;}
	.st5{fill:#F4D5A3;}
	.st6{fill:#FD664A;}
	.st7{fill:#F7893A;}
	.st8{fill:#A33A02;}
	.st9{fill:#FCC45D;}
	.st10{fill:#C69861;}
</style>
<path class="st0" d="M42.86,26.18c-5.06,1.25-10.19,1.76-15.38,1.84c-3.91,0.06-7.8-0.09-11.7-0.32c-0.47-0.03-0.9-0.35-1.39-0.2
	c1.25,0.65,2.64,0.75,3.99,0.91c2.71,0.32,5.43,0.58,8.14,0.87c1.85,0.19,3.71,0.41,5.56,0.57c1.04,0.09,1.33,0.52,1.58,1.5
	c0.4,1.54,0.52,3.06,0.39,4.59c-0.19,2.07-0.42,4.14-0.78,6.2c-0.21,1.2-0.4,2.39-0.82,3.52c-0.68,1.85-2.32,2.66-3.94,3.34
	c-2.05,0.86-4.22,1.37-6.32,2.07c-1.9,0.64-3.89,0.67-5.77,1.31c-2.03,0.69-4.31-0.48-5.42-2.41c-0.78-1.34-1.88-2.5-2.43-4
	c-0.06-0.16-0.18,0.16-0.31,0.22c0.22,1.2,0.43,2.4,0.65,3.6c0.06,2.49,1.83,3.17,3.82,3.64c6.06,1.44,12.2,1.47,18.36,1.04
	c2.28-0.15,4.54-0.44,6.74-1.05c0.54-0.15,1.06-0.34,1.59-0.51c1.31-0.42,2.11-1.24,2.09-2.7c-0.01-0.24,0-0.48,0.21-0.66l1.17-6.36
	c1.08-5.71,2.16-11.43,3.23-17.15C45.03,26.08,43.9,25.93,42.86,26.18z M43.08,31.68c0.06,0.24-0.16,0.36-0.37,0.35
	c-0.27-0.01-0.58,0.01-0.8-0.12c-0.2-0.12,0.04-0.31,0.11-0.48c0.42-0.96-0.22-1.6-0.73-2.27c0.14,1.82-0.73,2.55-2.5,2.11
	c-0.3-0.07-0.42-0.22-0.31-0.5c0.29-0.77,0.29-1.55,0.05-2.33c-0.18-0.57,0.4-0.57,0.47-0.44c0.5,0.96,1.68,0.47,2.28,1.15
	c0.01-0.68,0.51-0.5,0.87-0.45c0.48,0.06,0.14,0.41,0.17,0.64c0.02,0.22,0.14,0.43,0.22,0.66c0.56-0.32,0.15-0.86,0.33-1.15
	c0.22-0.36,0.7-0.2,1.16-0.08C43.65,29.74,42.79,30.53,43.08,31.68z"/>
<path class="st1" d="M33.66,31.35c-0.25-0.98-0.54-1.41-1.58-1.5c-1.85-0.16-3.71-0.38-5.56-0.57c-2.71-0.29-5.43-0.55-8.14-0.87
	c-1.35-0.16-2.74-0.26-3.99-0.91c-3.21-0.57-6.46-0.98-9.47-2.36c-0.29-0.13-0.54-0.16-0.68,0.2c1.34,6.95,2.68,13.9,4.02,20.85
	c0.13-0.06,0.25-0.38,0.31-0.22c0.55,1.5,1.65,2.66,2.43,4c1.11,1.93,3.39,3.1,5.42,2.41c1.88-0.64,3.87-0.67,5.77-1.31
	c2.1-0.7,4.27-1.21,6.32-2.07c1.62-0.68,3.26-1.49,3.94-3.34c0.42-1.13,0.61-2.32,0.82-3.52c0.36-2.06,0.59-4.13,0.78-6.2
	C34.18,34.41,34.06,32.89,33.66,31.35z M25.35,43.94c-0.27,1.07-1.1,1.68-1.96,2.15c-2.72,1.51-5.48,2.94-8.56,3.63
	c-1.01,0.23-1.62,0.01-2-1.07c-1.87-5.27-3.24-10.67-4.14-16.17c-0.52-3.17,0.3-3.77,3.52-3.23c3.95,0.66,7.73,1.8,11.37,3.48
	c2.43,1.12,2.81,1.67,2.81,4.9C26.3,39.42,25.91,41.69,25.35,43.94z"/>
<path class="st2" d="M33.47,16.72c0.46-1.02-0.08-2.1-0.64-3.03c-0.22-0.38-0.49-0.43-0.7,0.16c-0.32,0.9-1.63,1.31-2.32,0.72
	c-0.53-0.45-0.83-0.04-1.11,0.2c-2.28,1.98-4.12,4.3-5.35,7.08c-0.13,0.31-0.15,0.89-0.61,0.68c-0.41-0.19,0.04-0.63,0.07-0.96
	c0.04-0.39,0.46-0.52,0.71-0.88c-1.13-0.33-1.11-0.89-0.38-1.52c0.79-0.68,0.59-1.59,0.61-2.45c0.01-0.57-0.04-1.16,0.75-1.25
	c0.43-0.05,0.46-0.38,0.46-0.71c0-0.44,0.01-0.88,0.01-1.32c0-1.29-0.2-1.42-1.44-0.91c-0.29,0.11-0.54,0.41-0.82,0.04
	c-0.22-0.28-0.2-0.61-0.01-0.9c0.21-0.3,0.46-0.54,0.9-0.44c1.41,0.3,1.39,0.3,1.15-1.12c-0.33-1.93-0.89-3.72-2.65-4.86
	c-1.71,0.49-3.19,1.39-4.58,2.47c-1.7,1.32-2.55,2.99-2.39,5.17c0.12,1.6,0.16,3.19,0.23,4.79c0.72,0.71,1.24,1.6,2.12,2.15
	c-0.37-1.82-0.89-3.61-1.1-5.46c-0.33-2.85,0.42-4.98,3.13-6.12c1.36-0.57,2.07-0.11,2.09,1.34c0.05,3.81-0.68,7.47-2.13,11
	c-0.2,0.48-0.44,0.84-0.99,0.89c0.5,0.95,0.94,1.93,1.72,2.7c0.03,0.02,0.06,0.05,0.08,0.08c0.79,1.3,0.79,1.3,2-0.03
	c-0.08,0.84-0.14,1.54-0.21,2.25c0.48,0,0.96,0.01,1.44,0.01c-0.35-2.29,0.96-4.04,1.97-5.86c0.8-1.45,1.64-2.89,3.08-3.86
	c0.65-0.44,0.91-0.36,1,0.4c0.24,1.99-0.05,3.94-0.37,5.89c-0.18,1.14-0.5,2.26-0.38,3.42c1.14,0.15,2.24-0.11,3.36-0.23
	c0.41-0.79,0.77-1.48-0.1-2.33c-0.59-0.58,0.15-1.37,0.41-1.98c0.26-0.63,0.45-1.06,0.06-1.75c-0.48-0.84-0.04-1.25,1.08-0.91
	C33.08,18.34,33.07,17.62,33.47,16.72z M23.18,7.9c0.24-0.04,0.32,0.17,0.32,0.47c-0.02,0.27-0.15,0.54-0.53,0.58
	c-0.31,0.03-0.39-0.19-0.39-0.45C22.57,8.1,22.88,7.96,23.18,7.9z M20.54,7.52c-0.29,0-0.55-0.14-0.52-0.49
	c0.04-0.32,0.32-0.4,0.54-0.43c0.32,0.02,0.53,0.1,0.52,0.41C21.06,7.33,20.84,7.51,20.54,7.52z M21.36,24.06
	c-0.34,0.11-0.51-0.05-0.73-0.38c-0.66-0.98,0.13-1.87,0.06-2.8c-0.02-0.28,0.28-0.36,0.54-0.33c0.31,0.04,0.35,0.27,0.35,0.63
	c-0.62,0.68-0.31,1.33,0.19,2.04C21.99,23.52,21.77,23.93,21.36,24.06z M23.33,14.57c0.08-0.42,0.36-0.71,0.79-0.72
	c0.3-0.01,0.35,0.26,0.34,0.57c-0.08,0.34-0.27,0.7-0.72,0.72C23.42,15.15,23.27,14.86,23.33,14.57z M22.16,17.35
	c0.1-0.36,0.37-0.59,0.74-0.64c0.25,0.05,0.36,0.18,0.25,0.42c-0.14,0.3-0.21,0.72-0.68,0.66C22.27,17.76,22.1,17.57,22.16,17.35z
	 M31.2,17.24c0.26,0.01,0.37,0.17,0.43,0.37c0.02,0.07,0.04,0.14,0.05,0.21c0,0.03,0,0.06-0.01,0.09c0,0.03-0.01,0.06-0.01,0.09
	c-0.01,0.06-0.02,0.11-0.04,0.16c-0.05,0.1-0.14,0.16-0.31,0.15c-0.35-0.01-0.44-0.33-0.5-0.59C30.75,17.46,30.92,17.24,31.2,17.24z
	 M32.11,25.04c-0.11,0.36-0.19,0.72-0.58,0.7c-0.43-0.01-0.55-0.35-0.56-0.74c-0.01-0.34,0.06-0.63,0.49-0.62
	C31.93,24.39,31.96,24.79,32.11,25.04z M31.49,22.6c-0.41-0.05-0.51-0.33-0.52-0.66c-0.01-0.27-0.04-0.6,0.33-0.64
	c0.37-0.04,0.56,0.22,0.59,0.56C31.93,22.2,31.83,22.47,31.49,22.6z M31.56,16.8c-0.02,0.04-0.37-0.27-0.35-0.52
	c0.07-0.66,0.7-0.88,1.11-1.21c0.22-0.17,0.51,0.25,0.56,0.69C32.72,16.37,31.87,16.27,31.56,16.8z"/>
<path class="st3" d="M38.42,24.35c-0.06-0.39-0.04-0.79-0.05-1.18c-0.16,0.01-0.34-0.01-0.47,0.04c-0.36,0.15-0.81,0.23-0.89,0.7
	c-0.1,0.61,0.67,0.29,0.8,0.74c-0.46,0.51-0.99,0.53-1.56,0.19c-1.37,0.28-2.21-0.63-1.77-1.98c0.22-0.66,0.32-1.2-0.32-1.68
	c-0.45-0.33-0.36-0.79-0.03-1.16c0.89-0.99,0.95-1.59,0.53-3.02c-0.18-0.63-0.07-1.34-0.08-2.02c-0.01-0.21,0.09-0.39,0.34-0.4
	c0.24-0.01,0.36,0.17,0.43,0.36c0.2,0.51,0.54,1.05,0.52,1.56c-0.05,1.17,0.71,2.17,0.24,3.5c-0.51,1.42-0.34,3.08,0.14,4.61
	c0.72-0.69,0.6-1.62,0.71-2.49c0.09-0.77-0.16-1.57,0.23-2.31c-0.05-1.14-0.11-2.27-0.17-3.4c-0.02-0.47-0.03-0.93-0.04-1.4
	c-0.07-0.79-0.14-1.59-0.2-2.38c-0.01-0.59-0.02-1.17-0.03-1.76c0.08-0.14,0.16-0.28,0.24-0.42c-0.06-0.27-0.04-0.51,0.18-0.72V9.72
	l0.01-0.03c-0.61-1.18-1.62-1.54-2.87-1.43c-1.46,2.09-3.3,3.77-5.47,5.31c-0.06-2.06-0.37-3.92-0.96-5.74
	C26.85,4.67,25.55,4,22.42,5.1c-0.11,0.03-0.21,0.1-0.32,0.15c1.76,1.14,2.32,2.93,2.65,4.86c0.24,1.42,0.26,1.42-1.15,1.12
	c-0.44-0.1-0.69,0.14-0.9,0.44c-0.19,0.29-0.21,0.62,0.01,0.9c0.28,0.37,0.53,0.07,0.82-0.04c1.24-0.51,1.44-0.38,1.44,0.91
	c0,0.44-0.01,0.88-0.01,1.32c0,0.33-0.03,0.66-0.46,0.71c-0.79,0.09-0.74,0.68-0.75,1.25c-0.02,0.86,0.18,1.77-0.61,2.45
	c-0.73,0.63-0.75,1.19,0.38,1.52c-0.25,0.36-0.67,0.49-0.71,0.88c-0.03,0.33-0.48,0.77-0.07,0.96c0.46,0.21,0.48-0.37,0.61-0.68
	c1.23-2.78,3.07-5.1,5.35-7.08c0.28-0.24,0.58-0.65,1.11-0.2c0.69,0.59,2,0.18,2.32-0.72c0.21-0.59,0.48-0.54,0.7-0.16
	c0.56,0.93,1.1,2.01,0.64,3.03c-0.4,0.9-0.39,1.62,0.15,2.56c-1.12-0.34-1.56,0.07-1.08,0.91c0.39,0.69,0.2,1.12-0.06,1.75
	c-0.26,0.61-1,1.4-0.41,1.98c0.87,0.85,0.51,1.54,0.1,2.33c0.87,0.07,1.69-0.17,2.53-0.34c0.76-0.15,1.61,0.02,2.44-0.02
	C38.29,25.82,38.56,25.35,38.42,24.35z M26.12,15.92c-0.24,0-0.39-0.11-0.41-0.33c-0.04-0.34,0.06-0.8,0.41-0.72
	c1.3,0.28,0.73-0.61,0.74-1.11c0-0.23-0.16-0.45-0.17-0.69c-0.02-0.41,0.08-0.85,0.56-0.89c0.45-0.04,0.55,0.35,0.59,0.74
	c0.04,0.35,0.14,0.69,0.22,1.09C28.09,14.6,26.8,15.89,26.12,15.92z"/>
<path class="st4" d="M46.12,26.04c-1.09,0.04-2.22-0.11-3.26,0.14c-5.06,1.25-10.19,1.76-15.38,1.84c-3.91,0.06-7.8-0.09-11.7-0.32
	c-0.47-0.03-0.9-0.35-1.39-0.2c-3.21-0.57-6.46-0.98-9.47-2.36c-0.29-0.13-0.54-0.16-0.68,0.2c-0.23-0.45-0.51-0.83-0.92-1.16
	c-1.15-0.92-1.12-1.74-0.03-2.74c0.55-0.51,1.33-0.73,1.74-1.4c0.28,0.29,0.03,0.61,0.06,0.9c0.12,1.06-0.18,2.23,0.67,3.14
	c0.49,0.13,0.89,0.5,1.43,0.5c0.52-0.11,1.46,0.58,1.35-0.74c-0.02-0.21,0.3-0.21,0.49-0.19c0.25,0.01,0.5,0.08,0.53,0.38
	c0.12,1.42,1.09,1.57,2.22,1.5c1.58,0.21,3.14,0.66,4.76,0.53c1.82,0.43,3.67,0.55,5.53,0.42c0.48,0,0.96,0.01,1.44,0.01
	c0.52,0.1,0.93,0.02,1.17-0.54c0.22-0.53,0.83-0.6,1.08-0.26c0.84,1.13,1.97,0.81,3.05,0.79c1.14,0.15,2.24-0.11,3.36-0.23
	c0.87,0.07,1.69-0.17,2.53-0.34c0.76-0.15,1.61,0.02,2.44-0.02c1.15-0.07,3.73-0.71,4-0.79c0.2-0.01,0.4-0.02,0.6-0.04
	c0.6,0.9,1.48,0.87,2.35,0.62c0.76-0.21,1.48-0.56,2.22-0.84C46.28,25.24,46.51,25.69,46.12,26.04z"/>
<path class="st3" d="M20.28,24.26c-0.02-0.03-0.05-0.06-0.08-0.08c-0.78-0.77-1.22-1.75-1.72-2.7c-0.37-0.53-0.87-0.98-1-1.65
	c-0.88-0.55-1.4-1.44-2.12-2.15c-1.39-1.25-2.8-2.48-4.18-3.73C10.03,12.9,8.84,11.9,8.1,10.5c-1.79-0.26-2.5,0.06-3.07,1.37
	c0.31,1.19,0.3,2.4,0.31,3.61c0,1.53-0.51,3.02-0.31,4.56c0.28,0.29,0.03,0.61,0.06,0.9c0.12,1.06-0.18,2.23,0.67,3.14
	c0-1.08-0.04-2.16,0.01-3.23c0.03-0.79-0.17-1.78,1.13-1.8c-0.21-0.77,1.24-1.02,0.61-1.92C6.99,16.4,7.55,16.41,8,16.45
	c1.11,0.1,2.06,0.77,2.45,1.67c0.37,0.87,0.83,1.36,1.7,1.58c-0.81,0.81-0.75,1.24,0.29,1.51c1.09,0.28,1.16,1.22,1.45,1.98
	c0.25,0.64,0.43,1.12,1.24,0.82c0.56-0.21,0.67,0.3,0.84,0.63c0.22,0.46,0.56,0.87,0.57,1.42c1.82,0.43,3.67,0.55,5.53,0.42
	c0.07-0.71,0.13-1.41,0.21-2.25C21.07,25.56,21.07,25.56,20.28,24.26z M15.54,21.44c-0.14-0.54-0.37-1.01-1.19-0.74
	c-0.6,0.2-1.13-0.19-1.09-0.88c0.05-1.07-0.53-2.16-1.59-2.37c-0.76-0.14-1.02-0.68-1.39-1.18c-0.14-0.2-0.27-0.42-0.07-0.64
	c0.2-0.22,0.42-0.08,0.64,0.03c1.8,0.87,3.55,1.68,4.46,3.76c0.27,0.63,0.96,1.56,1.91,1.8c0.42,0.11,0.82,0.2,0.72,0.73
	c-0.1,0.52-0.56,0.48-1.06,0.49C16.32,22.37,15.75,22.22,15.54,21.44z M16.87,24.07c-0.27-0.01-0.44-0.18-0.49-0.44
	c-0.06-0.3,0.11-0.43,0.4-0.45c0.28,0,0.46,0.12,0.47,0.41C17.26,23.86,17.19,24.08,16.87,24.07z M19.26,24.76
	c-0.12,0.66,0.13,1.28-0.58,1.24c-0.54-0.02-0.59-0.46-0.57-0.96c0.01-0.54-0.13-1.08-0.23-1.62c-0.05-0.23-0.2-0.5,0.08-0.62
	c0.28-0.11,0.65,0.09,0.67,0.34C18.69,23.82,19.42,24.29,19.26,24.76z"/>
<path class="st4" d="M41.38,53.37c-1.86,1.06-3.92,1.52-6,1.92c-4.49,0.87-9.05,0.88-13.59,0.7c-3.54-0.13-7.07-0.52-10.47-1.66
	c-0.75-0.25-1.5-0.54-2.17-0.99c-1.43-0.98-1.52-1.48-0.53-2.9c0.13-0.19,0.2-0.43,0.29-0.65c0.06,2.49,1.83,3.17,3.82,3.64
	c6.06,1.44,12.2,1.47,18.36,1.04c2.28-0.15,4.54-0.44,6.74-1.05c0.54-0.15,1.06-0.34,1.59-0.51c1.31-0.42,2.11-1.24,2.09-2.7
	c-0.01-0.24,0-0.48,0.21-0.66c0.12,0.32,0.02,0.67,0.28,1C42.94,51.76,42.75,52.59,41.38,53.37z"/>
<path class="st2" d="M45.1,10.91c-2.01-0.58-4.05-0.79-6.13-0.41c-0.73,0.13-1.44,0.46-2.22,0.37c0.01,0.59,0.02,1.17,0.03,1.76
	c1.22-0.42,2.4-1.06,3.78-0.64c1.4,0.44,1.77,1.07,1.11,2.35c-0.35,0.67-0.91,1.24-1.38,1.86c0.53,1.65,0.11,2.19-1.62,2.11
	c-0.68,0.31-0.78,1.2-1.48,1.5c-0.39,0.74-0.14,1.54-0.23,2.31c-0.11,0.87,0.01,1.8-0.71,2.49c-0.01,0.08-0.01,0.15,0,0.23
	c0.57,0.34,1.48,1.36,1.94,0.85c0.06,0.06,1.6-0.22,0.98-0.27c-2.02-0.16,1.34,0.46,1.33-0.32c-0.02-1.73-0.61-6.02,1.09-6.02
	l-1.28,0.01c0.32,0,0.63-0.01,0.95-0.01c0.02-0.46,0.04-0.91,0.07-1.36c-0.86-0.35-0.47-0.75-0.03-1.12
	c0.3-0.25,0.68-0.14,1.04-0.15c0.71-0.06,1.28-0.67,2.04-0.5c0.14-1.56,0.49-3.1,0.13-4.68C44.41,10.84,44.88,10.99,45.1,10.91z
	 M42.23,11.84c-0.32,0.06-0.56-0.07-0.63-0.38c-0.05-0.27,0.15-0.44,0.4-0.49c0.32-0.07,0.52,0.09,0.64,0.34
	C42.64,11.63,42.48,11.79,42.23,11.84z"/>
<path class="st4" d="M41.46,1.95c-0.21-0.61-0.81-0.44-1.24-0.4c-1.03,0.11-1.89-0.03-2.42-1.07c-0.2-0.4-0.57-0.72-1.08-0.55
	c-0.52,0.18-0.74,0.61-0.69,1.14c0.23,2.59-0.5,4.95-1.72,7.19c1.25-0.11,2.26,0.25,2.87,1.43c0.69-2.48,1.61-4.81,3.9-6.32
	C41.53,3.07,41.65,2.47,41.46,1.95z M38.79,3.7c-0.42,0.47-0.76,1.15-1.52,0.93c-0.9-0.25-0.43-1.07-0.57-1.6
	c0.06-0.46-0.15-0.98,0.26-1.27c0.54-0.38,0.72,0.3,1.09,0.46C38.69,2.5,39.82,2.56,38.79,3.7z"/>
<path class="st4" d="M6.22,3.53C6.3,2.95,6.31,2.26,5.55,2.05c-0.68-0.18-1.14,0.2-1.48,0.76c-0.4,0.68-0.95,1.06-1.78,0.85
	C1.7,3.5,1.01,3.3,0.7,3.98C0.4,4.62,0.93,5.11,1.37,5.5c1.92,1.73,3.17,3.83,3.66,6.37c0.57-1.31,1.28-1.63,3.07-1.37
	C6.75,8.37,5.89,6.12,6.22,3.53z M4.21,6.9C3.54,6.95,2.09,5.82,2.22,5.32C2.51,4.23,3.67,4.61,4.39,4.3C5.04,4.03,5,4.89,5.06,5.4
	C4.92,5.98,5.24,6.83,4.21,6.9z"/>
<path class="st3" d="M47.76,16.45c-0.03,0.59-0.12,1.16-0.51,1.64c-0.01-0.2-0.03-0.39-0.06-0.76c-0.46,0.86-0.99,0.89-1.66,0.5
	c-0.38-0.22-0.83-0.23-1.27-0.09c-0.48,0.14-0.93,0.34-1.02,0.88c-0.09,0.54,0.34,0.81,0.72,0.99c0.67,0.34,1.39,0.57,2.09,0.85
	c0.05,0.38-0.06,0.8,0.25,1.11c0.92,0.94,0.29,1.51-0.48,2.04c0.1-0.63-0.1-1.12-0.69-1.42c-0.64-0.57-1.53-0.64-2.22-1.09
	c-0.76-0.49-1.76-0.82-1.65-2.02c0.02-0.46,0.04-0.91,0.07-1.36c0.33-0.43,0.67-0.85,1.01-1.27c0.71-0.06,1.28-0.67,2.04-0.5
	c0.93-0.03,1.84,0.07,2.6,0.63C47.37,16.86,47.53,16.65,47.76,16.45z"/>
<path class="st3" d="M48,15.04c-0.04,0.47-0.16,0.94-0.24,1.41c-0.23,0.2-0.39,0.41-0.78,0.13c-0.76-0.56-1.67-0.66-2.6-0.63
	c0.14-1.56,0.49-3.1,0.13-4.68c-0.1-0.43,0.37-0.28,0.59-0.36C47.7,11.44,48.23,12.19,48,15.04z"/>
<path class="st5" d="M47.06,24.26c-0.25,0.19-0.5,0.38-0.75,0.58c-0.74,0.28-1.46,0.63-2.22,0.84c-0.87,0.25-1.75,0.28-2.35-0.62
	c1.33-0.57,2.9-0.46,4.08-1.45c0.77-0.53,1.4-1.1,0.48-2.04c-0.31-0.31-0.2-0.73-0.25-1.11c0.08-0.07,0.16-0.13,0.25-0.19
	c0.07,0.55,0.6,0.69,0.92,1.01C48.4,22.46,48.37,23.27,47.06,24.26z"/>
<path class="st3" d="M47.25,18.09c-0.32,0.72-0.64,1.45-0.95,2.18c-0.09,0.06-0.17,0.12-0.25,0.19c-0.7-0.28-1.42-0.51-2.09-0.85
	c-0.38-0.18-0.81-0.45-0.72-0.99c0.09-0.54,0.54-0.74,1.02-0.88c0.44-0.14,0.89-0.13,1.27,0.09c0.67,0.39,1.2,0.36,1.66-0.5
	C47.22,17.7,47.24,17.89,47.25,18.09z"/>
<path class="st3" d="M36.99,10.45c-0.06-0.27-0.04-0.51,0.18-0.72C37.28,10.02,37.2,10.25,36.99,10.45z"/>
<path class="st0" d="M41.29,29.16L41.29,29.16C40.68,28.47,39.5,28.96,39,28c-0.07-0.13-0.65-0.13-0.47,0.44
	c0.24,0.78,0.24,1.56-0.05,2.33c-0.11,0.28,0.01,0.43,0.31,0.5C40.56,31.71,41.43,30.98,41.29,29.16z M40.05,30.68
	c-0.45,0.02-0.69-0.3-0.7-0.75c-0.02-0.49,0.26-0.75,0.71-0.74c0.44,0,0.71,0.27,0.73,0.66C40.77,30.41,40.48,30.67,40.05,30.68z"/>
<path class="st0" d="M41.28,29.15c0.01-0.68,0.51-0.5,0.86-0.45c0.49,0.06,0.15,0.41,0.17,0.64c0.02,0.22,0.15,0.44,0.23,0.66
	c0.56-0.31,0.14-0.85,0.33-1.15c0.22-0.36,0.7-0.2,1.16-0.07c-0.38,0.96-1.24,1.75-0.95,2.9c0.06,0.24-0.15,0.36-0.37,0.35
	c-0.27-0.01-0.58,0.01-0.8-0.12c-0.21-0.12,0.03-0.31,0.11-0.48C42.44,30.47,41.8,29.83,41.28,29.15
	C41.29,29.16,41.28,29.15,41.28,29.15z"/>
<path class="st6" d="M26.39,37.63c-0.09,1.8-0.48,4.06-1.04,6.31c-0.27,1.07-1.09,1.68-1.96,2.16c-2.72,1.51-5.49,2.93-8.56,3.62
	c-1.01,0.23-1.62,0.01-2.01-1.07c-1.86-5.27-3.24-10.66-4.14-16.17c-0.52-3.17,0.3-3.77,3.52-3.23c3.95,0.66,7.74,1.8,11.37,3.48
	C26.01,33.85,26.39,34.4,26.39,37.63z"/>
<path class="st7" d="M19.51,8.25c-2.71,1.14-3.46,3.27-3.13,6.12c0.21,1.85,0.73,3.64,1.1,5.46c0.13,0.67,0.63,1.12,1,1.65
	c0.55-0.05,0.79-0.41,0.99-0.89c1.45-3.53,2.18-7.19,2.13-11C21.58,8.14,20.87,7.68,19.51,8.25z M18.66,18.51
	c-0.64-0.01-0.55-0.85-0.76-1.29c-0.22-0.46,0.3-0.9,0.8-0.96c0.9-0.11,0.59,0.57,0.56,1C19.55,17.95,19.32,18.51,18.66,18.51z
	 M20.56,12.91c-0.14,0.29-0.37,0.66-0.7,0.54c-1.17-0.41-0.57,0.74-0.94,1.01c0.4,0.55-0.18,0.64-0.43,0.93
	c-0.6-1.2-1.06-2.35-0.01-3.51c-0.43-0.3-0.96-0.58-0.53-1.22c0.27-0.39,0.61-0.74,1.18-0.69c0.32,0.03,0.48,0.17,0.55,0.5
	c0.17,0.85-0.42,1.11-0.99,1.4c0.26,0.3,0.38,0.92,0.97,0.39c0.24-0.21,0.48-0.47,0.8-0.13C20.68,12.36,20.68,12.65,20.56,12.91z"/>
<path class="st7" d="M29.56,17.17c-0.09-0.76-0.35-0.84-1-0.4c-1.44,0.97-2.28,2.41-3.08,3.86c-1.01,1.82-2.32,3.57-1.97,5.86
	c0.52,0.1,0.93,0.02,1.17-0.54c0.22-0.53,0.83-0.6,1.08-0.26c0.84,1.13,1.97,0.81,3.05,0.79c-0.12-1.16,0.2-2.28,0.38-3.42
	C29.51,21.11,29.8,19.16,29.56,17.17z M26.48,24.56c-0.2,0.21-0.22,0.63-0.65,0.44c-0.4-0.17-0.47-0.55-0.34-0.91
	c0.22-0.63,0.91-0.99,1.02-1.7c0.01-0.04,0.23-0.1,0.3-0.05c0.11,0.07,0.19,0.21,0.32,0.37C26.47,23.2,27,24.01,26.48,24.56z
	 M27.85,21.51c-0.19,0.31-0.49,0.07-0.7-0.14c-0.28-0.28-0.36-0.64-0.18-0.98c0.25-0.46,0.7-0.76,1.16-0.96
	c0.22-0.1,0.36,0.22,0.41,0.48C28.31,20.44,28.15,21.01,27.85,21.51z"/>
<path class="st3" d="M21.58,21.18c-0.61,0.68-0.31,1.33,0.2,2.04c0.22,0.3,0,0.72-0.41,0.84c-0.34,0.11-0.51-0.05-0.73-0.38
	c-0.66-0.98,0.13-1.87,0.06-2.8c-0.02-0.28,0.28-0.36,0.54-0.32C21.54,20.59,21.58,20.82,21.58,21.18z"/>
<path class="st3" d="M32.88,15.76c-0.16,0.61-1.01,0.51-1.32,1.05c-0.02,0.04-0.37-0.28-0.35-0.53c0.06-0.65,0.69-0.88,1.11-1.21
	C32.54,14.9,32.83,15.32,32.88,15.76z"/>
<path class="st3" d="M32.11,25.04c-0.11,0.36-0.19,0.72-0.58,0.7c-0.44-0.02-0.56-0.36-0.56-0.74c-0.01-0.34,0.06-0.63,0.49-0.62
	C31.93,24.39,31.96,24.79,32.11,25.04z"/>
<path class="st3" d="M24.46,14.42c-0.08,0.34-0.28,0.69-0.72,0.72c-0.32,0.02-0.47-0.27-0.41-0.57c0.08-0.41,0.36-0.7,0.8-0.72
	C24.42,13.84,24.47,14.11,24.46,14.42z"/>
<path class="st3" d="M31.49,22.6c-0.41-0.05-0.51-0.33-0.53-0.66c-0.01-0.27-0.04-0.6,0.33-0.64c0.37-0.04,0.56,0.22,0.6,0.57
	C31.93,22.2,31.83,22.47,31.49,22.6z"/>
<path class="st3" d="M20.56,6.6c0.33,0.02,0.54,0.1,0.52,0.4c-0.02,0.32-0.23,0.5-0.53,0.51c-0.3,0.01-0.56-0.14-0.52-0.48
	C20.06,6.71,20.34,6.63,20.56,6.6z"/>
<path class="st3" d="M22.9,16.71c0.24,0.05,0.36,0.19,0.25,0.42c-0.14,0.31-0.21,0.73-0.69,0.66c-0.2-0.03-0.36-0.21-0.3-0.43
	C22.26,16.99,22.53,16.76,22.9,16.71z"/>
<path class="st3" d="M23.5,8.37c-0.02,0.27-0.15,0.54-0.53,0.58c-0.31,0.03-0.4-0.18-0.4-0.45c0-0.4,0.3-0.54,0.61-0.6
	C23.42,7.86,23.5,8.07,23.5,8.37z"/>
<path class="st3" d="M31.67,17.82c-0.01,0.25-0.04,0.51-0.37,0.49c-0.35-0.02-0.44-0.33-0.49-0.59c-0.06-0.27,0.11-0.48,0.39-0.48
	C31.55,17.25,31.63,17.53,31.67,17.82z"/>
<path class="st8" d="M36.25,24.61c-0.01,0.08-0.01,0.15,0,0.23c-1.36,0.28-2.21-0.63-1.76-1.98c0.22-0.66,0.32-1.19-0.32-1.68
	c-0.44-0.33-0.36-0.79-0.03-1.16c0.89-0.99,0.95-1.59,0.53-3.02c-0.18-0.63-0.08-1.34-0.09-2.02c0-0.21,0.09-0.39,0.35-0.4
	c0.24-0.01,0.36,0.17,0.43,0.35c0.2,0.52,0.54,1.05,0.52,1.57c-0.05,1.17,0.72,2.16,0.24,3.5C35.6,21.42,35.77,23.08,36.25,24.61z"
	/>
<path class="st7" d="M40.56,11.99c-1.38-0.42-2.56,0.22-3.78,0.64c0.06,0.79,0.13,1.59,0.2,2.38c0.54-0.06,1.01-0.03,0.94,0.7
	c0.95-0.63,1.59,0.26,2.37,0.49c0.47-0.62,1.03-1.19,1.38-1.86C42.33,13.06,41.96,12.43,40.56,11.99z M38.29,14.7
	c-0.38,0.04-0.84-0.13-0.82-0.65c0.03-0.68,0.49-0.95,1.13-0.96c0.45-0.01,0.89,0.01,0.96,0.59C39.48,14.47,38.88,14.65,38.29,14.7z
	"/>
<path class="st8" d="M28.06,14.01c0.02,0.59-1.27,1.88-1.95,1.91c-0.24,0.01-0.38-0.1-0.41-0.33c-0.04-0.34,0.06-0.79,0.41-0.72
	c1.3,0.28,0.73-0.61,0.74-1.11c0.01-0.23-0.16-0.45-0.17-0.69c-0.02-0.42,0.08-0.86,0.56-0.9c0.44-0.04,0.55,0.35,0.59,0.74
	C27.88,13.27,27.98,13.61,28.06,14.01z"/>
<path class="st7" d="M38.67,18.31c-0.68,0.31-0.78,1.2-1.48,1.49c-0.06-1.13-0.12-2.27-0.18-3.4c0.5,0.03,0.49-0.6,0.9-0.69
	c0,0-0.01,0-0.01,0C38.11,16.6,38.08,17.55,38.67,18.31z"/>
<path class="st9" d="M37.92,15.72c-0.41,0.09-0.4,0.72-0.9,0.69c-0.01-0.47-0.03-0.93-0.04-1.4C37.52,14.95,37.99,14.98,37.92,15.72
	z"/>
<path class="st2" d="M15.97,24.64c-0.17-0.33-0.28-0.84-0.84-0.63c-0.81,0.3-0.99-0.18-1.24-0.82c-0.29-0.76-0.36-1.7-1.45-1.98
	c-1.04-0.27-1.1-0.7-0.29-1.51c-0.87-0.22-1.33-0.71-1.7-1.58c-0.39-0.9-1.34-1.57-2.45-1.67c-0.45-0.04-1.01-0.05-0.49,0.68
	c0.63,0.9-0.82,1.15-0.61,1.92c-1.3,0.02-1.1,1.01-1.13,1.8C5.72,21.92,5.76,23,5.76,24.08c0.49,0.13,0.89,0.5,1.43,0.5
	c0.17-0.85-0.34-1.65-0.2-2.48c0.07-0.38,0.08-0.84,0.49-1.03c0.45-0.21,0.76,0.12,1.04,0.4c1.23,1.24,2.61,2.35,3.26,4.06
	c1.58,0.21,3.14,0.66,4.76,0.53C16.53,25.51,16.19,25.1,15.97,24.64z M8.78,19.53c-0.99-0.13-0.31-0.87-0.37-1.33
	c-0.05-0.34-0.07-0.82,0.49-0.73c0.48,0.08,0.81,0.37,0.64,0.98C9.22,18.73,9.62,19.64,8.78,19.53z M9.78,20.9
	c-0.31-0.06-0.58-0.29-0.57-0.65c0-0.27,0.22-0.41,0.47-0.42c0.38,0,0.57,0.22,0.62,0.58C10.26,20.72,10.1,20.97,9.78,20.9z
	 M12.83,23.6c-0.3,0-0.51-0.18-0.55-0.49c-0.03-0.24,0.1-0.36,0.33-0.4c0.3,0.04,0.51,0.19,0.55,0.51
	C13.19,23.45,13.06,23.6,12.83,23.6z M15.08,25.77c-0.41-0.02-0.68-0.22-0.63-0.66c0.04-0.32,0.27-0.46,0.58-0.47
	c0.36,0.06,0.54,0.29,0.55,0.65C15.6,25.63,15.41,25.79,15.08,25.77z"/>
<path class="st3" d="M41.26,19.08c-0.1,1.21,0.89,1.53,1.65,2.02c0.69,0.45,1.58,0.52,2.22,1.09c-0.39,0.5-0.76,1.02-1.17,1.51
	c-0.26,0.31-0.56,0.64-0.98,0.19c0.33-0.22,0.75-0.45,0.63-0.91c-0.12-0.46-0.62-0.19-0.93-0.32c-0.84-0.35-1.32-0.12-1.6,0.76
	c-0.09,0.29-0.28,0.69-0.73,0.69c-0.01-1.67-0.03-3.35-0.04-5.02C40.63,19.09,40.94,19.08,41.26,19.08z"/>
<path class="st7" d="M7.19,24.58c0.17-0.85-0.34-1.65-0.2-2.49c0.06-0.37,0.08-0.84,0.49-1.03c0.44-0.2,0.75,0.12,1.04,0.41
	c1.22,1.24,2.61,2.35,3.25,4.05c-1.13,0.08-2.1-0.07-2.22-1.5c-0.03-0.3-0.27-0.36-0.52-0.38c-0.19-0.01-0.51-0.01-0.49,0.2
	C8.65,25.16,7.71,24.47,7.19,24.58z"/>
<path class="st10" d="M42.98,23.88c0.42,0.45,0.72,0.12,0.98-0.19c0.41-0.49,0.78-1,1.17-1.51c0.59,0.3,0.79,0.79,0.69,1.43
	c-1.18,0.98-2.75,0.88-4.08,1.45c-0.2,0.01-0.4,0.02-0.6,0.03c-0.66-0.68,0.1-0.95,0.39-1.34C42.07,23.05,42.51,23.75,42.98,23.88z"
	/>
<path class="st8" d="M42.98,23.88c-0.47-0.13-0.91-0.84-1.44-0.12c-0.3,0.39-1.06,0.66-0.39,1.34c-0.28,0.08-0.55,0.16-0.83,0.24
	l-0.01-0.01c0.02-0.4,0.03-0.81,0.05-1.21c0.45-0.01,0.64-0.41,0.73-0.69c0.28-0.88,0.76-1.11,1.6-0.76
	c0.3,0.13,0.81-0.15,0.93,0.32C43.73,23.43,43.31,23.66,42.98,23.88z"/>
<path class="st5" d="M40.32,25.34c-0.32,0.85-0.4,0.87-1.67,0.4c0.64-0.16,1.15-0.29,1.66-0.42C40.3,25.32,40.32,25.34,40.32,25.34z
	"/>
<path class="st8" d="M16.88,22.44c-0.56-0.07-1.12-0.22-1.33-1c-0.15-0.54-0.38-1.01-1.19-0.74c-0.61,0.2-1.13-0.19-1.1-0.88
	c0.05-1.07-0.53-2.16-1.58-2.36c-0.76-0.15-1.02-0.68-1.39-1.18c-0.15-0.2-0.28-0.42-0.08-0.64c0.2-0.22,0.42-0.08,0.64,0.03
	c1.8,0.88,3.56,1.69,4.46,3.76c0.28,0.63,0.96,1.56,1.91,1.8c0.42,0.11,0.82,0.2,0.72,0.73C17.84,22.47,17.38,22.43,16.88,22.44z"/>
<path class="st8" d="M19.26,24.76c-0.12,0.66,0.13,1.28-0.57,1.24c-0.54-0.03-0.59-0.46-0.58-0.96c0.02-0.54-0.13-1.08-0.23-1.62
	c-0.04-0.23-0.2-0.5,0.08-0.62c0.28-0.11,0.65,0.09,0.67,0.33C18.69,23.82,19.42,24.29,19.26,24.76z"/>
<path class="st8" d="M16.78,23.18c0.28,0,0.46,0.11,0.47,0.41c0.01,0.27-0.07,0.49-0.38,0.47c-0.27-0.01-0.44-0.18-0.49-0.44
	C16.32,23.33,16.49,23.2,16.78,23.18z"/>
<path class="st7" d="M38.67,18.31c-0.6-0.77-0.57-1.71-0.76-2.6c0.96-0.65,1.6,0.26,2.38,0.48C40.82,17.85,40.4,18.39,38.67,18.31z"
	/>
<path class="st3" d="M42.34,16.45c-0.34,0.42-0.67,0.84-1.01,1.27c-0.86-0.35-0.47-0.75-0.03-1.11
	C41.6,16.35,41.98,16.46,42.34,16.45z"/>
<path class="st3" d="M42.64,11.31c0,0.31-0.15,0.47-0.41,0.53c-0.31,0.06-0.56-0.07-0.62-0.38c-0.06-0.27,0.15-0.43,0.4-0.49
	C42.32,10.9,42.52,11.06,42.64,11.31z"/>
<path class="st5" d="M36.7,3.03c0.06-0.46-0.16-0.98,0.26-1.27c0.54-0.38,0.72,0.31,1.08,0.47c0.64,0.28,1.77,0.34,0.74,1.48
	c-0.42,0.47-0.76,1.15-1.52,0.93C36.37,4.38,36.84,3.56,36.7,3.03z"/>
<path class="st5" d="M5.06,5.4C4.92,5.98,5.24,6.83,4.21,6.9C3.54,6.95,2.09,5.82,2.22,5.32c0.29-1.08,1.44-0.7,2.17-1.01
	C5.04,4.03,5,4.89,5.06,5.4z"/>
<path class="st0" d="M40.79,29.85c-0.02,0.56-0.32,0.82-0.74,0.84c-0.45,0.02-0.69-0.3-0.71-0.76c-0.01-0.49,0.26-0.74,0.71-0.74
	C40.5,29.19,40.77,29.46,40.79,29.85z"/>
<path class="st9" d="M18.69,11.87c0.25,0.3,0.38,0.91,0.97,0.39c0.24-0.22,0.48-0.48,0.81-0.13c0.22,0.23,0.21,0.52,0.09,0.78
	c-0.13,0.29-0.36,0.66-0.7,0.54c-1.17-0.41-0.57,0.74-0.94,1.01c0.4,0.55-0.18,0.64-0.43,0.93c-0.6-1.2-1.06-2.35-0.01-3.51
	C18.55,11.88,18.62,11.87,18.69,11.87z"/>
<path class="st9" d="M18.69,11.87c-0.07,0-0.14,0-0.22,0.01c-0.43-0.3-0.96-0.58-0.53-1.22c0.27-0.39,0.61-0.75,1.18-0.7
	c0.32,0.03,0.48,0.17,0.55,0.51C19.85,11.32,19.26,11.58,18.69,11.87z"/>
<path class="st9" d="M19.26,17.26c0.28,0.69,0.06,1.26-0.6,1.25c-0.64,0-0.55-0.85-0.76-1.29c-0.22-0.46,0.3-0.9,0.8-0.96
	C19.6,16.15,19.29,16.83,19.26,17.26z"/>
<path class="st9" d="M28.54,19.91c-0.22,0.53-0.39,1.1-0.69,1.59c-0.19,0.31-0.49,0.07-0.7-0.13c-0.28-0.29-0.37-0.64-0.18-0.98
	c0.25-0.46,0.7-0.75,1.15-0.96C28.35,19.33,28.49,19.65,28.54,19.91z"/>
<path class="st9" d="M27.13,22.71c-0.66,0.49-0.13,1.3-0.65,1.84c-0.21,0.21-0.22,0.64-0.66,0.45c-0.39-0.17-0.47-0.55-0.34-0.91
	c0.22-0.63,0.91-0.99,1.02-1.7c0.01-0.04,0.23-0.09,0.3-0.05C26.92,22.41,27,22.55,27.13,22.71z"/>
<path class="st9" d="M39.56,13.68c-0.08,0.79-0.68,0.97-1.27,1.02c-0.38,0.03-0.84-0.13-0.81-0.66c0.03-0.68,0.49-0.94,1.12-0.96
	C39.05,13.08,39.49,13.1,39.56,13.68z"/>
<path class="st3" d="M9.54,18.45c-0.32,0.29,0.08,1.19-0.76,1.08c-0.99-0.13-0.31-0.87-0.37-1.33c-0.05-0.34-0.07-0.81,0.49-0.72
	C9.38,17.55,9.71,17.84,9.54,18.45z"/>
<path class="st3" d="M15.03,24.64c0.36,0.07,0.54,0.29,0.55,0.65c0.01,0.35-0.18,0.5-0.51,0.48c-0.41-0.02-0.68-0.22-0.63-0.67
	C14.49,24.79,14.72,24.65,15.03,24.64z"/>
<path class="st3" d="M10.3,20.41c-0.04,0.31-0.2,0.56-0.52,0.5c-0.3-0.06-0.58-0.29-0.57-0.65c0.01-0.27,0.22-0.41,0.48-0.42
	C10.06,19.83,10.25,20.05,10.3,20.41z"/>
<path class="st3" d="M12.61,22.71c0.3,0.04,0.52,0.18,0.56,0.5c0.03,0.24-0.11,0.39-0.33,0.39c-0.31,0-0.51-0.18-0.56-0.5
	C12.25,22.87,12.38,22.75,12.61,22.71z"/>
</svg>
