<?xml version="1.0" encoding="utf-8"?>
<!-- Generator: Adobe Illustrator 23.0.5, SVG Export Plug-In . SVG Version: 6.00 Build 0)  -->
<svg version="1.1" id="Layer_1" xmlns="http://www.w3.org/2000/svg" xmlns:xlink="http://www.w3.org/1999/xlink" x="0px" y="0px"
	 viewBox="0 0 285.9 330.8" style="enable-background:new 0 0 285.9 330.8;" xml:space="preserve">
<style type="text/css">
	.st0{fill:#D38320;}
	.st1{fill:#F5F4F4;}
	.st2{fill:#D26317;}
	.st3{fill:#D26419;}
	.st4{fill:#C0531A;}
	.st5{fill:#C15113;}
	.st6{fill:#D28D34;}
	.st7{fill:#D26617;}
</style>
<path class="st0" d="M282.5,44.8c-1.8-15.5-10.5-26.1-23.6-33.7c-7.9-4.6-16.4-7-25.4-8.3C221.3,1.1,209,1,196.8,2.4
	c-3.4,0.6-6.6-1-9.9-1.1l0,0c-9.4-0.5-18.7-1.1-28.1-1.6c-5,0-10-0.4-14.9,0C126.6,1,115.5,9.7,110.7,26c-1,3.2-1.5,6.1-5,7.3l0,0
	c-1.7,0-3,0.6-3.9,2.2l0,0c-1.1,0.2-1.8,0.8-2.1,1.9c-1.2,0.2-1.8,0.9-1.9,2.1l0,0c-0.8,0.3-1.2,1-1.3,1.8c-0.5,0.2-0.7,0.6-0.7,1.2
	l0,0c-1.5,1.3-2.1,3-2.1,5v0.4c-1.9,2.2-3.1,4.8-3.8,7.6c-1.2,1.1-2,2.3-2,4l0,0c-1.1,1.1-1.9,2.4-1.9,4c-0.3,0.2-0.3,0.4-0.2,0.7
	c-3.4,6-3.6,12.3-1.1,18.6c0.9,2.3,1.3,4.4,1.1,6.7c-0.8,0.4-1.2,1-1.3,1.8l0,0c-0.3,0.3-0.6,0.6-0.9,0.9c0,0,0,0,0-0.1
	c-0.9,0.1-1.5,0.6-1.7,1.4l0,0c-0.7,0.2-1.2,0.6-1.4,1.3c0,0.1,0,0.2-0.1,0.3h0.1c-0.3,0.4-0.5,0.8-0.8,1.2c0,0,0,0,0,0.1
	c-3.2,4.7-3.2,10.3,0.1,15.2l0,0c0.6,1.3,1.3,2.5,1.9,3.8c-1.1,0.3-1.8,0.9-1.9,2.1l0,0c-3,3.6-1.8,6.2,1.8,8.2
	c-2.3,4.7-3.7,9.5,0.1,14.1c-0.2,0.3-0.1,0.5,0.1,0.7c-0.3,2.1-0.5,4.3-1,6.3c-3.7,14.6-7.4,29.1-11.1,43.6
	c-4.9,8.2-10,16.3-16.1,23.8c-0.7,0.4-1.3,0.8-1.9,1.2c-2,0-3.7,0.7-5.3,1.9c-0.3-0.1-0.5-0.1-0.7,0.2c-2-0.1-3.7,0.6-5.3,1.8
	c-0.3-0.1-0.5-0.1-0.8,0.2c-3.1,0.9-6.3,1.8-8.6,4c-0.5,0.5-1,1.1-1.5,1.8l0,0c-2.3,1.6-2.3,3.3-0.5,5c0.1,0.1,0.2,0.2,0.4,0.3l0,0
	l0,0c1.3,3,7.3,3.7,4.3,8.8l0,0c-1,0.7-2,1.3-3,2l0,0c-1.8,0.1-3.5,0.4-4.8,1.6c-0.1,0.1-0.2,0.2-0.3,0.3c-3.3,0.7-4.5,2.9-3.5,5.8
	c1.5,4.5-0.1,7.6-3.5,10.2l0,0c-0.4,0.3-0.7,0.5-1.1,0.8V260c-0.9,0-1.5,0.5-1.8,1.4l0,0c-1.2,0.1-1.9,0.8-2.1,1.9
	c-0.3,0.1-0.6,0.2-0.9,0.3c-0.5,0.2-1,0.4-1.5,0.6c-2.1,0.3-2.9,2.1-3.9,3.5c-16,21.6-3.1,48.1,13.4,57c2.7,1.4,5.6,2.3,8.6,2
	c2.6-0.2,4.7-1.2,2.4-4.4c4.1-2.6,8.5-1.2,12.9-0.9c0.8,0.8,1.7,1.4,2.9,1.3v0.1c4.8,3.6,10,6.6,16.1,7.4c8.2,1.1,15.8-4,15.9-11.2
	c0-3.4,0.9-5.7,3.4-8.1c2.7-2.6,4.3-5.5-0.1-9c-5.5-4.3-4.3-10.4-2.2-16c1.4-3.9,3.6-7.5,6.1-10.8c14.6-19.1,33.8-33.6,49.9-51.1
	c3.1-3.4,7.8-4.6,12.4-4.2c7.5,0.7,12.8-2.7,18.2-7.4c17.5-15.2,35-30.5,55.8-41.2c13-6.8,24-15.8,31.9-28.4
	c5.4-8.7,12.3-16.7,12.6-27.7c0.2-6.9,2.6-12.9,7.2-18.1c2.1-2.3,3.9-4.9,5.1-7.9C285.8,74.6,284.2,59.7,282.5,44.8z M265.1,80.2
	L265.1,80.2L265.1,80.2z M265,80c0-0.1-0.1-0.1-0.1-0.2C265,79.9,265,79.9,265,80z M264.8,79.8l-0.1-0.1
	C264.7,79.7,264.8,79.7,264.8,79.8z M264.5,79.6L264.5,79.6L264.5,79.6z M264.2,79.5h-0.1C264.2,79.5,264.2,79.5,264.2,79.5z
	 M261.3,29.5c0.2,0.2,0.4,0.5,0.6,0.7C261.7,30,261.6,29.7,261.3,29.5c-1-1-2.1-2.2-3.4-2.1C259.2,27.3,260.4,28.5,261.3,29.5z
	 M255.9,28.8c-0.4,0.8-0.2,1.8,0.2,2.6C255.7,30.5,255.5,29.6,255.9,28.8z M235.8,69.6c-2.2-1.6-4.3-3.3-6.4-5.2
	c-0.6-0.5-1.3-1.2-1.9-1.6c0.7,0.4,1.3,1.1,1.9,1.6C231.4,66.3,233.6,68,235.8,69.6z M180.9,176.1c0.2-0.6,0.5-1.1,0.7-1.8
	c0-0.1,0.1-0.2,0.1-0.3c0,0.1-0.1,0.2-0.1,0.3C181.3,174.9,181.1,175.5,180.9,176.1z M103.8,214.4c3.9-6.2,7.6-12.6,11.4-18.9
	C111.4,201.8,107.7,208.2,103.8,214.4z M112.8,133.5L112.8,133.5c-0.7,1.2-1.8,2-3,2.6C111,135.4,112.1,134.7,112.8,133.5z
	 M175,78.2L175,78.2L175,78.2z M151.8,79.4L151.8,79.4c0.1-0.4,0.2-0.8,0.3-1.2C151.9,78.6,151.8,79,151.8,79.4z M157,77.1
	c-1.4,0.8-2.8,1.3-4.2,1.9C154.3,78.5,155.7,77.9,157,77.1z M147.7,141.8c0.1-0.4,0.1-0.8,0.1-1.3c-1,0.5-1.8,1.2-2.5,2.1
	c0.6-0.9,1.4-1.6,2.5-2.1C147.8,140.9,147.8,141.4,147.7,141.8z M144.8,143.4c1.1,0.1,1.9-0.1,2.4-0.6
	C146.7,143.3,145.9,143.5,144.8,143.4L144.8,143.4z M123.8,160.4c0-0.6,0-1.2,0-1.7C123.8,159.2,123.8,159.8,123.8,160.4
	L123.8,160.4z M129.8,96.4c0.5-0.2,0.9-0.5,1.2-0.9C130.7,95.9,130.3,96.2,129.8,96.4L129.8,96.4z M127.7,100.1
	c0-0.2,0.1-0.4,0.1-0.7l0,0C127.8,99.7,127.7,99.9,127.7,100.1z M126.5,102c-0.2,0.2-0.5,0.3-0.8,0.5l0,0
	C126.1,102.3,126.3,102.2,126.5,102z M125.8,101.6c0-0.1,0-0.2,0-0.3C125.8,101.5,125.8,101.6,125.8,101.6z M125.8,101.4
	c0-0.2,0-0.3,0.1-0.5C125.8,101,125.8,101.2,125.8,101.4z M125.9,100.8c0-0.1,0.1-0.2,0.1-0.3C126,100.5,125.9,100.6,125.9,100.8z
	 M127.8,159.4c1.3-0.1,2-0.7,2-2l0,0C129.7,158.7,129.1,159.4,127.8,159.4L127.8,159.4z M137.2,150.9c-0.3,0.3-0.8,0.5-1.5,0.5
	c0-0.3,0.1-0.6,0.2-0.9c-0.1,0.2-0.2,0.5-0.2,0.9C136.4,151.4,136.9,151.2,137.2,150.9z M137.8,149.4L137.8,149.4L137.8,149.4
	c0.6,0,1.1-0.2,1.5-0.5C138.9,149.2,138.4,149.4,137.8,149.4c0,0.5-0.1,0.8-0.3,1.1C137.6,150.3,137.7,149.9,137.8,149.4z
	 M137.4,150.6c-0.1,0.1-0.1,0.2-0.2,0.3C137.3,150.8,137.4,150.7,137.4,150.6z M139.8,147.4c-0.3,0-0.5,0.1-0.7,0.1
	C139.2,147.5,139.5,147.4,139.8,147.4L139.8,147.4z M139.3,148.8C139.3,148.8,139.3,148.9,139.3,148.8
	C139.3,148.9,139.3,148.8,139.3,148.8z M134.4,91.4c4.3-3.5,8.5-7.1,13.3-9.9l0,0C143,84.3,138.8,87.9,134.4,91.4z M131.8,93.4
	L131.8,93.4C131.8,93.5,131.8,93.5,131.8,93.4c-0.9,0-1.4,0.4-1.7,0.9C130.4,93.8,130.9,93.5,131.8,93.4c1.4-4.2,4.2-7.6,8-9.7
	C136,85.9,133.2,89.2,131.8,93.4z M139.2,69.3c0.8,0.2,1.7,0.2,2.6,0.1l0,0C140.9,69.5,140,69.5,139.2,69.3z M139.2,67
	c0.5,0.4,1,0.8,1.5,1.2C140.3,67.7,139.8,67.3,139.2,67z M135.2,65.4c0.2,0,0.4,0,0.6,0.1C135.6,65.4,135.4,65.4,135.2,65.4z
	 M134.2,64.9c0.1,0.1,0.3,0.2,0.5,0.3C134.4,65.1,134.3,65,134.2,64.9z M134.6,65.2c0.2,0.1,0.3,0.1,0.5,0.1
	C135,65.3,134.8,65.3,134.6,65.2z M133.8,64.4c0.1,0.2,0.2,0.4,0.4,0.5C134,64.8,133.9,64.6,133.8,64.4c0.6,0,1.2,0.1,1.6,0.5
	C134.9,64.6,134.4,64.5,133.8,64.4z M123.8,109.4L123.8,109.4c-2.2,0.8-2.5,2-1.9,3.4C121.3,111.4,121.6,110.2,123.8,109.4z
	 M122.8,114.4c1.2-1,1.1-2.3,1-3.6C123.8,112.1,123.9,113.4,122.8,114.4L122.8,114.4z M123.1,155.1c-0.6-0.5-1.9,0.1-4.3,1.3l0,0
	C121.3,155.2,122.5,154.6,123.1,155.1z M152.1,138.8c0.1-0.1,0.3-0.2,0.4-0.2C152.4,138.6,152.2,138.7,152.1,138.8z M152.7,138.4
	c0.2-0.1,0.3-0.3,0.4-0.4C153,138.1,152.9,138.3,152.7,138.4z M153.2,137.9c0.1-0.2,0.3-0.4,0.4-0.6
	C153.5,137.5,153.4,137.7,153.2,137.9z M153.6,137.3c0.1-0.2,0.1-0.4,0.2-0.7C153.7,136.8,153.6,137,153.6,137.3z M153.8,136.4
	c0-0.1,0-0.3,0-0.5C153.8,136.1,153.8,136.3,153.8,136.4z M153.8,135.4c-0.3,0.3-0.7,0.5-1.1,0.7
	C153.1,135.9,153.4,135.7,153.8,135.4L153.8,135.4z M160.1,130.9c1.5-2.3,3.2-4.1,6.1-4.4C163.3,126.8,161.5,128.6,160.1,130.9z
	 M146,130.8c-1,0.6-2,0.5-2.6-0.5c-0.2-0.3-0.3-0.5-0.3-0.8c0,0.2,0.1,0.5,0.3,0.8C144.1,131.3,145.1,131.4,146,130.8
	c6.7-4.1,14-7.3,20.6-11.5C160,123.5,152.7,126.7,146,130.8z M171.5,111.4c-1.8,0.8-3.6,1.8-5.4,2.7
	C167.8,113.2,169.6,112.3,171.5,111.4c0.3-0.1,0.5-0.2,0.8-0.3C172,111.2,171.7,111.3,171.5,111.4z M172.3,111.1L172.3,111.1
	L172.3,111.1z M173.7,110.8c0.3,0,0.5,0.1,0.8,0.2C174.2,110.9,174,110.8,173.7,110.8z M152.8,73.5L152.8,73.5c0.8,0,1.5,0,2.3,0
	C154.3,73.4,153.5,73.4,152.8,73.5z M150.8,73.4c-1.3-1.5-3.1-2-5-2c0.2,1.1,0.5,1.9,0.9,2.3c-0.4-0.5-0.7-1.2-0.9-2.3
	C147.7,71.4,149.5,71.9,150.8,73.4L150.8,73.4z M138.8,59.5C138.8,59.4,138.8,59.4,138.8,59.5c0.5,0.2,1.1,0.5,1.7,0.6
	C139.9,59.9,139.3,59.7,138.8,59.5z M137.7,58.5L137.7,58.5c0.3,0.2,0.5,0.5,0.8,0.7C138.3,59,138,58.7,137.7,58.5z M131.7,57.9
	c0.1,0,0.2,0,0.3-0.1C131.9,57.8,131.8,57.8,131.7,57.9z M132.2,57.7L132.2,57.7L132.2,57.7z M124.8,56.5c0,0.1,0,0.3,0,0.4
	C124.8,56.7,124.8,56.6,124.8,56.5L124.8,56.5C124.8,56.4,124.8,56.4,124.8,56.5c2.4-0.5,4.5,1.8,6.9,1.4
	C129.3,58.3,127.2,56,124.8,56.5z M124.8,57.4L124.8,57.4c-1.8-0.3-2.8-0.7-3.1-1.3C122,56.7,123,57.1,124.8,57.4z M121.8,119.4
	L121.8,119.4c-0.1,0-0.3,0.1-0.4,0.1C121.5,119.5,121.6,119.5,121.8,119.4z M121.3,119.6L121.3,119.6L121.3,119.6z M119.8,121.9
	c0.2,0.5,0.5,1,0.9,1.6l0,0C120.3,122.9,120,122.4,119.8,121.9z M160.9,133.7c0.3-0.3,0.5-0.8,0.6-1.3
	C161.4,132.9,161.2,133.4,160.9,133.7c-2.4,2.3-4.5,4.8-6.6,7.3C156.4,138.5,158.5,136,160.9,133.7z M166.7,126.4
	c0-0.4,0.1-0.8,0.2-1.1C166.8,125.6,166.8,126,166.7,126.4L166.7,126.4L166.7,126.4z M168.2,123.9c0.4-0.4,0.9-0.5,1.5-0.5
	C169.1,123.5,168.6,123.6,168.2,123.9z M174.4,113.5c0.4-0.3,0.7-0.6,1.1-1c-0.1-0.3-0.2-0.6-0.4-0.8c0.1,0.2,0.3,0.5,0.4,0.8
	C175.1,112.9,174.8,113.2,174.4,113.5z M175,77.7L175,77.7c0.3-1.4,1.5-1.3,1.9-1.2C176.5,76.5,175.3,76.3,175,77.7z M148.4,60.3
	c-0.4-0.7-1.1-1.1-1.8-1.3C147.3,59.2,147.9,59.5,148.4,60.3z M121.9,54.5c0.4-0.6,1.1-1.3,1.9-2c-2.7-2.4-5.6-4.7-7.9-7.4
	c2.4,2.7,5.2,5,7.9,7.4C123,53.1,122.3,53.8,121.9,54.5z M107.8,137.4L107.8,137.4c0.1-2.2,0.6-3.9,2.2-4.3
	C108.4,133.6,107.8,135.2,107.8,137.4z M125.7,210.7c-1.6,1.9-3.1,3.9-4.6,5.8C122.6,214.6,124.1,212.6,125.7,210.7z M124.6,203.1
	c0.8-0.9,1.7-1.9,3.1-1.1c0.1,0.1,0.2,0.1,0.3,0.2c-0.1-0.1-0.2-0.1-0.3-0.2C126.2,201.2,125.4,202.2,124.6,203.1z M129.7,205.2
	c-0.1,0.3-0.2,0.5-0.4,0.8C129.4,205.8,129.5,205.5,129.7,205.2z M106.3,219.1c-0.4,0.6-0.9,1-1.5,1.5
	C105.4,220.2,105.9,219.7,106.3,219.1c4.8-6.6,9.5-13.3,14.2-19.9C115.9,205.9,111.1,212.5,106.3,219.1z M169.1,135.3
	c4.3-5,8-10.6,11.3-18C177.2,124.7,173.5,130.3,169.1,135.3c-5.1,6-10.1,12.1-15,18.3C159,147.4,164,141.3,169.1,135.3z M172,184
	c-1.4,0.3-3,0.4-4.9,0.5c-0.2,0-0.4,0-0.6,0c0.2,0,0.4,0,0.6,0C169,184.4,170.6,184.3,172,184z M196.9,173.8l-0.1,0.1
	C196.8,173.9,196.9,173.8,196.9,173.8z M195.5,163.6c1.5,0.3,2.2,1.5,2.7,2.7C197.7,165,197,163.9,195.5,163.6z M194.5,163.5
	c-0.8,0-1.3,0.3-1.8,0.7C193.2,163.8,193.8,163.6,194.5,163.5z M191.9,165.5c-0.1,0.3-0.2,0.5-0.3,0.8c-0.6,1.9-1.5,3.5-2.9,4.4
	c1.4-0.9,2.3-2.4,2.9-4.3C191.7,166.1,191.8,165.8,191.9,165.5z M177.2,80.1c-0.3-0.2-0.7-0.3-1-0.5C176.5,79.8,176.9,80,177.2,80.1
	c4.1,2.1,8.2,4,12.3,6.2C185.4,84.2,181.2,82.3,177.2,80.1z M216.9,109.7c-1.9-2.2-3.9-4.3-5.8-6.4
	C213,105.3,214.9,107.5,216.9,109.7z M224.7,62.9c-0.3,0.2-0.4,0.4-0.6,0.6C224.2,63.4,224.4,63.1,224.7,62.9c0.5-0.4,1-0.6,1.5-0.5
	C225.7,62.4,225.2,62.5,224.7,62.9z M226.6,62.5L226.6,62.5L226.6,62.5z M226.4,62.4h-0.1C226.3,62.4,226.3,62.4,226.4,62.4z
	 M133.3,54.6c-6.9-2.8-13-6.6-17.2-12.9C120.3,48,126.4,51.8,133.3,54.6z M112.3,34.1c-0.3-0.3-1.1-0.5-1.6-0.7l0,0
	C111.2,33.7,112,33.8,112.3,34.1z M89.8,239.5c-2.4,0.8-4.1,2.2-4,5l0,0C85.7,241.7,87.4,240.3,89.8,239.5L89.8,239.5z M75.2,250.5
	c3.9-0.1,7.8,0.4,11.6-1l0,0C83,250.8,79.1,250.4,75.2,250.5c-1,0-1.9,0-2.8,0.2C73.2,250.5,74.2,250.5,75.2,250.5z M87.8,251.5
	L87.8,251.5L87.8,251.5z M27.8,302.5c-0.7,0-1.4,0-2.1,0C26.4,302.4,27.1,302.4,27.8,302.5C27.8,302.4,27.8,302.4,27.8,302.5z
	 M25.2,275.1c0.2-0.2,0.3-0.4,0.4-0.6C25.5,274.7,25.4,274.9,25.2,275.1z M25.8,273.5c-0.8,0.1-1.6,0.2-1.7,0.7
	C24.2,273.7,25,273.6,25.8,273.5L25.8,273.5z M23.4,297.2c-0.4-1.3-0.7-2.6-1-4C22.7,294.5,23.1,295.9,23.4,297.2z M21.8,284.4
	c-0.8,0.8-1.3,1.8-1.6,3C20.4,286.3,21,285.2,21.8,284.4L21.8,284.4z M23.8,298.4L23.8,298.4c0.5,0.5,0.9,0.9,1.4,1.4
	C24.7,299.4,24.2,298.9,23.8,298.4L23.8,298.4c-3-1.6-4.4-6-4-9.7C19.3,292.4,20.8,296.8,23.8,298.4z M19.9,288.1
	c0-0.1,0-0.3,0.1-0.4C20,287.9,20,288,19.9,288.1z M23.8,298.9c0,1.2,0,2.4,0,3.6l0,0C23.8,301.2,23.8,300.1,23.8,298.9z M39,275.1
	c0.9,0.2,1.8-0.8,2.6-1.1c0.5-0.2,1-0.5,1.5-0.8c-0.5,0.3-1,0.6-1.4,0.8C40.8,274.3,39.9,275.3,39,275.1z M38.7,270.7
	c-0.4,0.8-0.9,1.7-0.9,2.5C37.8,272.4,38.2,271.5,38.7,270.7c2.1-3.8,5.7-6,9.3-8c4.1-2.2,8.4-4.1,12.8-5c-4.5,0.9-8.7,2.8-12.8,5
	C44.4,264.7,40.7,266.9,38.7,270.7z M58.6,253.8c-0.2,0-0.3,0.1-0.4,0.2C58.4,253.8,58.5,253.8,58.6,253.8z M57.8,255.4
	c0.6,0,1.2-0.1,1.6-0.5C59,255.3,58.4,255.4,57.8,255.4L57.8,255.4z M53.8,256.4c-0.3-0.3-0.7-0.5-1-0.7
	C53.1,255.9,53.4,256.2,53.8,256.4c-0.9,1.2-2,1-3.2,1C51.7,257.5,52.9,257.6,53.8,256.4z M60.9,257.7L60.9,257.7
	C60.8,257.7,60.9,257.7,60.9,257.7z M59.4,254.9c0.1-0.1,0.3-0.3,0.4-0.5l0,0C59.7,254.7,59.5,254.8,59.4,254.9z M47.8,258.4
	c-0.2,0.2-0.4,0.3-0.5,0.5C47.4,258.8,47.6,258.6,47.8,258.4c-2.7-1.8-4.3-1.2-5,2l0,0C43.4,257.3,45.1,256.6,47.8,258.4z
	 M45.4,259.8c0.6-0.2,1.2-0.5,1.8-0.9C46.7,259.3,46,259.6,45.4,259.8z M72.1,262.3c-2.9,1.8-6.2,0.8-9.2,1.3
	c-6.3,1.2-11.8,4.2-17.1,7.8c5.2-3.6,10.7-6.6,17.1-7.8C65.9,263.1,69.2,264.1,72.1,262.3c1.1-0.7,2.6-0.9,2.5-2.8
	c0-0.2-0.1-0.4-0.2-0.5c0.1,0.2,0.1,0.3,0.2,0.5C74.7,261.4,73.1,261.6,72.1,262.3z M69.8,253.4L69.8,253.4c2.3,0,4.6,0,7,0
	C74.4,253.4,72.1,253.4,69.8,253.4z M102.5,233.4c-1.1-1.2-0.5-2.2,0.2-3.3C102,231.2,101.4,232.2,102.5,233.4
	c1,1.1,1.8,0.8,2.5,0.3C104.3,234.2,103.5,234.5,102.5,233.4z M161.9,187.4c0-1.5,0.6-2.3,1.4-2.6
	C162.5,185.1,161.9,185.9,161.9,187.4c0,1.6,0.7,2.6,1.7,3.1C162.6,189.9,161.9,189,161.9,187.4z M184.8,183.5
	c0.2-0.3,0.4-0.6,0.6-0.9c0.5-0.6,0.9-1.2,1.4-1.8c-0.5,0.5-0.9,1.1-1.4,1.8C185.3,182.9,185.1,183.2,184.8,183.5z M192,177.1
	c-2.2,0.9-3.7,2.1-5.1,3.7C188.3,179.2,189.8,178,192,177.1c2-0.8,3.5-1.8,4.6-3C195.5,175.3,194,176.3,192,177.1z M223.2,114.7
	c-1.2,0.9-2.1-0.1-2.8-1C221.1,114.6,222,115.6,223.2,114.7c0.4-0.3,0.6-0.6,0.6-1C223.7,114.1,223.6,114.4,223.2,114.7z
	 M226.1,68.7c5.6,7.2,12.5,12.2,20.8,14.1C238.6,80.9,231.7,75.9,226.1,68.7z M247.4,82.9L247.4,82.9L247.4,82.9z M263.5,82.6
	c-2.5,1.4-5.2,0.8-8.3,0.9C258.3,83.3,261,83.9,263.5,82.6c0.8-0.5,1.8-0.8,1.7-2C265.3,81.7,264.3,82.1,263.5,82.6z M266.8,53.8
	c0.5,1.1,1.3,2.1,2.5,2.1C268.1,55.8,267.3,54.9,266.8,53.8z M271.1,55.5L271.1,55.5L271.1,55.5z M271.9,51
	c-0.1,1.9,0.2,3.6-0.8,4.4C272.1,54.6,271.8,52.9,271.9,51z"/>
<g>
	<path class="st1" d="M84.3,91.6C84.3,91.6,84.4,91.6,84.3,91.6l0.2-0.1L84.3,91.6z M83.5,92.5C83.5,92.5,83.5,92.4,83.5,92.5
		L83.5,92.5L83.5,92.5z M80.4,95.5L80.4,95.5L80.4,95.5L80.4,95.5z M29.5,231L29.5,231L29.5,231L29.5,231z M25.7,243.7L25.7,243.7
		c0.1-0.1,0.2-0.2,0.3-0.3C25.8,243.5,25.8,243.6,25.7,243.7L25.7,243.7z M18.6,259.7L18.6,259.7L18.6,259.7L18.6,259.7z
		 M17.5,260.5v-0.1l-0.1,0.2L17.5,260.5z"/>
	<path class="st0" d="M282.5,45.1C280.7,29.6,272,19,258.9,11.4c-7.9-4.6-16.4-7-25.4-8.3c-12.3-1.7-24.5-1.9-36.8-0.5
		c10,3.5,19.9,7.1,28.2,14.1c2.9,2.4,4.9,5.3,7.2,8.2c0.9,1.1,0.9,2.5-0.1,3.7c-1.2,1.5-2.3,0.5-3.4-0.3c-4-3-8-5.9-11.9-8.9
		c-10.6-8.2-22.5-13.3-35.6-15.7C180,3.5,179,3,177.9,1.6c2.9,0,5.9,0,8.8,0C177.3,1.1,168,0.5,158.6,0c-0.1,1.6-1.5,2-2.5,2.8
		c-9.4,7.3-11.1,17.9-4.9,28.3c4.8,8.1,12,13.1,20.3,16.8c10.7,4.9,22.4,7,33.2,11.7c11.2,4.9,19.5,12,23.3,25.3
		c-4.9-3.8-8.4-7.4-12.8-9.9c-11.2-6.4-23.4-8.6-36-10.3c-10.2-1.3-20.5-0.2-30.6-2.9c-3.4-0.4-6.8-0.5-10-2c-0.3-0.3-0.7-0.6-1-1
		c-1.7-0.3-3.3-0.7-4.9-1c-2.9,1.6-5.2-1.6-8-1c0,0.3,0,0.7,0,1c2,1.3,4,2.7,6,4c0.3,0.3,0.6,0.6,1,1c0.7,0.7,1.3,1.3,2,2
		c0.8,0,1.6,0.2,2,1c2.5,0.7,4.5,1.9,6,4c1.6,0.2,3,0.7,4,2c2,0,3.7,0.5,5,2c0.7,0,1.3,0,2,0c2.5-0.1,4.9,0,7.3,1.5
		c-2.5,2.2-5.4,3.3-8.3,4.4c-0.8,0-1.5,0.3-2,1c-0.3,0.3-0.6,0.6-1,1c-0.3,0-0.7,0-1,0c-5.8,3.4-10.7,8-16,12c0,1.4-0.7,2.4-2,3
		c-0.7,1-1.3,2-2,3c0,1.4-0.7,2.4-2,3c0.3,2.6-2.9,4.2-2,7c-0.2,1.7,0.6,3.6-1,5c-0.3,1.7-0.7,3.3-1,5c-0.1,1.4,0.4,2.9-1,4
		c-1.3,4.4-3.1,8.4-8,10c-1.1,2-3.3,2.7-5,4c-1,0.7-2,1.3-3,2c-0.3,0.3-0.7,0.7-1,1s-0.7,0.7-1,1s-0.7,0.7-1,1
		c-2.2,6.7,2.8,13.3,10.6,14c2.1,0.2,4.3,0,6.4,0c5-2.4,5-2.4,5,4c2.3,3.7,2.7-0.6,4-1c0-1.3,0.7-1.9,2-2c0-0.3,0-0.7,0-1
		c0.3-0.3,0.6-0.7,1-1c1.7-1.3,2.6-3.6,5-4c0.1-1.3,0.8-1.9,2-2c0.1-1.3,0.7-1.9,2-2c1.3-1.8,2.5-3.7,5-4c0.7-1.3,1.7-2.3,3-3
		c0.4-0.8,1.2-1,2-1c0.4-2.3,2.6-2.8,4-4c1.5-2.1,3.5-3.3,6-4c1.6-2.7,3.5-4.9,7-5c0-0.8,0.3-1.5,1.1-1.9l0,0c0.4-0.8,1.1-1,2-1
		c3-2.5,6.3-4.4,11-6.8c-3.4,7.7-7.2,13.5-11.7,18.7c-22.8,26.5-42.3,55.6-62.8,83.9c-0.7,0.9-1.7,1.6-2.5,2.3c-0.2,2-1.4,3.1-3,4
		c-0.3,0.3-0.7,0.7-1,1c-0.1,2.3-2.1,3.3-3.3,4.8c-0.3,0.4-0.5,0.7-0.7,1.2c-0.3,0.3-0.6,0.7-1,1c-1.6,2.1-2.5,4.7-5,6
		c-0.6,2.3-1.6,4.2-4,5c0.3,1.7,0.7,3.3,1,5c1.9,2.7,1,4-2.1,4c-5,0-10,0-14.9,0c-3.3,0.3-6.7,0.7-10,1c-0.5,0.8-1.2,0.9-2,1
		c-1.3,0.7-2.5,1.2-4,1c-1.1,1.4-2.6,0.9-4,1c-0.5,0.8-1.2,1-2,1c-1.4,1.4-3.2,1.6-5,2c-6.6,3.1-11.7,8.2-17,13c0,0.8-0.2,1.6-1,2
		l-3,9c-0.6,4.9,0.8,9.4,2,14c1.3,1.3,2.7,2.7,4,4c3.2,1.5,6.4,1.2,9.7,0.2c8.4-2.5,18.9,0.9,24.1,7.6c1.5,2,1,3.7-0.8,5.2
		c1.2,3.5,5.9,2.8,7.6,7.5c-7.2,0-14,0-20.8,0c4.8,3.6,10,6.6,16.1,7.4c8.2,1.1,15.8-4,15.9-11.2c0-3.4,0.9-5.7,3.4-8.1
		c2.7-2.6,4.3-5.5-0.1-9c-5.5-4.3-4.3-10.4-2.2-16c1.4-3.9,3.6-7.5,6.1-10.8c14.6-19.1,33.8-33.6,49.9-51.1
		c3.1-3.4,7.8-4.6,12.4-4.2c7.5,0.7,12.8-2.7,18.2-7.4c17.5-15.2,35-30.5,55.8-41.2c13-6.8,24-15.8,31.9-28.4
		c5.4-8.7,12.3-16.7,12.6-27.7c0.2-6.9,2.6-12.9,7.2-18.1c2.1-2.3,3.9-4.9,5.1-7.9C285.7,75,284.2,60.1,282.5,45.1z M72,262.7
		c-2.9,1.8-6.2,0.8-9.3,1.3c-6.5,1.2-12.1,4.3-17.4,8c-1.2,0.8-2.5,1.7-3.8,2.3c-1.1,0.5-2.3,2-3.5,0.5c-0.9-1.2-0.1-2.6,0.5-3.7
		c2.1-3.8,5.7-6,9.3-8c7.3-4,15-6.8,23.6-5.3c1.4,0.2,2.6,0.6,2.9,2.1C74.6,261.8,73.1,262,72,262.7z M128.6,207.4
		c-7.3,8.7-13.8,18.1-22.5,25.5c-1.1,0.9-2.1,2.6-3.7,0.8c-1.3-1.5-0.2-2.7,0.6-3.9c6.2-9.4,13.8-17.7,21.3-26.1
		c0.8-0.9,1.7-2.2,3.3-1.3c1,0.6,1.7,1.5,2,3C129.4,206,129.1,206.8,128.6,207.4z M174,114.2c-8.3,7.3-18.7,11.3-28,16.9
		c-1,0.6-2,0.5-2.6-0.5c-0.7-1.1-0.1-1.9,0.8-2.5c8.9-5.8,17.6-11.9,27.3-16.4c1.4-0.7,3.1-1.4,4.1,1.1
		C174.9,113.4,174.5,113.8,174,114.2z M192,177.5c-3,1.2-4.7,3-6.5,5.5c-3.7,5.3-8.9,8.8-15.8,8.8c-0.8,0-1.7,0.1-2.5,0
		c-2.5-0.4-5.3-0.7-5.3-4c0-3.5,3-2.9,5.2-2.9c8.5-0.2,11.7-2.3,14.4-10.2c0.6-1.8,1.1-3.1,3.2-2.8c3.9,0.5,5.8-1.7,6.8-5.1
		c0.6-1.8,1.4-3,3.4-2.9s2.7,1.7,3.3,3.3C199.8,171.1,197.4,175.3,192,177.5z M223.1,115.1c-1.6,1.2-2.6-0.9-3.5-1.9
		c-6.6-7.2-12.8-14.8-20.7-20.7c-6.7-5-14.5-8.1-21.8-12c-1-0.5-2.4-0.9-2.1-2.4c0.3-1.5,1.7-1.2,2-1.2c12.1,1.3,21.7,6.5,30,13.8
		c6.5,5.7,12.5,12,15.8,20.2C223.4,112.3,224.5,114,223.1,115.1z M263.5,82.9c-3,1.7-6.2,0.5-9.9,1.1c-11.6-0.3-20.8-6.1-28-15.6
		c-1.1-1.5-3.1-3.4-1-5.2c1.7-1.4,3.3,0.3,4.7,1.5c6.3,5.5,13,10.4,21.3,12.4c4.2,1,8.4,1.7,12.6,2.5c0.8,0.1,1.8,0,2,1.1
		C265.4,82,264.3,82.4,263.5,82.9z M269.9,56.3c-2.3,0.3-3.3-2.2-3.8-4c-1.8-7-4.9-13.3-9.1-19.1c-1-1.4-2.3-3.5-0.4-4.9
		c1.8-1.3,3.4,0.2,4.7,1.6c5.7,6.1,8.9,13.3,10.7,20.4C271.4,53.1,272.6,55.9,269.9,56.3z M124.7,56.8L124.7,56.8L124.7,56.8
		L124.7,56.8z"/>
	<path class="st2" d="M13.7,263.7L13.7,263.7L13.7,263.7C13.6,263.7,13.6,263.7,13.7,263.7z"/>
	<path class="st2" d="M17.5,260.4v0.1c0,0-0.1,0-0.1,0.1L17.5,260.4z"/>
	<path class="st2" d="M18.7,259.7C18.6,259.7,18.6,259.7,18.7,259.7C18.6,259.7,18.6,259.7,18.7,259.7L18.7,259.7z"/>
	<path class="st2" d="M79.6,96.7L79.6,96.7C79.6,96.7,79.5,96.7,79.6,96.7C79.5,96.7,79.6,96.7,79.6,96.7z"/>
	<polygon class="st2" points="80.4,95.4 80.4,95.5 80.3,95.5 	"/>
	<path class="st2" d="M81.5,126L81.5,126C81.6,126,81.6,126,81.5,126L81.5,126z"/>
	<path class="st2" d="M81.6,115.7L81.6,115.7L81.6,115.7z"/>
	<path class="st2" d="M83.5,92.5L83.5,92.5C83.5,92.6,83.4,92.6,83.5,92.5L83.5,92.5C83.5,92.4,83.5,92.5,83.5,92.5z"/>
	<path class="st2" d="M84.5,91.5L84.5,91.5L84.5,91.5L84.5,91.5L84.5,91.5z"/>
	<path class="st2" d="M85.7,89.7C85.7,89.8,85.7,89.8,85.7,89.7C85.7,89.8,85.7,89.8,85.7,89.7L85.7,89.7z"/>
	<path class="st2" d="M96.5,41.5C96.5,41.6,96.5,41.6,96.5,41.5c-0.1,0.1-0.1,0.1-0.2,0.1L96.5,41.5z"/>
	<path class="st2" d="M99.6,37.7L99.6,37.7L99.6,37.7L99.6,37.7z"/>
	<path class="st2" d="M161.7,131.8c-0.3,0.8-0.4,1.7-0.9,2.3c-8.6,8.4-14.7,18.8-21.9,28.2c-7.5,9.8-15.1,19.6-21.6,30.1
		c-5.2,8.4-10,17.1-15.4,25.4c-2.4,3.7-1,3.8,1.9,4.1c-0.2,2-1.4,3.1-3,4c-0.3,0.3-0.7,0.7-1,1c-0.1,2.3-2.1,3.3-3.3,4.8
		c-0.3,0.4-0.5,0.7-0.7,1.2c-0.3,0.3-0.7,0.7-1,1c-1.6,2.1-2.5,4.7-5,6c-2.4,0.8-4.1,2.2-4,5c0.3,1.7,0.7,3.3,1,5
		c-3.8,1.4-7.7,0.9-11.6,1c-2.3,0.1-4.7,0-5.4,3c-3.3,0.3-6.7,0.7-10,1c-1.5-1.5-1.8-0.3-2,1c-1.3,0.7-2.5,1.2-4,1
		c-1.8-1.4-3.3-1.7-4,1c-0.5,0.8-1.2,1-2,1c-2.7-1.8-4.3-1.2-5,2c-6.6,3.1-11.7,8.2-17,13c-1.3,0.2-2.5,0.4-1,2l-3,9
		c-3.4,3.4-2.3,11.6,2,14c0,1.3,0,2.7,0,4c-4.2-2.3-8.7-4.1-12.7-6.8c-2.4-1.5-3.4-3.3-3.3-6.1c0.1-4.2,0.9-8,2.1-12.1
		c1.4-4.7,4-9.1,3.9-14.2c1.3,0.1,2-0.6,2-1.9l0,0c0.9,0,1.7-0.2,1.8-1.3c0.4-0.3,0.7-0.5,1.1-0.8c3.8,0,5.1-2.2,5.1-5.7
		c0-3.5-0.5-7.2,1.9-10.3l0,0c2,0.1,4,0.4,5.1-1.9l0,0c1.5,0,2.9,0,3-2l0,0c3-0.7,2.4-3.3,1.6-4.7c-1.1-2.2-2.4-4.9-5.9-4l0,0l0,0
		l0,0c0-1.8,0.1-3.5,0.1-5.3c4.2-0.5,7.8-2,10.1-5.8c0.2-0.3,0.5-0.3,0.8-0.2c1.9-0.3,4.4,1.3,5.3-1.8c0.2-0.3,0.4-0.3,0.7-0.2
		c1.9-0.3,4.5,1.4,5.3-1.9c0.7,0,1.4,0,2,0c1.3-0.5,2.8,1.1,4.1-0.3c5.7-6,12.6-11.3,15.3-19.6c0.7-2.3,2.3-4.5,0.5-7
		c-1-3.9,1.4-7.3,1.8-10.8c1.1-10,5.9-18.9,7.4-28.6c0.4-2.6,3-6.3-1.1-8.6c-0.2-0.2-0.3-0.4-0.1-0.7c-0.4-3.9-0.1-7.7,1.6-11.3
		c0.7-1.6,0.6-2.9-1.6-2.8c-1.2-2.6-2.2-5.3-1.9-8.2l0,0c1.4,0,2-0.7,2-2c0.8-0.1,1.9-0.1,1.6-1.2c-0.4-1.8-1.8-2.7-3.6-2.7
		c1.5-5.1,0.3-10.1-0.1-15.2c0.6-0.2,0.9-0.6,0.8-1.2c1,0,1.2-0.8,1.3-1.6l0,0c0.9-0.1,1.6-0.3,1.7-1.3c0.6-0.1,0.9-0.4,1-1
		c1-0.2,1.2-0.9,1.2-1.8c3.9-0.8,4-3.4,2-5.7c-1.5-1.7-1.5-3.4-2-5.3c-1.2-4.8,0.8-9.5,0-14.2c-0.1-0.3-0.1-0.5,0.2-0.7
		c2.6-0.4,1.8-2.5,1.9-4l0,0c2.7-0.3,1.9-2.4,2-4c3.6-1.3,4.3-4.2,3.8-7.6v-0.4c3.3-0.5,1.8-3.2,2.1-5l0,0c0.3-0.4,0.5-0.8,0.8-1.2
		c1-0.2,1.2-1,1.2-1.8l0,0c1.3,0,2-0.7,1.9-2.1c1.3,0.1,2-0.6,2.1-1.9l0,0c1.6-0.2,3.8,0.8,3.9-2.2l0,0c1.7,0.1,3.4,0.1,5.1,0.2
		c0.5,9,7.2,13.7,13,19c-2.6,2.3-3.8,4.3,1,5c2,1.3,4,2.7,6,4c0.3,0.3,0.6,0.6,1,1c0.7,0.7,1.3,1.3,2,2c0.4,0.8,1.2,1,2,1
		c0.5,3.6,3,4.2,6,4c1.6,0.2,3,0.7,4,2c0.5,3.6,2.5,3.3,5,2c0.7,0,1.3,0,2,0c0.3,2.1-0.7,4-1,6c-0.8,0-1.5,0.3-2,1
		c-0.3,0.3-0.6,0.6-1,1c-0.3,0-0.7,0-1,0c-7.6,0.5-13.7,5.1-16,12c-2,0.1-2,1.5-2,3c-0.7,1-1.3,2-2,3c-2,0.1-2,1.6-2,3
		c0.3,2.6-2.9,4.2-2,7c-3.1,1.1-2.4,3-1,5c-0.3,1.7-0.7,3.3-1,5c-2.7,0.7-2.4,2.2-1,4c-1.3,4.4-3.1,8.4-8,10c-3.7-1.3-4.9,0.7-5,4
		c-1,0.7-2,1.3-3,2c-0.3,0.3-0.7,0.7-1,1s-0.7,0.7-1,1s-0.7,0.7-1,1c-2.2,6.7,2.8,13.3,10.6,14c2.1,0.2,4.3,0,6.4,0
		c1.8,1.2,2.3,3.9,5,4c2.3,3.7,2.7-0.6,4-1c1.3,0,2-0.7,2-2c0-0.3,0-0.7,0-1c0.3-0.3,0.6-0.7,1-1c1.7-1.3,2.6-3.6,5-4
		c1.3,0,2-0.7,2-2c1.3,0,2-0.7,2-2c1.3-1.8,2.5-3.7,5-4c2.2,0.2,3.2-0.8,3-3c0.4-0.8,1.2-1,2-1c2.3-0.3,4.3-1.1,4-4
		c1.5-2.1,3.5-3.3,6-4C160.4,131.8,161.1,131.8,161.7,131.8z"/>
	<path class="st3" d="M228,84.9c-4.9-3.8-8.4-7.4-12.8-9.9c-11.2-6.4-23.4-8.6-36-10.3c-10.2-1.3-20.5-0.2-30.6-2.9
		c-0.4-2.6-2.6-2.5-4.5-3.1c-13.6-4-26.6-8.9-31.9-24.1c-0.1-0.4-1.1-0.6-1.7-0.9c-1.7,0-3.4-0.1-5.1-0.2c3.5-1.2,4.1-4,5-7.3
		c4.8-16.3,15.9-25,33.2-26.4c4.9-0.4,9.9,0,14.9,0c-0.1,1.6-1.5,2-2.5,2.8c-9.4,7.3-11.1,17.9-4.9,28.3c4.8,8.1,12,13.1,20.3,16.8
		c10.7,4.9,22.4,7,33.2,11.7C215.9,64.5,224.3,71.6,228,84.9z"/>
	<path class="st4" d="M60.7,315.8c-2.6,0.3-4.9-0.3-6.9-1.9c-4.1-3.3-8.8-4.4-14-4.1c-6.3,0.5-12.6-0.1-18.6-2.1
		c-3-1-5.9-2.3-9.7-3.9c4.7,9.6,14,12.6,20.3,18.9c2.3,3.2,0.2,4.1-2.4,4.4c-3,0.3-6-0.6-8.6-2c-16.6-8.8-29.5-35.3-13.4-57
		c1-1.4,1.8-3.2,3.9-3.5c0.5-0.2,1-0.4,1.5-0.6c0.3-0.1,0.6-0.2,0.9-0.3c0,0,0,0,0.1,0l0,0c0.1,5.1-2.5,9.5-3.9,14.2
		c-1.2,4-2,7.9-2.1,12.1c0,2.8,0.9,4.6,3.3,6.1c4.1,2.6,8.5,4.5,12.7,6.8c1.3,0,2.7,0,4,0c3.2,1.5,6.4,1.2,9.7,0.2
		c8.4-2.5,18.9,0.9,24.1,7.6C63,312.6,62.5,314.3,60.7,315.8z"/>
	<path class="st3" d="M47.5,323.3L47.5,323.3c-0.4-1.7-1.7-1.4-2.9-1.4c-4.3-0.3-8.7-1.7-12.9,0.9c-6.3-6.3-15.7-9.3-20.3-18.9
		c3.8,1.5,6.7,2.9,9.7,3.9c6,2,12.3,2.5,18.6,2.1c5.2-0.4,9.9,0.8,14,4.1c2.1,1.7,4.4,2.2,6.9,1.9c1.2,3.5,5.9,2.8,7.6,7.5
		C61.1,323.3,54.3,323.3,47.5,323.3z"/>
	<path class="st5" d="M232.1,28.7c-1.2,1.5-2.3,0.5-3.4-0.3c-4-3-8-5.9-11.9-8.9c-10.6-8.2-22.5-13.3-35.6-15.7
		C180,3.5,179,3,177.9,1.6c2.9,0,5.9,0,8.8,0l0,0c3.3,0.1,6.5,1.8,9.9,1.1c10,3.5,19.9,7.1,28.2,14.1c2.9,2.4,4.9,5.3,7.2,8.2
		C233,26.1,233,27.5,232.1,28.7z"/>
	<path class="st4" d="M73.2,195.8c-2.7,8.4-9.5,13.6-15.3,19.6c-1.4,1.5-2.8-0.1-4.1,0.3c0-0.4-0.1-0.8-0.1-1.3
		c6-7.5,11.1-15.5,16.1-23.8c1.2-1,2.2-2.4,4-1.9C75.5,191.3,73.9,193.6,73.2,195.8z"/>
	<path class="st3" d="M82.9,149.4c-1.5,9.7-6.3,18.6-7.4,28.6c-0.4,3.6-2.8,6.9-1.8,10.8c-1.9-0.4-2.9,1-4,1.9
		c3.7-14.5,7.4-29.1,11.1-43.6c0.5-2.1,0.7-4.2,1-6.3C85.8,143.1,83.3,146.8,82.9,149.4z"/>
	<path class="st6" d="M184.8,212.4"/>
	<path class="st3" d="M85.7,89.8L85.7,89.8L85.7,89.8c0.2-2.4-0.2-4.5-1.1-6.7c-2.5-6.3-2.3-12.5,1.1-18.6c0.8,4.7-1.2,9.5,0,14.2
		c0.5,1.9,0.5,3.6,2,5.3C89.7,86.4,89.5,89,85.7,89.8z"/>
	<path class="st3" d="M79.7,111.9c-3.3-4.9-3.3-10.5-0.1-15.2c0,0,0,0,0-0.1l0,0C80,101.8,81.1,106.8,79.7,111.9z"/>
	<path class="st3" d="M83.2,128.8c-1.7,3.6-2,7.4-1.6,11.3c-3.8-4.7-2.3-9.4-0.1-14.1l0,0l0,0C83.8,125.9,83.9,127.2,83.2,128.8z"/>
	<path class="st3" d="M25.7,243.7c-2.4,3.1-1.9,6.7-1.9,10.3c0,3.4-1.3,5.7-5.1,5.7l0,0c3.4-2.6,5-5.7,3.5-10.2
		C21.2,246.6,22.4,244.4,25.7,243.7L25.7,243.7z"/>
	<path class="st3" d="M39.7,219.9c-2.3,3.8-5.9,5.3-10.1,5.8c0.4-0.7,0.9-1.3,1.5-1.8C33.5,221.7,36.6,220.8,39.7,219.9z"/>
	<path class="st3" d="M33.7,239.8c3-5.1-3-5.8-4.3-8.8l0,0l0,0c3.4-0.9,4.8,1.9,5.9,4C36.1,236.5,36.7,239.1,33.7,239.8z"/>
	<path class="st3" d="M81.6,126C81.5,126,81.5,126,81.6,126c-3.7-2.1-4.9-4.7-1.9-8.3C79.3,120.7,80.3,123.4,81.6,126L81.6,126z"/>
	<path class="st3" d="M89.7,55.8c0.8-2.8,1.9-5.4,3.8-7.6C94,51.6,93.3,54.4,89.7,55.8z"/>
	<path class="st3" d="M81.6,115.7L81.6,115.7L81.6,115.7c-0.7-1.3-1.3-2.6-2-3.9l0,0c1.8,0,3.2,0.9,3.6,2.7
		C83.5,115.6,82.4,115.6,81.6,115.7z"/>
	<path class="st3" d="M51.7,215.8L51.7,215.8c-0.8,3.4-3.4,1.6-5.3,1.9C48,216.5,49.7,215.8,51.7,215.8z"/>
	<path class="st3" d="M45.7,217.9c-0.8,3.2-3.4,1.5-5.3,1.8C42,218.5,43.7,217.8,45.7,217.9z"/>
	<path class="st3" d="M29.6,225.7c0,1.8-0.1,3.5-0.1,5.3l0,0c-0.1-0.1-0.3-0.2-0.4-0.3C27.4,229,27.3,227.3,29.6,225.7L29.6,225.7z"
		/>
	<path class="st3" d="M93.6,47.8c0-2,0.7-3.7,2.1-5C95.3,44.6,96.9,47.3,93.6,47.8z"/>
	<path class="st3" d="M105.6,33.6c0,3-2.3,2-3.9,2.2C102.5,34.2,103.9,33.6,105.6,33.6z"/>
	<path class="st3" d="M30.7,241.8c-1.1,2.3-3.1,2-5.1,1.9l0,0l0,0c0.1-0.1,0.2-0.2,0.3-0.3C27.3,242.2,28.9,241.9,30.7,241.8z"/>
	<path class="st3" d="M85.8,63.8c0-1.7,0.7-2.9,1.9-4C87.6,61.4,88.4,63.4,85.8,63.8z"/>
	<path class="st3" d="M87.7,59.8c0-1.7,0.8-2.9,2-4C89.6,57.4,90.4,59.5,87.7,59.8z"/>
	<path class="st3" d="M15.7,261.8c0,1.3-0.7,2-2,1.9h-0.1C13.8,262.6,14.5,261.9,15.7,261.8z"/>
	<path class="st3" d="M33.7,239.8c-0.1,2-1.5,2-3,2C31.7,241.1,32.7,240.5,33.7,239.8z"/>
	<path class="st3" d="M81.6,115.7L81.6,115.7c0,1.4-0.6,2.1-2,2.1C79.8,116.6,80.5,115.9,81.6,115.7L81.6,115.7z"/>
	<path class="st3" d="M99.6,37.7L99.6,37.7c0.1,1.4-0.6,2-1.9,2.1C97.8,38.6,98.5,37.9,99.6,37.7L99.6,37.7z"/>
	<path class="st3" d="M101.7,35.8c0,1.3-0.7,2-2.1,1.9l0,0l0,0C99.9,36.6,100.6,36,101.7,35.8z"/>
	<path class="st0" d="M47.5,323.2c-1.2,0.1-2.1-0.6-2.9-1.3C45.8,321.8,47.1,321.5,47.5,323.2z"/>
	<path class="st3" d="M85.7,89.7C85.7,89.8,85.7,89.8,85.7,89.7c0,0.9-0.2,1.7-1.2,1.8h-0.1l0,0C84.4,90.7,84.9,90.1,85.7,89.7
		C85.7,89.8,85.7,89.7,85.7,89.7z"/>
	<path class="st3" d="M83.5,92.4C83.5,92.4,83.5,92.5,83.5,92.4c0,0.1,0,0.1,0,0.2c-0.1,1-0.8,1.2-1.7,1.3
		C82,93,82.6,92.5,83.5,92.4z"/>
	<path class="st3" d="M53.7,215.8c-0.7,0-1.4,0-2,0l0,0c0.6-0.4,1.3-0.8,1.9-1.2C53.7,215,53.7,215.4,53.7,215.8z"/>
	<path class="st3" d="M81.7,93.9c-0.1,0.9-0.3,1.6-1.3,1.6h-0.1c0-0.1,0-0.2,0.1-0.3C80.5,94.5,81,94.1,81.7,93.9z"/>
	<path class="st3" d="M17.5,260.4v0.1c-0.1,1-0.9,1.2-1.8,1.3C16,261,16.6,260.5,17.5,260.4z"/>
	<path class="st3" d="M97.7,39.8c0,0.9-0.2,1.6-1.2,1.8h-0.1c0,0,0,0,0-0.1C96.5,40.8,96.9,40.1,97.7,39.8z"/>
	<path class="st3" d="M84.5,91.5L84.5,91.5c-0.1,0.7-0.4,1-1,1.1h-0.1l0.1-0.1C83.8,92.2,84.1,91.9,84.5,91.5L84.5,91.5z"/>
	<path class="st3" d="M18.7,259.7c-0.4,0.3-0.8,0.6-1.3,0.9C17.8,260.3,18.2,260,18.7,259.7z"/>
	<path class="st2" d="M12.7,264c-0.5,0.2-1,0.4-1.5,0.6C11.7,264.4,12.2,264.2,12.7,264z"/>
	<path class="st3" d="M96.5,41.5C96.5,41.6,96.5,41.6,96.5,41.5c-0.3,0.5-0.6,0.9-0.8,1.3c0-0.6,0.1-1,0.7-1.2
		C96.4,41.6,96.5,41.5,96.5,41.5z"/>
	<path class="st3" d="M80.4,95.4L80.4,95.4c0,0.7-0.3,1.1-0.8,1.3l0,0c0,0,0,0,0-0.1C79.8,96.3,80.1,95.9,80.4,95.4
		C80.4,95.5,80.4,95.5,80.4,95.4z"/>
	<path class="st5" d="M103.8,221.8c-2.9-0.3-4.3-0.4-1.9-4.1c5.4-8.3,10.2-17,15.4-25.4c6.5-10.5,14.1-20.3,21.6-30.1
		c7.3-9.4,13.4-19.8,21.9-28.2c0.5-0.5,0.6-1.5,0.9-2.2c2-1.3,3.7-2.9,5-5l0,0c0.8-0.4,1-1.1,1.1-1.9l0,0c0.8,0,1.5-0.2,2-1
		c3-2.5,6.3-4.4,11-6.8c-3.4,7.7-7.2,13.5-11.7,18.7c-22.8,26.5-42.3,55.6-62.8,83.9C105.6,220.4,104.6,221.1,103.8,221.8z"/>
	<path class="st7" d="M177,76.9c12.2,1.3,21.7,6.5,30,13.8c6.5,5.7,12.5,12,15.8,20.2c0.6,1.4,1.7,3.1,0.3,4.1
		c-1.6,1.2-2.6-0.9-3.5-1.9c-6.6-7.2-12.8-14.8-20.7-20.7c-6.7-5-14.4-8.1-21.8-12c-1-0.5-2.4-0.9-2.1-2.4
		C175.3,76.6,176.7,76.9,177,76.9z"/>
	<path class="st7" d="M169.7,191.8c-0.8,0-1.7,0.1-2.5,0c-2.5-0.4-5.3-0.7-5.3-4c0-3.5,3-2.9,5.2-2.9c8.5-0.2,11.7-2.3,14.4-10.2
		c0.6-1.8,1.1-3.1,3.2-2.9c3.9,0.5,5.9-1.7,6.9-5.1c0.5-1.8,1.4-3,3.4-2.9s2.7,1.7,3.3,3.3c1.4,3.9-0.9,8.1-6.3,10.3
		c-3,1.2-4.7,3-6.5,5.5C181.7,188.3,176.6,191.8,169.7,191.8z"/>
	<path class="st7" d="M253.6,84c-11.6-0.4-20.8-6.1-28-15.6c-1.1-1.5-3.1-3.4-1-5.1c1.7-1.4,3.3,0.3,4.7,1.5
		c6.3,5.5,13,10.4,21.2,12.4c4.2,1,8.4,1.7,12.6,2.5c0.8,0.2,1.8,0,2,1.1c0.2,1.2-0.9,1.6-1.7,2.1C260.5,84.6,257.2,83.4,253.6,84z"
		/>
	<path class="st7" d="M74.5,259.9c0.1,1.8-1.4,2.1-2.5,2.8c-2.9,1.8-6.2,0.8-9.2,1.3c-6.5,1.2-12.1,4.3-17.4,8
		c-1.2,0.8-2.5,1.7-3.8,2.3c-1.1,0.5-2.3,2-3.5,0.5c-0.9-1.2-0.1-2.5,0.5-3.7c2.1-3.8,5.7-6,9.3-8c7.3-4,15-6.8,23.6-5.3
		C73,258,74.2,258.4,74.5,259.9z"/>
	<path class="st7" d="M129.7,205.4c-0.3,0.6-0.6,1.4-1.1,2c-7.3,8.7-13.8,18.1-22.5,25.5c-1.1,0.9-2.1,2.6-3.7,0.8
		c-1.3-1.5-0.2-2.7,0.6-4c6.2-9.4,13.8-17.6,21.2-26.1c0.8-0.9,1.7-2.2,3.3-1.3C128.7,203.1,129.4,204,129.7,205.4z"/>
	<path class="st7" d="M272,50.3c-0.5,2.9,0.6,5.6-2.1,6c-2.3,0.3-3.3-2.2-3.8-4c-1.8-7-4.9-13.3-9.1-19.1c-1-1.4-2.3-3.5-0.4-4.9
		c1.8-1.3,3.4,0.2,4.7,1.6C267,36,270.2,43.2,272,50.3z"/>
	<path class="st7" d="M175.5,112.9c-0.5,0.5-1,0.9-1.5,1.3c-8.3,7.3-18.7,11.3-28,16.9c-1,0.6-2,0.5-2.6-0.5
		c-0.7-1.1-0.1-1.9,0.8-2.5c8.9-5.8,17.6-11.9,27.3-16.4C172.8,111.1,174.6,110.4,175.5,112.9z"/>
	<path class="st5" d="M110.7,33.8c0.6,0.3,1.5,0.4,1.7,0.9c5.2,15.2,18.3,20,31.9,24.1c1.9,0.6,4.1,0.5,4.5,3.1
		c-3.4-0.4-6.8-0.5-10-2c-0.3-0.3-0.7-0.6-1-1c-1.6-0.3-3.3-0.7-4.9-1c-2.6-2.5-6-3.3-9-5.1C117.9,47.5,111.2,42.8,110.7,33.8z"/>
	<path class="st3" d="M69.7,253.8c0.7-3,3.1-2.9,5.4-3c3.9-0.1,7.8,0.4,11.6-1c1.9,2.7,1,4-2.1,4C79.7,253.8,74.7,253.8,69.7,253.8z
		"/>
	<path class="st3" d="M131.7,93.8c2.3-6.9,8.4-11.5,16-12C141.9,85.2,137,89.8,131.7,93.8z"/>
	<path class="st3" d="M123.7,52.8c2.9,1.8,6.4,2.6,9,5.1c-2.9,1.6-5.2-1.6-8-1c-0.1-0.1-0.3-0.1-0.4-0.2c0.1,0.1,0.3,0.1,0.4,0.2
		c0,0.3,0,0.7,0,1C119.9,57,121.1,55.1,123.7,52.8z"/>
	<path class="st3" d="M23.7,298.8c-4.3-2.4-5.5-10.6-2-14C21.1,289.7,22.5,294.2,23.7,298.8z"/>
	<path class="st3" d="M151.7,79.8c0.3-2,1.3-3.9,1-6c2.5-0.1,4.9,0,7.3,1.5C157.5,77.6,154.6,78.7,151.7,79.8z"/>
	<path class="st3" d="M123.7,160.8c-2.6-0.1-3.2-2.8-5-4C123.7,154.4,123.7,154.4,123.7,160.8z"/>
	<path class="st3" d="M166.7,126.8c-1.2,2.1-2.9,3.7-5,5c-0.7,0-1.4,0-2,0C161.3,129.1,163.2,126.9,166.7,126.8z"/>
	<path class="st3" d="M107.7,137.8c0.1-3.3,1.3-5.2,5-4C111.6,135.8,109.4,136.5,107.7,137.8z"/>
	<path class="st3" d="M141.8,69.8c-3,0.2-5.5-0.4-6-4C138.2,66.5,140.2,67.7,141.8,69.8z"/>
	<path class="st3" d="M150.7,73.8c-2.5,1.3-4.5,1.6-5-2C147.7,71.8,149.4,72.2,150.7,73.8z"/>
	<path class="st3" d="M42.7,260.8c0.6-3.2,2.3-3.8,5-2C46.3,260.2,44.5,260.4,42.7,260.8z"/>
	<path class="st3" d="M85.8,244.9c-0.1-2.8,1.6-4.2,4-5C89.1,242.1,88.2,244.1,85.8,244.9z"/>
	<path class="st3" d="M122.7,114.8c-1.4-2-2.1-3.9,1-5C123.5,111.5,124.3,113.4,122.7,114.8z"/>
	<path class="st3" d="M153.7,135.8c0.2,2.9-1.7,3.7-4,4C150.1,137.5,152.2,137,153.7,135.8z"/>
	<path class="st3" d="M27.7,302.8c-1.3,0-2.7,0-4,0c0-1.3,0-2.7,0-4C25.1,300.1,26.4,301.5,27.7,302.8z"/>
	<path class="st3" d="M49.7,257.8c0.7-2.7,2.2-2.4,4-1C52.7,258.2,51.1,257.7,49.7,257.8z"/>
	<path class="st3" d="M120.7,123.8c-1.4-1.8-1.7-3.3,1-4C121.6,121.2,122.1,122.7,120.7,123.8z"/>
	<path class="st3" d="M147.7,140.8c0.2,2.2-0.8,3.2-3,3C145.4,142.5,146.4,141.5,147.7,140.8z"/>
	<path class="st3" d="M125.7,102.8c0-1.5,0-2.9,2-3C127.7,101.2,127,102.2,125.7,102.8z"/>
	<path class="st3" d="M129.7,96.8c0-1.5,0-2.9,2-3C131.7,95.2,131,96.2,129.7,96.8z"/>
	<path class="st3" d="M24.7,275.8c-1.5-1.6-0.3-1.8,1-2C25.7,274.6,25.5,275.4,24.7,275.8z"/>
	<path class="st3" d="M129.7,157.8c0,1.3-0.7,2-2,2C127.8,158.5,128.5,157.9,129.7,157.8z"/>
	<path class="st3" d="M137.7,149.8c0,1.3-0.7,2-2,2C135.8,150.5,136.4,149.9,137.7,149.8z"/>
	<path class="st3" d="M57.7,255.8c0.2-1.3,0.5-2.5,2-0.9C59.3,255.6,58.5,255.8,57.7,255.8z"/>
	<path class="st3" d="M139.7,147.8c0,1.3-0.7,2-2,2C137.8,148.5,138.5,147.9,139.7,147.8z"/>
	<path class="st3" d="M135.7,65.8c-0.8,0-1.6-0.2-2-1C134.6,64.8,135.3,65,135.7,65.8z"/>
	<path class="st3" d="M169.7,123.8c-0.4,0.8-1.1,1-2,1C168.2,124,168.9,123.8,169.7,123.8z"/>
	<path class="st3" d="M167.8,124.8c0,0.8-0.2,1.5-1.1,1.9C166.7,126,166.9,125.2,167.8,124.8z"/>
	<path class="st3" d="M99.7,226.8c0.3-0.3,0.7-0.7,1-1C100.4,226.2,100.1,226.5,99.7,226.8z"/>
	<path class="st3" d="M103.7,140.8c0.3-0.3,0.7-0.7,1-1C104.4,140.1,104.1,140.5,103.7,140.8z"/>
	<path class="st3" d="M94.7,233.8c0.3-0.3,0.7-0.7,1-1C95.4,233.1,95.1,233.5,94.7,233.8z"/>
	<path class="st3" d="M148.7,81.8c0.3-0.3,0.7-0.6,1-1C149.4,81.1,149.1,81.5,148.7,81.8z"/>
	<path class="st3" d="M101.7,142.8c0.3-0.3,0.7-0.7,1-1C102.4,142.1,102.1,142.5,101.7,142.8z"/>
	<path class="st3" d="M131.7,62.8c-0.3-0.3-0.7-0.6-1-1C131.1,62.2,131.4,62.5,131.7,62.8z"/>
	<path class="st3" d="M137.7,58.9c0.3,0.3,0.7,0.6,1,1C138.4,59.5,138,59.2,137.7,58.9z"/>
	<path class="st3" d="M130.7,155.8c-0.3,0.3-0.7,0.7-1,1C130.1,156.5,130.4,156.2,130.7,155.8z"/>
	<path class="st0" d="M124.7,56.8c-0.1-0.1-0.3-0.1-0.4-0.2C124.5,56.7,124.6,56.7,124.7,56.8L124.7,56.8z"/>
</g>
</svg>
