<?xml version="1.0" encoding="utf-8"?>
<!-- Generator: Adobe Illustrator 23.0.5, SVG Export Plug-In . SVG Version: 6.00 Build 0)  -->
<svg version="1.1" id="Layer_1" xmlns="http://www.w3.org/2000/svg" xmlns:xlink="http://www.w3.org/1999/xlink" x="0px" y="0px"
	 viewBox="0 0 57 32" style="enable-background:new 0 0 57 32;" xml:space="preserve">
<style type="text/css">
	.st0{fill:#E77104;}
	.st1{fill:#F58406;}
	.st2{fill:#F7A407;}
	.st3{fill:#E6B58A;}
	.st4{fill:#F4D5A3;}
	.st5{fill:#E26F1F;}
	.st6{fill:#BD4E07;}
	.st7{fill:#FCC45D;}
	.st8{fill:#F7893A;}
</style>
<path class="st0" d="M48.4,4.06C47.67,4.3,47.45,5,47.11,5.55C46.24,7,44.94,7.61,43.34,7.66c-2.43,0.08-4.84-0.23-7.25-0.41
	c-3.21-0.24-6.35-0.07-9.31,1.46c-1.44,0.75-2.96,1.36-4.48,1.92c-1.41,0.52-1.94,0.12-1.97-1.35c-0.04-1.31-0.01-2.61-0.01-4.01
	c-3.7,0.97-7.08,2.58-10.31,4.53c0.32,0.03,0.63,0.05,1.07,0.09c-0.54,0.83-1.33,1.29-1.93,1.93c-0.39,0.42-1.04,0.64-1.06,1.35
	c0.15,0.02,0.29,0.05,0.44,0.07c0.08-0.02,0.17-0.04,0.25-0.06c0.03-0.25,0.13-0.46,0.35-0.6c2.63-1.72,5.26-3.45,7.9-5.16
	c0.29-0.19,0.59-0.43,1.06-0.33c-0.31,2.6-0.57,5.19-1.55,7.65c-0.86,2.18-2.7,3.37-4.64,4.44c-0.1,0.18-0.27,0.24-0.46,0.26
	c0.06,0.62-1.07,0.47-0.79,0.94c0.31,0.53,1.13,0.35,1.72,0.46c1.72,0.31,3.32,0.89,4.84,1.71c0.08,0.08,0.16,0.15,0.24,0.22
	c0.26,0.03,0.54,0,0.71,0.27c2.57,1.1,4.5,4.37,4.02,7.09c-0.15,0.87,0.2,0.85,0.77,0.84c1.09,0.08,2.1-0.3,3.13-0.55
	c-0.07-0.98-1.05-1.19-1.58-1.77c-1.68-1.84-2.93-3.88-3.45-6.34c-0.72-2.73-0.98-5.45,0.74-7.91c1.2-1.72,3.07-2.61,4.96-3.38
	c4.11-1.66,8.34-1.38,12.58-0.8c0.24,0.03,0.47,0.03,0.71,0.04c-0.24-0.96-1.15-0.94-1.83-1.2c-0.26-0.09-0.65,0.16-0.8-0.26
	c-0.08-0.24-0.03-0.48,0.16-0.66c0.27-0.26,0.6-0.29,0.89-0.11c0.85,0.53,1.83,0.4,2.74,0.63c1.33,0.33,2.7-0.5,4.03,0.19
	c0.34,0.17,0.84,0.06,0.73,0.67c-0.1,0.51-0.54,0.67-0.91,0.53c-1.01-0.35-2.03,0.05-3.04-0.17c-0.43-0.09-1.07-0.33-1.32,0.41
	c1.87,0.49,3.76,0.86,5.7,0.97c0.04-0.04,0.09-0.03,0.13,0.01c-0.09-0.31,0.13-0.52,0.23-0.77C47.53,8.41,48.72,6.43,48.4,4.06z
	 M14.07,20.1c-0.29,0.06-0.44-0.12-0.45-0.4c-0.01-0.42,0.21-0.65,0.55-0.71c0.39-0.02,0.61,0.09,0.6,0.45
	C14.76,19.89,14.42,20.02,14.07,20.1z M22.12,12.96c-0.5,0.68-0.97,1.36-1.8,1.69c-0.67,0.27-0.78,1.05-0.99,1.56
	c-0.43,1.03-1.31,2.26-0.53,3.3c0.51,0.7,0.81,1.53,1.43,2.13c0.47,0.45,0.35,0.86-0.11,1.2c-0.59,0.43-0.76-0.06-0.95-0.47
	c-0.38-0.78-0.75-1.38-1.89-1.09c-0.52,0.13-1.22-0.37-1.82-0.63c-0.21-0.09-0.4-0.32-0.31-0.59c0.08-0.25,0.3-0.36,0.56-0.37
	c0.35-0.01,0.7,0,1.25,0c-0.89-0.99-0.78-1.46,0.31-2.08c0.76-0.44,1.19-1.54,1.67-2.39c0.64-1.16,1.97-1.7,2.54-2.92
	c0.09-0.2,0.56-0.45,0.85-0.15C22.64,12.46,22.3,12.71,22.12,12.96z"/>
<path class="st1" d="M49.41,25.46c-1.98-0.88-3.95-1.8-6.07-2.3c-0.35,0.35-0.1,1.06-0.77,1.22c-0.36,0.09-0.78,0.24-0.99-0.09
	c-0.25-0.39,0.06-0.74,0.39-1c0.33-0.26,0.74-0.22,1.13-0.23c-0.49-0.23-0.96-0.51-1.47-0.67C41.18,22.25,41,22,41.2,21.62
	c0.69-1.3,1.09-2.77,2.37-3.73c1.69-1.26,3.53-2.2,5.54-2.79c0.26-0.15,0.52-0.3,0.77-0.44c-2.22-0.1-4.42-0.1-6.5,0.94
	c-0.97,0.49-1.83,1.13-2.67,1.75c-2.6,1.91-5.42,3.44-8.48,4.37c-1.19,0.36-2.48,0.81-3.87,0.63c1.21,1.85,6.29,4.13,13.88,4.35
	c-1.99,0.89-3.75,1.66-5.59,1.79c-2.2,0.16-4.43,0.28-6.65-0.32c-3.17-0.86-5.74-2.55-7.9-4.95c-0.31-0.35-0.54-0.8-1.05-0.91
	c0.52,2.46,1.77,4.5,3.45,6.34c0.53,0.58,1.51,0.79,1.58,1.77c0.7-0.04,1.3,0.34,1.95,0.5c5.27,1.29,10.56,1.45,15.82,0
	c2.36-0.65,4.44-1.87,5.94-3.91C50.29,26.34,50.29,25.84,49.41,25.46z M36.08,23.77c-0.13,0.45-0.45,0.75-1.17,0.6
	c-0.67,0.09-1.09-0.52-1.59-1.07c-0.4-0.44-0.2-0.7,0.11-0.98c0.32-0.29,0.76-0.32,0.9,0.08c0.21,0.6,0.74,0.64,1.16,0.85
	C35.76,23.38,36.21,23.3,36.08,23.77z M37.82,23.36c-0.04,0.35-0.21,0.61-0.6,0.59c-0.24,0-0.34-0.19-0.29-0.41
	c0.09-0.33,0.29-0.55,0.63-0.64C37.83,22.96,37.84,23.16,37.82,23.36z M28.99,29.78c-0.23,0.36-0.75,0.67-1,0.34
	c-0.6-0.77-1.68-0.66-2.27-1.39c-0.18-0.24-0.39-0.4-0.29-0.71c0.09-0.24,0.29-0.37,0.6-0.39c0.07,0.01,0.28,0.01,0.29,0.07
	c0.31,1.18,1.54,0.83,2.25,1.34C28.87,29.26,29.3,29.31,28.99,29.78z M38.32,30.38c-0.86,0.76-1.89,0.4-2.82,0.44
	c-1.73,0.08-3.44-0.49-5.2-0.21c-0.33,0.06-0.66-0.05-0.8-0.38c-0.16-0.38,0.01-0.71,0.33-0.94c0.42-0.31,0.93-0.43,1.6-0.5
	c0.87,0.63,2.06,0.29,3.1,0.61c1.15,0.34,2.16,0.19,3.22-0.18c0.37-0.13,0.79-0.38,1,0.17C38.92,29.81,38.67,30.08,38.32,30.38z
	 M41.4,29.18c-0.16,0.56-0.53,0.98-1.16,1.03c-0.45,0.03-0.5-0.33-0.46-0.66c0.09-0.72,0.76-0.7,1.18-0.94
	C41.41,28.61,41.49,28.9,41.4,29.18z M47.73,26.9c-0.45,1.09-1.98,2.12-3.2,2.07c-0.3-0.01-0.51,0.04-0.75,0.19
	c-0.3,0.17-0.62,0.47-0.98,0.23c-0.46-0.3-0.27-0.75-0.17-1.18c0.16-0.7,0-1.56,0.96-1.84c-0.05-0.27-0.12-0.53-0.14-0.81
	c-0.04-0.39,0.15-0.85,0.5-0.78c0.61,0.11,1.28,0.34,1.72,0.74c0.29,0.26,0,0.84-0.44,1.06c-0.19,0.1-0.46,0.04-0.7,0.06
	c0.01,0.24,0.02,0.48,0.03,0.72c0.08,0.01,0.17,0.02,0.26,0.02c0.76-0.45,1.6-0.69,2.43-0.93C47.52,26.37,47.97,26.32,47.73,26.9z"
	/>
<path class="st2" d="M47.75,3.07c-1.55-0.79-3.24-1.06-4.91-1.34c-3.73-0.64-7.51-0.87-11.29-1.15C24.71,0.07,18.5,1.74,12.71,5.25
	c-0.01,0.08-0.03,0.16-0.04,0.24c0.12,0,0.23,0,0.35,0.01c0.57,0.06,1.38-0.27,1.3,0.81c-0.05,0.71-1,1.46-1.71,1.27
	c-0.57-0.14-0.84-0.54-0.55-1.17c0.14-0.32,0.56-0.46,0.56-0.87c-0.08-0.02-0.16-0.03-0.24-0.05C10.21,6.51,8.3,7.92,6.4,9.36
	c-0.21,0.62-0.21,1.26-0.22,1.9c0.5,0.63,0.79,0.01,1.05-0.24c0.78-0.75,1.6-1.38,2.78-1.22c3.23-1.95,6.61-3.56,10.31-4.53
	c0,1.4-0.03,2.7,0.01,4.01c0.03,1.47,0.56,1.87,1.97,1.35c1.52-0.56,3.04-1.17,4.48-1.92c2.96-1.53,6.1-1.7,9.31-1.46
	c2.41,0.18,4.82,0.49,7.25,0.41c1.6-0.05,2.9-0.66,3.77-2.11C47.45,5,47.67,4.3,48.4,4.06C48.48,3.53,48.2,3.3,47.75,3.07z
	 M11.48,8.02C10.74,8.63,9.61,8.49,9.17,9.3C8.79,9.31,8.65,9.25,8.6,9.08C8.52,8.83,8.54,8.6,8.75,8.43
	c0.73-0.62,1.73-0.63,2.56-1.06C11.62,7.21,11.76,7.79,11.48,8.02z M18.45,5.02c-0.58,0.08-1.05,0.12-1.43,0.64
	c-0.21,0.27-0.6,0.41-0.98,0.26c-0.34-0.13-0.29-0.45-0.25-0.71c0.05-0.49,0.39-0.63,0.84-0.67c1.99-0.19,3.68-1.18,5.44-2.02
	c0.28-0.13,0.53-0.39,0.87-0.27c0.18,0.05,0.2,0.22,0.1,0.43c-0.14,0.26,0.03,0.79-0.39,0.89C21.21,3.95,19.94,4.84,18.45,5.02z
	 M38,6.67c-0.44,0.03-0.63-0.27-0.62-0.68c0-0.42,0.21-0.66,0.66-0.68c0.37,0.13,0.78,0.24,0.73,0.76C38.72,6.5,38.35,6.65,38,6.67z
	 M39.79,3.62c-4.17,0.88-8.35,1.74-12.33,3.31c-1.27,0.5-2.57,0.9-3.85,1.36c-1.06,0.38-1.86-0.3-1.57-1.45
	c0.73-2.88,2.53-5.24,6.03-5.15c0.4,0.01,0.8,0,1.2,0c2.91,0.35,5.86,0.26,8.75,0.87c0.54,0.11,1.11,0.08,1.67,0.1
	c0.42,0,0.78,0.28,0.82,0.58C40.56,3.67,40.08,3.56,39.79,3.62z M42.71,5.96C42.46,6,42.23,5.93,42.19,5.62
	c-0.05-0.48,0.35-0.66,0.62-0.92c0.33,0,0.41,0.27,0.44,0.48C43.29,5.56,43.13,5.88,42.71,5.96z M44.66,5.46
	c-0.32,0.02-0.55-0.22-0.51-0.53c0.06-0.36,0.35-0.63,0.68-0.71c0.28-0.07,0.38,0.21,0.42,0.48C45.14,5.01,45.1,5.42,44.66,5.46z"/>
<path class="st1" d="M22.18,30.13c0.48-2.72-1.45-5.99-4.02-7.09c-0.06,0.5,0.16,0.9,0.4,1.33c1.19,2.11-0.03,4.13-2.44,4.2
	c-3.19,0.08-6.22-0.7-9.24-1.57c-1.86-0.53-3.65-1.22-5.29-2.27c0.06,2.37,1.2,3.78,3.13,3.84c0.05-0.53,0.36-0.83,0.86-0.67
	c0.54,0.18,0.4,0.56,0.09,0.9c0.09,0.64,0.59,0.45,0.98,0.48c0.12,0.25,0.5,0.32,0.47,0.68c2.52,0.82,5.13,1.16,7.74,1.36
	c2.7,0.2,5.42,0.35,8.09-0.35C22.38,30.98,22.03,31,22.18,30.13z M7.36,29.23c-0.23,0.06-0.47,0.03-0.71,0.04H6.64
	C6.5,29,6.52,28.76,6.69,28.49c0.22-0.36,0.54-0.45,0.92-0.35c0.26,0.07,0.43,0.25,0.42,0.52C8.01,29.06,7.65,29.15,7.36,29.23z
	 M9.38,29.65c-0.3,0.1-0.54-0.13-0.53-0.45c0.02-0.6,0.49-0.62,0.88-0.64c0.36,0.02,0.75-0.02,0.67,0.46
	C10.31,29.57,9.76,29.53,9.38,29.65z M14.15,29.98c-0.32,0.03-0.53-0.11-0.53-0.46c-0.01-0.43,0.22-0.64,0.56-0.7
	c0.39-0.01,0.6,0.11,0.6,0.46C14.78,29.7,14.57,29.95,14.15,29.98z M20.39,29.12c-0.86,1.25-2.18,1.26-3.55,1.36
	c-0.51-0.25-1.53,0.03-1.65-0.69c-0.17-1.02,0.89-0.48,1.36-0.73c0.52-0.27,0.95-0.25,1.48-0.09c0.67,0.2,1.1-0.29,1.52-0.72
	c0.27-0.27,0.53-0.5,0.91-0.14C20.87,28.49,20.64,28.75,20.39,29.12z"/>
<path class="st0" d="M4.92,16.59C4.7,17.12,4,17.32,3.99,17.99c-0.08,0.08-0.16,0.16-0.24,0.24c-0.08,0.08-0.16,0.16-0.24,0.24
	c-0.15,0.03-0.22,0.12-0.2,0.28c-0.29,0.51-0.99,0.7-1.04,1.39c-0.25,0.17-0.44,0.19-0.4-0.2c0.02-0.26,0.16-0.72-0.22-0.64
	c-1.54,0.34-1.19-0.76-1.27-1.55c0.04-0.29,0.08-0.58,0.12-0.88c0.98-0.32,2.1-0.28,2.88-1.19c0.31-0.37,0.25-0.5-0.01-0.85
	c-0.63-0.86-1.34-0.21-2.02-0.21C2,13.29,2.9,12.2,4.24,11.5c-0.03,0.29,0.11,0.52,0.28,0.73c0.01,1.44-0.34,2.89,0.19,4.31
	C4.77,16.58,4.84,16.59,4.92,16.59z"/>
<path class="st3" d="M55.34,10.84c0.07,0.69,0.02,1.39,0.02,2.08c-0.1-0.57-0.54-1.04-0.36-1.68c0.27-0.93-0.43-1.08-1.02-0.86
	c-0.91,0.33-2.07,0.71-2.16,1.81c-0.09,1.22,1.2,1.12,2.01,1.43c0.07,0.03,0.15,0.04,0.23,0.05c1.47,0.23,1.61,0.49,1.05,1.96
	c-0.7,0.05-1.3-0.3-1.91-0.53c-1.38-0.52-2.73,0.1-4.09,0c0.26-0.15,0.52-0.3,0.77-0.44c1.71-0.03,0.73-1.31,0.89-2.01
	c0.19-0.84-0.4-0.9-1.08-0.91c-1.12-0.03-2.31,0.36-3.3-0.48c0.04-0.04,0.09-0.03,0.13,0.01c0.95-0.07,1.86,0.27,2.84,0.19
	c1.64-0.12,2.93-0.89,4.2-1.79c0.8-0.57,1.64-0.8,2.48-0.03C55.51,9.87,55.29,10.24,55.34,10.84z"/>
<path class="st4" d="M56.88,15.16c-0.52,0.42-1.02,0.92-1.77,0.47c0.56-1.47,0.42-1.73-1.05-1.96c-0.08-0.01-0.16-0.02-0.23-0.05
	c-0.81-0.31-2.1-0.21-2.01-1.43c0.09-1.1,1.25-1.48,2.16-1.81c0.59-0.22,1.29-0.07,1.02,0.86c-0.18,0.64,0.26,1.11,0.36,1.68
	c0-0.69,0.05-1.39-0.02-2.08c-0.05-0.6,0.17-0.97,0.7-1.2c0.33,0.21,0.27,0.55,0.26,0.85c-0.05,1.16-0.03,2.27,0.7,3.28
	C57.29,14.18,57.41,14.73,56.88,15.16z"/>
<path class="st5" d="M7.12,29.96c-1.65-0.31-3.25-0.81-4.69-1.66c-1.53-0.9-1.51-2.68-1.97-4.17c-0.1-0.33-0.07-0.71-0.1-1.06
	c0.22-0.45-0.42-1.43,0.78-1.28c-0.01,0.5-0.01,0.99-0.02,1.49c0.05,0.41-0.16,0.86,0.24,1.2c0.08,0.08,0.15,0.16,0.23,0.25
	c0.06,2.37,1.2,3.78,3.13,3.84c0.26,0.33,0.62,0.2,0.95,0.23c0.09,0.64,0.59,0.45,0.98,0.48C6.77,29.53,7.15,29.6,7.12,29.96z"/>
<path class="st0" d="M2.27,20.14c-0.25,0.17-0.44,0.19-0.4-0.2c0.02-0.26,0.16-0.72-0.22-0.64c-1.54,0.34-1.19-0.76-1.27-1.55
	c-0.68,1.77-0.57,3.54-0.02,5.32c0.22-0.45-0.42-1.43,0.78-1.28c0.4,0.09,0.79,0.18,1.19,0.27c0.21-0.37,0.57,0.07,0.91-0.19
	C2.63,21.43,2.15,20.93,2.27,20.14z M0.43,21.38c-0.05-0.65-0.34-1.16,0.16-1.54c0.14-0.11,0.38,0.08,0.46,0.26
	C1.29,20.63,1.03,20.97,0.43,21.38z"/>
<path class="st0" d="M3.38,15.68c-0.78,0.91-1.9,0.87-2.88,1.19c0.29-0.74,0.12-1.67,0.85-2.25c0.68,0,1.39-0.65,2.02,0.21
	C3.63,15.18,3.69,15.31,3.38,15.68z"/>
<path class="st0" d="M6.4,9.36c-0.21,0.62-0.21,1.26-0.22,1.9c-0.11,1.08-0.97,0.88-1.66,0.97c-0.17-0.21-0.31-0.44-0.28-0.73
	C4.52,10.34,5.53,9.92,6.4,9.36z"/>
<path class="st6" d="M43.34,23.16c-0.35,0.35-0.1,1.06-0.77,1.22c-0.36,0.09-0.78,0.24-0.99-0.09c-0.25-0.39,0.06-0.74,0.39-1
	c0.33-0.26,0.74-0.22,1.13-0.23C43.18,23.09,43.26,23.12,43.34,23.16z"/>
<path class="st7" d="M12.71,5.25c-0.01,0.08-0.03,0.16-0.04,0.24l-0.05,0.05c-0.08-0.02-0.16-0.03-0.24-0.05
	C12.43,5.33,12.43,5.1,12.71,5.25z"/>
<path class="st2" d="M50.77,12.65c0.19-0.84-0.4-0.9-1.08-0.91c-1.12-0.03-2.31,0.36-3.3-0.48c-1.94-0.11-3.83-0.48-5.7-0.97
	c-0.21-0.01-0.43-0.02-0.65-0.03c-0.24-0.01-0.47-0.01-0.71-0.04c-4.24-0.58-8.47-0.86-12.58,0.8c-1.89,0.77-3.76,1.66-4.96,3.38
	c-1.72,2.46-1.46,5.18-0.74,7.91c0.51,0.11,0.74,0.56,1.05,0.91c2.16,2.4,4.73,4.09,7.9,4.95c2.22,0.6,4.45,0.48,6.65,0.32
	c1.84-0.13,3.6-0.9,5.59-1.79c-7.59-0.22-12.67-2.5-13.88-4.35c1.39,0.18,2.68-0.27,3.87-0.63c3.06-0.93,5.88-2.46,8.48-4.37
	c0.84-0.62,1.7-1.26,2.67-1.75c2.08-1.04,4.28-1.04,6.5-0.94C51.59,14.63,50.61,13.35,50.77,12.65z M31.76,25.22
	c0.49,0.47,1.7,0.11,1.75,1.31c0.02,0.65-0.35,1.07-1.02,1.04c-1.16-0.04-2.15-0.78-2.08-1.48C30.47,25.61,31.07,25.19,31.76,25.22z
	 M23.35,20.86c-0.46,0.05-0.86,0.01-0.87-0.63c-0.01-0.53,0.16-0.85,0.73-0.78c0.42,0.05,0.98-0.24,1.18,0.47
	C24.23,20.43,23.93,20.8,23.35,20.86z M24.42,22.38c-0.04-0.46,0.29-0.68,0.65-0.68c0.45-0.01,0.73,0.33,0.72,0.77
	c0,0.38-0.29,0.62-0.67,0.75C24.71,23.09,24.45,22.82,24.42,22.38z M26.2,24.48c-0.32-0.01-0.71-0.04-0.73-0.43
	c-0.02-0.47,0.35-0.69,0.77-0.75c0.33-0.04,0.69,0.05,0.7,0.45C26.95,24.19,26.7,24.49,26.2,24.48z M27.34,20.85
	c-0.4,0.03-0.8,0.01-1.17,0.01c-0.26,0.04-0.5,0.04-0.72,0.11c-0.35,0.1-0.55,0.02-0.56-0.36c-0.01-0.28-0.01-0.62,0.35-0.65
	c0.71-0.04,1.43-0.02,2.14,0c0.23,0,0.33,0.18,0.34,0.4C27.74,20.64,27.62,20.83,27.34,20.85z M30.64,21.29
	c-0.59,0.12-0.72-0.53-0.7-1c0.04-0.84,0.63-1.22,1.38-1.31c0.54-0.06,0.76,0.31,0.75,1.07C31.97,20.66,31.35,21.14,30.64,21.29z
	 M34.74,19.61c-0.34-0.07-0.75-0.17-0.71-0.61c0.06-0.61,0.31-1.16,1.04-1.23c0.47-0.04,0.59,0.24,0.62,0.66
	C35.73,19.12,35.38,19.45,34.74,19.61z M39.46,13.61c-0.65,1.02-1.74,1.49-2.68,2.13c-2.03,1.38-4.26,2.39-6.62,3.08
	c-1.53,0.45-2.98,0-4.41-0.51c-1.08-0.39-2.17-0.72-2.96-1.66c-0.4-0.47-0.39-0.85,0.02-1.24c1.77-1.68,3.67-3.16,6.14-3.59
	c1.91-0.33,3.83-0.74,5.33-0.55c1.82,0.05,3.15-0.05,4.48,0.44C39.8,12.09,40.09,12.64,39.46,13.61z M45.4,13.83
	c-1.13,0.23-2.25,0.17-3.3-0.36c-0.21-0.11-0.4-0.29-0.65-0.22c-0.37,0.1-0.72,0.23-0.73-0.38c0-0.56,0.32-0.67,0.66-0.63
	c0.98,0.27,2.02-0.33,2.77,0.6c0.22,0.27,0.67,0.08,1.02-0.04c0.3-0.1,0.66-0.18,0.78,0.26C46.08,13.51,45.77,13.75,45.4,13.83z"/>
<path class="st2" d="M18.56,24.37c-0.24-0.43-0.46-0.83-0.4-1.33c-0.17-0.27-0.45-0.24-0.71-0.27c-0.08-0.07-0.16-0.14-0.24-0.22
	c-1.52-0.82-3.12-1.4-4.84-1.71c-0.59-0.11-1.41,0.07-1.72-0.46c-0.28-0.47,0.85-0.32,0.79-0.94c-0.4,0-0.79-0.01-1.18-0.01
	c-0.32,0.35-0.69,0.59-1.2,0.47c0.16,0.6,1.1,0.84,0.79,1.67c0.87,0.25,1.73,0.57,2.61,0.73c1.75,0.32,2.23,0.84,2.32,2.7
	c0.1,1.94-0.08,2.18-2.02,2.1c-3.82-0.16-7.09-1.72-9.99-4.12c-0.21-0.18-0.46-0.34-0.43-0.67c-0.03-0.08-0.03-0.15-0.01-0.23v-0.02
	c-0.4-0.09-0.79-0.18-1.19-0.27c-0.01,0.5-0.01,0.99-0.02,1.49c0.39,0.34,0.19,0.79,0.24,1.2c0.08,0.08,0.15,0.16,0.23,0.25
	c1.64,1.05,3.43,1.74,5.29,2.27c3.02,0.87,6.05,1.65,9.24,1.57C18.53,28.5,19.75,26.48,18.56,24.37z M17.68,26.23
	c-0.01,0.5,0.03,0.96-0.48,1.06c-0.59,0.13-0.81-0.38-0.86-0.78c-0.09-0.68-0.31-1.25-0.68-1.84c-0.36-0.57,0.16-0.85,0.61-1.03
	c0.54-0.23,0.94,0.03,0.9,0.56C17.09,25,17.96,25.52,17.68,26.23z"/>
<path class="st2" d="M8.78,13.18c0.03-0.25,0.13-0.46,0.34-0.6c2.63-1.72,5.26-3.45,7.91-5.16c0.29-0.19,0.59-0.43,1.06-0.33
	c-0.31,2.59-0.57,5.19-1.55,7.64c-0.87,2.18-2.7,3.37-4.64,4.44c-0.22-1.3-1.24-0.45-1.86-0.69c-0.38-0.14-0.5,0.5-0.91,0.28
	c-1.42-0.72-1.5-0.68-1.53,0.9c-0.66-0.62-1.38-0.78-2.35-0.09c0.83-1.28,2.98-2.95,3.83-3.08c0.62,0.03,1.24,0.07,1.87,0.1
	c-0.18,0.07-0.36,0.18-0.54,0.19c-0.5,0.03-0.92,0.18-0.84,0.76c0.1,0.68,0.64,0.47,1.04,0.37c0.66-0.17,1.25-0.45,1.77-0.94
	c1.07-0.98,1.44-2.41,2.37-3.49c0.21-0.24,0.9-1.02,0.36-1.3c-0.63-0.33-0.85,0.6-1.23,1.01c-0.96,1.01-1,2.69-2.44,3.35
	c-0.03-0.79-1.42-0.89-0.96-1.92c1.59-1.06,2.87-2.46,4.13-3.87c0.14-0.16,0.23-0.36,0.06-0.52c-0.09-0.08-0.31-0.11-0.43-0.07
	c-0.33,0.13-0.64,0.3-0.94,0.47c-1.51,0.82-2.82,1.99-4.46,2.59L8.78,13.18z"/>
<path class="st6" d="M16.96,19.69c-0.89-0.99-0.78-1.46,0.31-2.08c0.77-0.43,1.19-1.53,1.67-2.39c0.64-1.16,1.97-1.7,2.55-2.92
	c0.09-0.19,0.55-0.44,0.84-0.15c0.31,0.32-0.03,0.56-0.21,0.81c-0.49,0.68-0.97,1.36-1.8,1.69c-0.66,0.26-0.78,1.05-0.99,1.56
	c-0.43,1.03-1.31,2.26-0.53,3.31c0.51,0.69,0.81,1.52,1.44,2.13c0.47,0.45,0.35,0.86-0.12,1.2c-0.58,0.42-0.75-0.06-0.95-0.47
	c-0.38-0.79-0.75-1.39-1.88-1.1c-0.52,0.13-1.23-0.37-1.83-0.63c-0.21-0.09-0.39-0.32-0.31-0.59c0.08-0.25,0.31-0.36,0.56-0.37
	C16.06,19.68,16.41,19.69,16.96,19.69z"/>
<path class="st0" d="M4.52,12.23c0.69-0.09,1.55,0.11,1.66-0.97c0.5,0.63,0.79,0.01,1.04-0.23c0.79-0.76,1.6-1.38,2.78-1.22
	c0.32,0.03,0.63,0.05,1.07,0.09c-0.54,0.83-1.33,1.29-1.92,1.93c-0.39,0.42-1.05,0.64-1.06,1.36c-0.08,0.59-0.62,0.72-1.01,0.99
	c-0.7-0.28-0.97-0.01-0.9,0.7c-0.01,0.09-0.03,0.18-0.04,0.28c-0.75,0.19-1.19,0.69-1.43,1.4C4.18,15.12,4.53,13.67,4.52,12.23z"/>
<path class="st6" d="M40.69,10.29c-0.22-0.01-0.44-0.02-0.65-0.03c-0.24-0.96-1.15-0.94-1.83-1.2c-0.25-0.09-0.64,0.15-0.79-0.27
	c-0.08-0.24-0.03-0.48,0.16-0.66c0.27-0.25,0.6-0.28,0.88-0.1c0.85,0.53,1.84,0.39,2.74,0.62c1.33,0.34,2.7-0.49,4.03,0.19
	c0.34,0.17,0.84,0.07,0.73,0.67c-0.09,0.51-0.53,0.67-0.91,0.54c-1-0.35-2.03,0.05-3.04-0.17C41.58,9.79,40.94,9.55,40.69,10.29z"/>
<path class="st7" d="M7.08,14.16c0.39-0.28,0.93-0.4,1.01-0.99c0.15,0.02,0.29,0.04,0.44,0.07c0.01,0.08,0.02,0.15,0.03,0.22
	c0.36,0.32,0.67,0.94,1.25,0.59c0.97-0.59,0.56,0.25,0.66,0.57c-0.46,1.03,0.93,1.14,0.96,1.92c-0.16,0.02-0.33,0.04-0.49,0.06
	c-0.62-0.03-1.24-0.07-1.87-0.1C9,16.37,8.94,16.23,8.85,16.11C8.4,15.5,7.78,16.32,7.42,16c-0.36-0.32,0.57-1.05-0.26-1.39
	C7.13,14.46,7.11,14.31,7.08,14.16z"/>
<path class="st7" d="M10.04,18.49c0.61,0.24,1.64-0.61,1.86,0.69c-0.1,0.19-0.27,0.25-0.46,0.26c-0.39,0-0.78,0-1.17-0.01
	C10.19,19.12,10.12,18.8,10.04,18.49z"/>
<path class="st6" d="M14.17,18.99c0.38-0.02,0.61,0.09,0.6,0.45c-0.01,0.45-0.35,0.58-0.7,0.66c-0.28,0.06-0.44-0.11-0.45-0.4
	C13.61,19.28,13.83,19.05,14.17,18.99z"/>
<path class="st1" d="M17.45,22.77c-0.08-0.07-0.16-0.15-0.24-0.22C17.29,22.63,17.37,22.7,17.45,22.77z"/>
<path class="st2" d="M8.56,13.46c-0.02-0.07-0.03-0.15-0.03-0.22c0.08-0.02,0.17-0.04,0.25-0.06c0,0,0.04,0.05,0.04,0.05
	C8.73,13.31,8.65,13.38,8.56,13.46z"/>
<path class="st6" d="M31.43,28.79c0.87,0.63,2.06,0.29,3.1,0.61c1.15,0.35,2.16,0.19,3.22-0.17c0.37-0.13,0.79-0.38,1,0.17
	c0.16,0.42-0.09,0.69-0.43,0.99c-0.87,0.76-1.9,0.4-2.82,0.44c-1.73,0.08-3.45-0.5-5.2-0.21c-0.34,0.06-0.66-0.06-0.8-0.38
	c-0.16-0.38,0.01-0.71,0.32-0.94C30.25,28.98,30.76,28.86,31.43,28.79z"/>
<path class="st6" d="M44.53,26.64c0.01,0.24,0.02,0.48,0.02,0.72c0.08,0.17,0.17,0.17,0.27,0.02c0.75-0.46,1.6-0.69,2.43-0.93
	c0.27-0.08,0.72-0.13,0.48,0.45c-0.45,1.09-1.98,2.13-3.2,2.07c-0.31-0.01-0.51,0.04-0.76,0.19c-0.29,0.18-0.61,0.48-0.98,0.24
	c-0.46-0.31-0.27-0.75-0.17-1.18c0.16-0.7,0-1.56,0.96-1.83C43.9,26.46,44.22,26.55,44.53,26.64z"/>
<path class="st6" d="M26.03,27.63c0.07,0.02,0.27,0.02,0.29,0.07c0.31,1.18,1.54,0.83,2.25,1.34c0.3,0.22,0.72,0.27,0.42,0.74
	c-0.23,0.36-0.75,0.67-1,0.34c-0.6-0.77-1.67-0.66-2.27-1.4c-0.18-0.23-0.4-0.39-0.29-0.7C25.52,27.78,25.72,27.65,26.03,27.63z"/>
<path class="st6" d="M34.91,24.37c-0.67,0.09-1.08-0.52-1.59-1.06c-0.41-0.45-0.21-0.7,0.11-0.98c0.32-0.29,0.75-0.31,0.9,0.08
	c0.21,0.6,0.74,0.63,1.16,0.84c0.27,0.13,0.72,0.05,0.59,0.53C35.95,24.22,35.63,24.52,34.91,24.37z"/>
<path class="st0" d="M44.53,26.64c-0.31-0.09-0.63-0.18-0.94-0.27c-0.05-0.27-0.12-0.54-0.14-0.81c-0.04-0.39,0.15-0.85,0.51-0.79
	c0.61,0.11,1.28,0.34,1.72,0.74c0.29,0.26,0,0.84-0.44,1.06C45.04,26.68,44.77,26.62,44.53,26.64z"/>
<path class="st6" d="M40.96,28.61c0.45,0.01,0.53,0.29,0.45,0.57c-0.17,0.56-0.53,0.98-1.16,1.03c-0.45,0.03-0.5-0.32-0.46-0.66
	C39.87,28.83,40.54,28.85,40.96,28.61z"/>
<path class="st6" d="M37.56,22.9c0.27,0.06,0.28,0.26,0.26,0.46c-0.04,0.35-0.21,0.61-0.6,0.59c-0.24-0.01-0.34-0.2-0.29-0.42
	C37.02,23.21,37.22,22.99,37.56,22.9z"/>
<path class="st0" d="M44.82,27.38c-0.1,0.15-0.19,0.16-0.27-0.02C44.64,27.37,44.73,27.38,44.82,27.38z"/>
<path class="st7" d="M39.69,2.66c-0.56-0.02-1.13,0.01-1.67-0.1c-2.89-0.61-5.84-0.52-8.75-0.87c-0.4,0-0.8,0.01-1.2,0
	c-3.5-0.09-5.3,2.27-6.03,5.15c-0.29,1.15,0.51,1.83,1.57,1.45c1.28-0.46,2.58-0.86,3.85-1.36c3.98-1.57,8.16-2.43,12.33-3.31
	c0.29-0.06,0.77,0.05,0.72-0.38C40.47,2.94,40.11,2.66,39.69,2.66z M24.49,5.22c-0.36,0.01-0.56-0.27-0.54-0.63
	c0.03-0.54,0.43-0.84,0.88-0.93c0.5-0.11,0.52,0.33,0.53,0.69C25.39,4.97,25.01,5.2,24.49,5.22z M30.57,4.03
	c-0.96-0.42-1.71,0.11-2.55,0.42c-0.64,0.23-1.12-0.36-1.63-0.67c-0.06-0.04-0.02-0.41,0.08-0.53c0.22-0.23,0.51-0.41,0.85-0.2
	c0.54,0.33,0.98,0.28,1.47-0.19c0.34-0.33,1.88,0.15,2.23,0.57c0.04,0.04,0.06,0.09,0.06,0.13c0,0.08-0.01,0.15-0.03,0.21
	C30.98,4,30.79,4.12,30.57,4.03z M31.76,4.06c-0.18-0.57-0.34-1.01,0.14-1.33c0.19-0.13,0.48-0.08,0.57,0.2
	C32.66,3.54,32.16,3.69,31.76,4.06z M34.1,4.13c-0.07-0.68-0.31-1.17,0.28-1.43c0.17-0.08,0.41-0.03,0.49,0.19
	C35.09,3.49,34.59,3.67,34.1,4.13z"/>
<path class="st7" d="M23.04,2.68c-0.14,0.26,0.03,0.78-0.39,0.89c-1.45,0.37-2.72,1.27-4.2,1.45c-0.58,0.07-1.05,0.12-1.43,0.63
	c-0.2,0.28-0.59,0.42-0.98,0.27c-0.34-0.13-0.29-0.45-0.25-0.72c0.06-0.48,0.4-0.62,0.84-0.67c1.99-0.19,3.68-1.18,5.44-2.02
	c0.28-0.13,0.53-0.39,0.88-0.28C23.12,2.3,23.14,2.47,23.04,2.68z"/>
<path class="st7" d="M12.67,5.49c0.12,0,0.24,0,0.35,0.01c0.57,0.05,1.38-0.28,1.3,0.81c-0.05,0.71-1,1.45-1.71,1.27
	c-0.57-0.15-0.84-0.54-0.56-1.17c0.14-0.33,0.56-0.46,0.56-0.87C12.62,5.54,12.67,5.49,12.67,5.49z"/>
<path class="st7" d="M9.17,9.3C8.79,9.31,8.65,9.25,8.6,9.08C8.52,8.83,8.54,8.6,8.75,8.43c0.74-0.62,1.73-0.63,2.56-1.06
	c0.31-0.16,0.45,0.42,0.17,0.65C10.74,8.63,9.61,8.49,9.17,9.3z"/>
<path class="st1" d="M38.04,5.31c0.37,0.12,0.78,0.24,0.72,0.76C38.72,6.5,38.35,6.65,38,6.67c-0.44,0.03-0.63-0.27-0.62-0.68
	C37.38,5.57,37.59,5.33,38.04,5.31z"/>
<path class="st7" d="M45.25,4.7c-0.11,0.31-0.15,0.72-0.59,0.75c-0.31,0.02-0.55-0.21-0.5-0.52c0.05-0.36,0.34-0.64,0.68-0.72
	C45.11,4.15,45.21,4.43,45.25,4.7z"/>
<path class="st7" d="M42.81,4.7c0.33,0,0.42,0.26,0.44,0.47c0.04,0.38-0.12,0.7-0.53,0.78C42.46,6,42.23,5.93,42.19,5.62
	C42.14,5.14,42.54,4.96,42.81,4.7z"/>
<path class="st6" d="M16.84,30.48c-0.5-0.25-1.52,0.03-1.64-0.69c-0.17-1.02,0.89-0.48,1.36-0.73c0.51-0.27,0.95-0.25,1.48-0.09
	c0.67,0.2,1.1-0.29,1.52-0.72c0.27-0.27,0.52-0.5,0.9-0.14c0.41,0.38,0.18,0.64-0.07,1.01C19.53,30.37,18.21,30.38,16.84,30.48z"/>
<path class="st6" d="M9.73,28.56c0.36,0.02,0.75-0.01,0.67,0.46c-0.09,0.55-0.64,0.51-1.02,0.63c-0.3,0.1-0.54-0.14-0.53-0.46
	C8.87,28.6,9.34,28.58,9.73,28.56z"/>
<path class="st6" d="M6.65,29.28c-0.15-0.27-0.13-0.52,0.04-0.78c0.23-0.36,0.55-0.45,0.93-0.35c0.25,0.06,0.43,0.25,0.41,0.52
	c-0.02,0.4-0.37,0.49-0.67,0.57C7.13,29.29,6.88,29.26,6.65,29.28C6.64,29.27,6.65,29.28,6.65,29.28z"/>
<path class="st0" d="M14.18,28.82c0.39-0.01,0.6,0.11,0.6,0.47c0,0.42-0.22,0.66-0.63,0.7c-0.32,0.03-0.53-0.11-0.53-0.46
	C13.61,29.09,13.84,28.88,14.18,28.82z"/>
<path class="st6" d="M5.67,28.8c-0.33-0.03-0.69,0.1-0.95-0.23c0.05-0.53,0.36-0.83,0.85-0.67C6.12,28.08,5.98,28.46,5.67,28.8z"/>
<path class="st7" d="M2.33,22.06c0.21-0.37,0.57,0.07,0.91-0.2c-0.61-0.43-1.09-0.94-0.97-1.73c0.04-0.69,0.75-0.88,1.03-1.39
	c0.07-0.09,0.14-0.18,0.21-0.27c0,0,0,0,0,0c0.08-0.08,0.16-0.16,0.24-0.24c0,0,0,0,0,0c0.08-0.08,0.16-0.16,0.24-0.24c0,0,0,0,0,0
	c0.57-0.01,0.65,0.3,0.76,0.81c0.16,0.8-0.32,1.68,0.2,2.48c0.51-0.38-0.11-1.28,0.78-1.36c-0.06,0.34,0.13,0.45,0.43,0.47
	c-0.03,0.22-0.53,0.28-0.2,0.65c0.37,0.41,0.74,0.32,1.14,0.1c0.01,0.44,0,0.88,0.03,1.31c0.05,0.85-0.48,0.88-1.09,0.79
	c-0.04-0.01-0.09-0.01-0.11-0.03c-0.93-0.99-2.27-0.5-3.35-0.93c-0.08-0.07-0.15-0.14-0.23-0.2L2.33,22.06z"/>
<path class="st7" d="M7.6,19.67c-0.66-0.61-1.38-0.78-2.35-0.09c0.82-1.28,2.98-2.95,3.82-3.08C9,16.37,8.94,16.23,8.85,16.11
	C8.4,15.5,7.78,16.32,7.42,16c-0.36-0.32,0.57-1.04-0.26-1.39c-0.19,0.62-0.49,0.81-0.98,0.25c-0.02,0.1-0.03,0.19-0.04,0.28
	c0.17,0.97-0.02,1.63-1.22,1.45C4.7,17.12,4,17.32,3.99,17.99c0.57-0.02,0.65,0.3,0.76,0.81c0.16,0.8-0.32,1.68,0.2,2.48
	c0.51-0.39-0.11-1.28,0.78-1.36c0.11-0.02,0.23-0.02,0.33-0.07c0.39-0.2,0.88-0.24,0.92,0.23c0.04,0.49-0.54,0.21-0.83,0.31
	c-0.03,0.23-0.53,0.28-0.19,0.65c0.37,0.41,0.74,0.32,1.14,0.1l0.06-0.05c0.09-0.48,0.66-0.81,0.44-1.39V19.67z M5.24,17.43
	c0.03-0.29,0.24-0.38,0.5-0.36c0.29,0.01,0.4,0.2,0.39,0.47c-0.02,0.29-0.18,0.42-0.46,0.42C5.31,17.97,5.2,17.74,5.24,17.43z"/>
<path class="st8" d="M6.14,15.14c0.18,0.97-0.02,1.63-1.22,1.45c-0.07,0-0.14-0.02-0.21-0.05C4.95,15.83,5.39,15.33,6.14,15.14z"/>
<path class="st7" d="M3.99,17.99c-0.08,0.08-0.16,0.16-0.24,0.24C3.83,18.15,3.91,18.07,3.99,17.99z"/>
<path class="st7" d="M3.51,18.47c-0.07,0.09-0.14,0.18-0.21,0.27C3.29,18.59,3.36,18.5,3.51,18.47z"/>
<path class="st7" d="M3.75,18.23c-0.08,0.08-0.16,0.16-0.24,0.24C3.59,18.39,3.67,18.31,3.75,18.23z"/>
<path class="st1" d="M1.12,23.28c0.39,0.34,0.18,0.8,0.24,1.2C0.96,24.14,1.17,23.69,1.12,23.28z"/>
<path class="st1" d="M1.36,24.48c0.08,0.08,0.16,0.16,0.23,0.24C1.51,24.64,1.44,24.56,1.36,24.48z"/>
<path class="st5" d="M0.43,21.38c-0.05-0.66-0.34-1.16,0.16-1.54c0.14-0.11,0.38,0.08,0.46,0.26C1.29,20.63,1.03,20.97,0.43,21.38z"
	/>
<path class="st7" d="M38.76,11.71c-1.33-0.49-2.66-0.39-4.48-0.44c-1.5-0.19-3.42,0.22-5.33,0.55c-2.47,0.43-4.37,1.91-6.14,3.59
	c-0.41,0.39-0.42,0.77-0.02,1.24c0.79,0.94,1.88,1.27,2.96,1.66c1.43,0.51,2.88,0.96,4.41,0.51c2.36-0.69,4.59-1.7,6.62-3.08
	c0.94-0.64,2.03-1.11,2.68-2.13C40.09,12.64,39.8,12.09,38.76,11.71z M30.92,14.14c-0.8-0.12-1.21,0.23-1.56,0.9
	c-0.28,0.55-0.75,0.98-1.11,0.01c-0.12-0.33-0.29-0.48-0.61-0.32c-0.35,0.17-0.05,0.35,0.01,0.56c0.18,0.7-0.38,1.29-1.2,1.25
	c-0.36-0.08-0.74-0.21-1.21-0.12c-0.39,0.08-0.79-0.35-0.75-0.74c0.04-0.46,0.32-1,0.85-1c0.75,0,1.11-0.49,1.6-0.89
	c0.92-0.76,2.06-0.89,3.2-0.83c0.19,0.01,0.34,0.1,0.53-0.02c0.44-0.29,0.85-0.37,0.92,0.34C31.63,13.76,31.55,14.23,30.92,14.14z
	 M33.2,13.68c-0.38-0.11-1.12,0.25-1.04-0.53c0.07-0.65,0.64-0.94,1.32-0.89c0.47,0.03,0.99-0.1,1,0.65
	C34.49,13.93,33.74,13.59,33.2,13.68z M35.78,13.68c-0.41-0.02-0.82-0.01-0.76-0.45c0.07-0.62,0.48-0.97,1.13-0.98
	c0.32,0,0.73,0.01,0.67,0.45C36.74,13.32,36.33,13.66,35.78,13.68z"/>
<path class="st1" d="M41.38,12.24c0.98,0.27,2.02-0.33,2.77,0.6c0.22,0.27,0.67,0.08,1.02-0.04c0.3-0.1,0.66-0.18,0.78,0.26
	c0.13,0.45-0.19,0.69-0.55,0.77c-1.13,0.24-2.25,0.17-3.3-0.35c-0.21-0.11-0.39-0.29-0.65-0.23c-0.37,0.1-0.72,0.24-0.72-0.38
	C40.72,12.31,41.04,12.2,41.38,12.24z"/>
<path class="st1" d="M31.76,25.22c0.49,0.47,1.7,0.11,1.74,1.31c0.02,0.65-0.35,1.07-1.02,1.05c-1.16-0.04-2.15-0.78-2.07-1.48
	C30.47,25.61,31.07,25.19,31.76,25.22z"/>
<path class="st1" d="M32.07,20.05c-0.1,0.61-0.72,1.09-1.43,1.24c-0.59,0.12-0.72-0.53-0.7-1c0.04-0.84,0.63-1.22,1.38-1.31
	C31.86,18.92,32.08,19.29,32.07,20.05z"/>
<path class="st1" d="M26.17,20.86c-0.26,0.04-0.5,0.04-0.72,0.11c-0.35,0.1-0.54,0.02-0.55-0.36c-0.01-0.28-0.01-0.63,0.35-0.65
	c0.71-0.04,1.42-0.02,2.13-0.01c0.23,0,0.33,0.19,0.35,0.4c0.02,0.28-0.11,0.47-0.39,0.49C26.94,20.88,26.54,20.86,26.17,20.86z"/>
<path class="st1" d="M34.74,19.61c-0.34-0.07-0.75-0.17-0.71-0.61c0.06-0.61,0.31-1.15,1.03-1.23c0.47-0.05,0.59,0.24,0.62,0.66
	C35.73,19.12,35.38,19.45,34.74,19.61z"/>
<path class="st1" d="M24.39,19.92c-0.16,0.51-0.46,0.89-1.03,0.94c-0.46,0.05-0.86,0-0.88-0.63c-0.01-0.53,0.16-0.85,0.74-0.78
	C23.63,19.5,24.19,19.21,24.39,19.92z"/>
<path class="st1" d="M25.12,23.22c-0.41-0.13-0.67-0.4-0.7-0.84c-0.04-0.46,0.29-0.68,0.65-0.68c0.45-0.01,0.73,0.33,0.72,0.77
	C25.79,22.85,25.5,23.09,25.12,23.22z"/>
<path class="st1" d="M26.2,24.48c-0.33-0.01-0.71-0.04-0.73-0.43c-0.02-0.46,0.35-0.69,0.77-0.74c0.33-0.04,0.69,0.05,0.7,0.45
	C26.95,24.19,26.7,24.49,26.2,24.48z"/>
<path class="st7" d="M14.78,25c-0.09-1.86-0.57-2.38-2.32-2.7c-0.88-0.16-1.74-0.48-2.61-0.73c-0.67,0.11-1.55,0.94-1.8-0.51
	c-0.3,0.01-0.59,0.02-0.89,0.03L7.1,21.14c0.01,0.44,0,0.88,0.02,1.32c0.06,0.85-0.47,0.87-1.09,0.78c-0.04,0-0.09,0-0.11-0.03
	c-0.93-0.99-2.27-0.49-3.36-0.92c-0.07,0.01-0.14,0.02-0.22,0.02c-0.03,0.33,0.22,0.49,0.43,0.67c2.9,2.4,6.17,3.96,9.99,4.12
	C14.7,27.18,14.88,26.94,14.78,25z M11.11,25.4c-1.02-0.25-1.79-1.08-2.88-1.2c-0.51-0.06-0.42-0.51-0.27-0.85
	c0.12-0.29,0.23-0.58,0.68-0.26c0.59,0.42,1.32,0.09,1.97,0.21c0.74,0.13,1.51,0.28,1.78,0.91C12.43,25.24,11.89,25.6,11.11,25.4z"
	/>
<path class="st1" d="M17.68,26.23c-0.01,0.5,0.02,0.96-0.49,1.06c-0.59,0.12-0.8-0.39-0.85-0.78c-0.09-0.68-0.32-1.25-0.68-1.84
	c-0.36-0.57,0.16-0.85,0.62-1.04c0.54-0.22,0.94,0.03,0.89,0.56C17.09,25,17.96,25.52,17.68,26.23z"/>
<path class="st2" d="M9.85,21.57c-0.68,0.11-1.55,0.94-1.8-0.5c0.11-0.03,0.23-0.12,0.31-0.09c0.24,0.1,0.45,0.62,0.73,0.13
	c0.18-0.33-0.22-0.45-0.46-0.54c-0.42-0.17-0.62-0.46-0.6-0.9c0.43-0.33,0.94-0.96,1.03,0.23C9.22,20.5,10.16,20.74,9.85,21.57z"/>
<path class="st1" d="M9.06,19.9c-0.09-1.19-0.59-0.56-1.03-0.23c-0.14,0.01-0.29,0.02-0.43,0.03c0,0,0-0.02,0-0.02
	c0.03-1.58,0.1-1.63,1.53-0.9c0.42,0.21,0.54-0.43,0.91-0.28c0.07,0.32,0.15,0.63,0.22,0.95C9.94,19.78,9.57,20.02,9.06,19.9z"/>
<path class="st3" d="M2.56,22.29c-0.07,0.02-0.15,0.02-0.22,0.02c-0.03-0.07-0.04-0.15-0.01-0.22C2.41,22.15,2.49,22.22,2.56,22.29z
	"/>
<path class="st7" d="M8.56,13.46c0.09-0.08,0.17-0.16,0.26-0.24c1.64-0.6,2.95-1.77,4.46-2.59c0.31-0.17,0.62-0.34,0.94-0.47
	c0.12-0.05,0.34-0.02,0.43,0.07c0.17,0.16,0.09,0.36-0.06,0.52c-1.26,1.41-2.54,2.81-4.13,3.87c-0.1-0.32,0.32-1.16-0.66-0.57
	C9.23,14.4,8.92,13.78,8.56,13.46z"/>
<path class="st1" d="M10.94,16.6c0.16-0.02,0.33-0.04,0.49-0.06c1.44-0.66,1.48-2.34,2.44-3.35c0.39-0.41,0.6-1.34,1.23-1.01
	c0.55,0.28-0.15,1.06-0.36,1.3c-0.93,1.08-1.3,2.51-2.37,3.49c-0.53,0.48-1.12,0.77-1.77,0.94c-0.4,0.1-0.94,0.31-1.04-0.37
	c-0.08-0.57,0.34-0.73,0.84-0.76C10.58,16.78,10.76,16.67,10.94,16.6z"/>
<path class="st8" d="M7.16,14.61c-0.19,0.62-0.48,0.81-0.98,0.25c-0.07-0.71,0.2-0.98,0.9-0.7C7.11,14.31,7.13,14.46,7.16,14.61z"/>
<path class="st4" d="M31.09,3.56c0.01,0.36-0.23,0.58-0.51,0.46c-0.97-0.42-1.71,0.12-2.55,0.42c-0.64,0.23-1.12-0.36-1.63-0.66
	c-0.06-0.04-0.03-0.41,0.08-0.53c0.21-0.23,0.5-0.41,0.84-0.21c0.55,0.33,0.98,0.29,1.47-0.19C29.17,2.49,31.05,3.13,31.09,3.56z"/>
<path class="st4" d="M25.36,4.35c0.03,0.61-0.35,0.85-0.87,0.86c-0.37,0.01-0.56-0.27-0.54-0.62c0.03-0.55,0.43-0.85,0.88-0.94
	C25.33,3.55,25.35,3.99,25.36,4.35z"/>
<path class="st4" d="M31.76,4.06c-0.18-0.57-0.34-1.01,0.14-1.33c0.19-0.13,0.48-0.08,0.57,0.2C32.66,3.54,32.16,3.69,31.76,4.06z"
	/>
<path class="st4" d="M34.1,4.13c-0.06-0.68-0.31-1.16,0.28-1.43c0.17-0.08,0.41-0.03,0.49,0.19C35.09,3.49,34.59,3.67,34.1,4.13z"/>
<path class="st8" d="M5.73,19.92c0.11-0.02,0.23-0.03,0.33-0.07c0.39-0.19,0.88-0.24,0.92,0.24c0.04,0.49-0.54,0.21-0.83,0.31
	C5.86,20.38,5.67,20.26,5.73,19.92z"/>
<path class="st8" d="M7.6,19.7c0.14-0.01,0.29-0.02,0.43-0.03c-0.02,0.44,0.18,0.73,0.6,0.9c0.24,0.09,0.64,0.21,0.46,0.54
	c-0.27,0.49-0.48-0.04-0.73-0.13c-0.08-0.03-0.21,0.05-0.31,0.09c-0.3,0.01-0.6,0.01-0.9,0.02C7.25,20.61,7.82,20.28,7.6,19.7z"/>
<path class="st4" d="M6.13,17.54c-0.02,0.29-0.18,0.42-0.45,0.42c-0.37,0.01-0.47-0.22-0.44-0.53c0.03-0.29,0.24-0.38,0.5-0.36
	C6.03,17.08,6.14,17.27,6.13,17.54z"/>
<path class="st4" d="M26.45,16.54c-0.36-0.08-0.74-0.21-1.21-0.12c-0.39,0.08-0.78-0.34-0.75-0.74c0.04-0.46,0.33-1,0.86-1
	c0.75,0,1.11-0.49,1.6-0.89c0.92-0.76,2.06-0.89,3.2-0.83c0.19,0.01,0.33,0.1,0.53-0.03c0.44-0.29,0.85-0.36,0.92,0.34
	c0.05,0.48-0.04,0.95-0.67,0.85c-0.8-0.12-1.21,0.23-1.56,0.91c-0.28,0.55-0.75,0.97-1.11,0.01c-0.12-0.33-0.29-0.49-0.61-0.33
	c-0.35,0.18-0.05,0.35,0.01,0.56C27.83,15.99,27.27,16.58,26.45,16.54z"/>
<path class="st4" d="M33.2,13.68c-0.38-0.11-1.12,0.25-1.04-0.53c0.07-0.65,0.64-0.94,1.32-0.89c0.46,0.03,0.98-0.1,1,0.66
	C34.49,13.93,33.74,13.59,33.2,13.68z"/>
<path class="st4" d="M35.78,13.68c-0.41-0.02-0.82-0.01-0.76-0.45c0.08-0.62,0.48-0.97,1.13-0.97c0.32,0,0.73,0,0.67,0.45
	C36.74,13.32,36.33,13.66,35.78,13.68z"/>
<path class="st4" d="M12.39,24.21c0.04,1.03-0.5,1.39-1.28,1.19c-1.03-0.25-1.8-1.09-2.89-1.21c-0.51-0.06-0.41-0.51-0.27-0.85
	c0.12-0.29,0.23-0.58,0.68-0.25c0.59,0.42,1.32,0.09,1.97,0.21C11.35,23.43,12.12,23.58,12.39,24.21z"/>
</svg>
