<?xml version="1.0" encoding="utf-8"?>
<!-- Generator: Adobe Illustrator 23.0.5, SVG Export Plug-In . SVG Version: 6.00 Build 0)  -->
<svg version="1.1" xmlns="http://www.w3.org/2000/svg" xmlns:xlink="http://www.w3.org/1999/xlink" x="0px" y="0px"
	 viewBox="0 0 57 32" style="enable-background:new 0 0 57 32;" xml:space="preserve">
<style type="text/css">
	.st0{fill:#F7A407;}
	.st1{fill:#E77104;}
	.st2{fill:#F58406;}
	.st3{fill:#E6B58A;}
	.st4{fill:#F4D5A3;}
	.st5{fill:#E26F1F;}
	.st6{fill:#BD4E07;}
	.st7{fill:#FCC45D;}
	.st8{fill:#F7893A;}
</style>
<g id="Layer_2">
	<path class="st0" d="M56.9,13.8c-0.7-1-0.8-2.1-0.7-3.3c0-0.3,0.1-0.6-0.3-0.8c-0.8-0.8-1.7-0.5-2.5,0c-1.3,0.9-2.6,1.7-4.2,1.8
		c-1,0.1-1.9-0.3-2.8-0.2c-0.1-0.3,0.1-0.5,0.2-0.8c0.8-2.1,2-4.1,1.7-6.4c0.1-0.5-0.2-0.8-0.7-1c-1.5-0.8-3.2-1.1-4.9-1.3
		C39,1.1,35.3,0.9,31.5,0.6c-6.8-0.5-13,1.2-18.8,4.7c-0.3-0.2-0.3,0.1-0.3,0.2c-2.2,1-4.1,2.4-6,3.9c-0.9,0.6-1.9,1-2.2,2.1
		c-1.3,0.7-2.2,1.8-2.9,3.1c-0.7,0.6-0.6,1.5-0.8,2.3c0,0.3-0.1,0.6-0.1,0.9c-0.7,1.8-0.6,3.5,0,5.3c0,0.3,0,0.7,0.1,1.1
		c0.5,1.5,0.4,3.3,2,4.2c1.4,0.9,3,1.4,4.7,1.7c0-0.2-0.1-0.3-0.2-0.4s-0.2-0.2-0.3-0.3l0,0c0.1,0.1,0.2,0.2,0.3,0.3S7.1,29.8,7,30
		c2.5,0.8,5.1,1.2,7.7,1.4c2.7,0.2,5.4,0.3,8.1-0.4c1.1,0.1,2.1-0.3,3.1-0.5c0.7,0,1.3,0.3,2,0.5c5.3,1.3,10.6,1.5,15.8,0
		c2.4-0.6,4.4-1.9,5.9-3.9c0.5-0.7,0.5-1.2-0.4-1.5c-2-0.9-3.9-1.8-6.1-2.3c-0.1,0-0.2-0.1-0.2-0.1c-0.5-0.2-1-0.5-1.5-0.7
		c-0.5-0.1-0.6-0.4-0.4-0.8c0.7-1.3,1.1-2.8,2.4-3.7c1.7-1.3,3.5-2.2,5.5-2.8c1.4,0.1,2.7-0.5,4.1,0c0.6,0.2,1.2,0.6,1.9,0.5
		c0.8,0.5,1.3,0,1.8-0.5C57.3,14.8,57.2,14.2,56.9,13.8z M55.3,13c0-0.7,0-1.4,0-2.1C55.3,11.6,55.3,12.3,55.3,13z M52.8,10.8
		c-0.2,0.1-0.4,0.2-0.6,0.4C52.4,11.1,52.6,11,52.8,10.8z M40.9,28.6c0.2,0,0.4,0.1,0.4,0.2C41.2,28.7,41.1,28.6,40.9,28.6z
		 M29.7,29.3c-0.2,0.2-0.4,0.4-0.4,0.7C29.4,29.7,29.5,29.5,29.7,29.3c0.4-0.3,0.9-0.4,1.6-0.5C30.7,28.9,30.2,29,29.7,29.3z
		 M26.2,27.7c0,0-0.2,0-0.3-0.1C26,27.7,26.2,27.7,26.2,27.7z M7.5,28.2c-0.4-0.1-0.7,0-0.9,0.3c-0.2,0.3-0.2,0.5,0,0.8h0
		c-0.1-0.3-0.1-0.5,0-0.8C6.8,28.2,7.2,28.1,7.5,28.2c0.1,0,0.2,0.1,0.3,0.2C7.8,28.3,7.7,28.2,7.5,28.2z M2.2,20.2
		c-0.1,0.8,0.4,1.3,1,1.7c0,0,0,0,0,0C2.5,21.5,2.1,21,2.2,20.2C2.2,20.2,2.2,20.2,2.2,20.2z M2.3,22.1c0.1,0.1,0.2,0.1,0.2,0.2
		c1.1,0.4,2.4-0.1,3.3,0.9c0,0,0.1,0,0.1,0c0.5,0.1,0.9,0.1,1-0.3c-0.2,0.4-0.6,0.4-1,0.3c0,0-0.1,0-0.1,0c-0.9-1-2.3-0.5-3.4-0.9
		C2.4,22.3,2.3,22.2,2.3,22.1C2.3,22.1,2.3,22.1,2.3,22.1L2.3,22.1L2.3,22.1z M4.4,12.8c0,0.7-0.1,1.4-0.1,2.2
		C4.3,14.2,4.4,13.5,4.4,12.8z M36.8,23.7c0,0.1,0.1,0.3,0.3,0.3C37,24,36.9,23.9,36.8,23.7z M33.1,22.6
		C33.2,22.5,33.2,22.5,33.1,22.6C33.2,22.5,33.2,22.5,33.1,22.6z M36,23.5c-0.1-0.2-0.4-0.2-0.6-0.3c-0.4-0.2-1-0.2-1.2-0.8
		c-0.2-0.4-0.6-0.4-0.9-0.1c0,0-0.1,0.1-0.1,0.1c0,0,0.1-0.1,0.1-0.1c0.3-0.3,0.8-0.3,0.9,0.1c0.2,0.6,0.7,0.6,1.2,0.8
		C35.6,23.4,35.9,23.4,36,23.5z M34.8,24.4C34.8,24.4,34.8,24.4,34.8,24.4C34.8,24.4,34.8,24.4,34.8,24.4L34.8,24.4z M34.6,24.4
		c-0.4,0-0.7-0.3-1-0.7C33.9,24.1,34.2,24.4,34.6,24.4z M26.9,23.8c0-0.4-0.4-0.5-0.7-0.4c-0.4,0-0.8,0.3-0.8,0.7
		c0-0.5,0.3-0.7,0.8-0.8C26.5,23.3,26.9,23.4,26.9,23.8C26.9,23.8,26.9,23.8,26.9,23.8z M8.7,13.2C8.7,13.2,8.7,13.2,8.7,13.2
		C8.7,13.2,8.7,13.2,8.7,13.2L8.7,13.2C8.7,13.2,8.7,13.2,8.7,13.2C8.7,13.3,8.7,13.3,8.7,13.2L8.7,13.2c-0.1,0-0.2,0-0.2,0.1h0
		C8.5,13.3,8.6,13.2,8.7,13.2z M18,7.1c-0.3,2.6-0.6,5.2-1.6,7.6c-0.9,2.2-2.7,3.4-4.6,4.4c-0.2-1.3-1.3-0.5-1.9-0.7
		c0.1,0.3,0.2,0.6,0.2,0.9c0.4,0,0.8,0,1.2,0c-0.4,0-0.8,0-1.2,0c0,0,0,0,0,0c-0.1-0.3-0.1-0.6-0.2-0.9c-0.4-0.2-0.5,0.5-0.9,0.3
		c-1.4-0.7-1.5-0.7-1.5,0.9c0,0,0,0,0,0c-0.7-0.6-1.4-0.8-2.3-0.1c0,0,0,0,0,0c1-0.7,1.7-0.5,2.3,0.1c0-1.6,0.1-1.6,1.5-0.9
		c0.4,0.2,0.5-0.4,0.9-0.3c0.6,0.2,1.6-0.6,1.9,0.7c1.9-1.1,3.8-2.3,4.6-4.4C17.4,12.3,17.7,9.7,18,7.1z M24.4,5.2
		c0.5,0,0.9-0.3,0.9-0.9C25.3,5,24.9,5.2,24.4,5.2c-0.3,0-0.5-0.1-0.5-0.4C24,5.1,24.1,5.2,24.4,5.2z M26.3,3.8
		c0.5,0.3,1,0.9,1.6,0.7c0.8-0.3,1.6-0.8,2.5-0.4c0.1,0,0.1,0,0.2,0c-0.1,0-0.1,0-0.2,0c-1-0.4-1.7,0.1-2.5,0.4
		C27.3,4.7,26.8,4.1,26.3,3.8c-0.1,0,0-0.4,0.1-0.5c0.1-0.1,0.2-0.2,0.3-0.2c-0.1,0.1-0.2,0.1-0.3,0.2C26.3,3.4,26.3,3.8,26.3,3.8z
		 M29.8,2.9C29.8,2.9,29.8,2.9,29.8,2.9C29.8,2.9,29.8,2.9,29.8,2.9z M30.9,3.5C30.9,3.5,30.9,3.5,30.9,3.5
		C31,3.5,30.9,3.5,30.9,3.5C30.9,3.5,30.9,3.5,30.9,3.5z M30.9,3.9C30.9,3.9,30.9,4,30.9,3.9C30.9,4,30.9,3.9,30.9,3.9z M30.8,4
		C30.8,4,30.8,4.1,30.8,4C30.8,4.1,30.8,4,30.8,4z M45.9,9.6c0,0.1-0.1,0.2-0.1,0.2C45.8,9.7,45.9,9.6,45.9,9.6c0-0.1,0-0.1,0-0.2
		C45.9,9.4,45.9,9.5,45.9,9.6z M34,19c0.1-0.5,0.3-1,0.8-1.2C34.2,18,34,18.5,34,19z M35.3,17.8c0.2,0.1,0.3,0.3,0.3,0.6
		c0,0.7-0.3,1-1,1.2c0.6-0.2,1-0.5,0.9-1.2C35.6,18.1,35.5,17.9,35.3,17.8z M35,17.8C35,17.8,35,17.8,35,17.8
		C35,17.8,35,17.8,35,17.8C35,17.8,35,17.8,35,17.8z M17.1,27.3c0.5-0.1,0.5-0.6,0.5-1.1C17.6,26.8,17.6,27.2,17.1,27.3
		c-0.4,0.1-0.6-0.1-0.7-0.3C16.5,27.2,16.7,27.4,17.1,27.3z M15.4,20.7c0.5,0.2,1.1,0.6,1.6,0.7C16.5,21.3,15.9,20.9,15.4,20.7
		c-0.2-0.1-0.4-0.3-0.3-0.6c0.1-0.3,0.3-0.4,0.6-0.4c-0.3,0-0.5,0.1-0.6,0.4C15,20.4,15.2,20.6,15.4,20.7z M17.9,21.2
		c0.2,0,0.3,0.1,0.4,0.2C18.2,21.3,18.1,21.3,17.9,21.2z M17.6,21.2c0.1,0,0.2,0,0.3,0C17.8,21.2,17.7,21.2,17.6,21.2z M18.4,18.7
		c0,0.3,0.1,0.5,0.3,0.8c0.3,0.4,0.5,0.8,0.7,1.2c-0.2-0.4-0.5-0.8-0.7-1.2C18.5,19.3,18.4,19,18.4,18.7z M19.4,23
		c-0.1-0.1-0.2-0.2-0.2-0.3C19.3,22.8,19.3,22.9,19.4,23z M19.8,15c0.1-0.1,0.2-0.2,0.4-0.3C20.1,14.7,19.9,14.8,19.8,15z
		 M36.7,12.7c0.1-0.4-0.4-0.4-0.7-0.4c-0.7,0-1.1,0.3-1.1,1c0.1-0.6,0.5-1,1.1-1C36.4,12.3,36.8,12.3,36.7,12.7
		C36.7,12.7,36.7,12.7,36.7,12.7z M34.4,12.9c0-0.8-0.5-0.6-1-0.7C33.9,12.3,34.4,12.2,34.4,12.9C34.4,12.9,34.4,12.9,34.4,12.9z
		 M30.9,14.2c0.3,0,0.4,0,0.5-0.2C31.3,14.1,31.1,14.2,30.9,14.2c-0.6-0.1-1,0.1-1.3,0.5C29.9,14.2,30.2,14.1,30.9,14.2z M25.3,14.7
		c0.8,0,1.1-0.5,1.6-0.9c0.8-0.7,1.8-0.8,2.8-0.8c-1,0-2,0.2-2.8,0.8C26.4,14.2,26,14.7,25.3,14.7c-0.5,0-0.8,0.5-0.9,1
		c0,0.2,0.1,0.4,0.2,0.5c-0.1-0.1-0.2-0.4-0.2-0.5C24.5,15.3,24.7,14.7,25.3,14.7z M27.5,16c-0.2,0.3-0.6,0.6-1.1,0.5
		C26.9,16.6,27.3,16.4,27.5,16z M27.6,14.8c-0.1,0-0.1,0.1-0.1,0.1C27.4,14.8,27.5,14.8,27.6,14.8c0.3-0.2,0.5,0,0.6,0.3
		c0.3,0.7,0.6,0.7,0.9,0.4c-0.3,0.3-0.6,0.4-0.9-0.4C28.1,14.8,27.9,14.6,27.6,14.8z M45.8,9.9c-0.2,0.3-0.5,0.3-0.8,0.2
		c-0.4-0.1-0.8-0.2-1.1-0.1c0.4,0,0.8,0,1.1,0.1C45.3,10.2,45.6,10.1,45.8,9.9z M42.7,10c-0.3,0-0.5,0-0.8-0.1
		C42.2,10,42.4,10,42.7,10z M37.3,8.8c0.2,0.4,0.5,0.2,0.8,0.3C37.9,9,37.5,9.3,37.3,8.8c-0.1-0.2,0-0.5,0.2-0.6c0,0,0,0,0,0
		C37.3,8.3,37.3,8.6,37.3,8.8z M37.6,8.1c0,0,0.1-0.1,0.1-0.1C37.7,8,37.6,8.1,37.6,8.1z M37.8,8c0,0,0.1,0,0.1,0
		C37.9,8,37.9,8,37.8,8z M21.4,12.3c0.1-0.2,0.6-0.5,0.9-0.1c0.1,0.1,0.1,0.2,0.1,0.2c0-0.1,0-0.1-0.1-0.2
		C22,11.9,21.5,12.1,21.4,12.3c-0.5,1.1-1.6,1.6-2.3,2.5C19.8,13.9,20.9,13.4,21.4,12.3z M20.2,7.3c0,0.7,0,1.3,0,2
		c0,0.4,0,0.7,0.1,0.9s0.2,0.4,0.3,0.5c-0.2-0.1-0.3-0.3-0.3-0.5s-0.1-0.5-0.1-0.9C20.2,8.7,20.2,8,20.2,7.3z M17.2,17.6
		c0.8-0.4,1.2-1.5,1.7-2.4C18.4,16.1,18,17.2,17.2,17.6z M13.7,20.1C13.6,20,13.6,20,13.7,20.1C13.6,20,13.6,20,13.7,20.1z
		 M13.6,19.9c0-0.1,0-0.1,0-0.2C13.5,19.8,13.6,19.9,13.6,19.9z M13.8,20.1C13.8,20.1,13.8,20.1,13.8,20.1
		C13.8,20.1,13.8,20.1,13.8,20.1z M14.1,19c0.4,0,0.6,0.1,0.6,0.5C14.7,19.1,14.5,19,14.1,19z M8.3,21c0.2,0.1,0.4,0.4,0.5,0.3
		C8.6,21.4,8.5,21.1,8.3,21c-0.1,0-0.2,0.1-0.3,0.1c0,0,0,0,0,0C8.1,21.1,8.2,21,8.3,21z M8.6,23.1c0.2,0.2,0.5,0.2,0.7,0.2
		C9,23.3,8.8,23.3,8.6,23.1c-0.1,0-0.1-0.1-0.2-0.1C8.4,23,8.5,23.1,8.6,23.1z M8.6,19.2c0.2-0.1,0.3,0.1,0.4,0.7
		C8.9,19.3,8.8,19.2,8.6,19.2z M7.1,21.1C7.1,21.1,7.1,21.1,7.1,21.1C7.1,21.1,7.1,21.1,7.1,21.1C7.1,21.1,7.1,21.1,7.1,21.1z
		 M7.9,24.1C7.9,24.1,7.9,24.1,7.9,24.1C7.9,24.1,7.9,24.1,7.9,24.1z M8.1,24.2c0.6,0.1,1,0.3,1.5,0.6C9.2,24.5,8.7,24.3,8.1,24.2
		C8.1,24.2,8.1,24.2,8.1,24.2C8.1,24.2,8.1,24.2,8.1,24.2z M10.5,23.3c-0.1,0-0.2,0-0.2,0C10.4,23.3,10.4,23.3,10.5,23.3
		c0.8,0.1,1.5,0.3,1.8,0.9C12,23.6,11.3,23.5,10.5,23.3z M8.8,21.9c0.3-0.1,0.6-0.3,1-0.3C9.5,21.7,9.1,21.8,8.8,21.9z M6.9,20.1
		c0-0.5-0.5-0.4-0.9-0.2C6.4,19.7,6.9,19.6,6.9,20.1C6.9,20.1,6.9,20.1,6.9,20.1z M10.2,13.9c-0.1,0-0.3,0.1-0.5,0.2
		c-0.1,0.1-0.3,0.1-0.4,0.1c0.1,0,0.2,0,0.4-0.1C10,13.9,10.1,13.9,10.2,13.9z M10.9,16.6c-0.2,0.1-0.3,0.1-0.5,0.2
		C10.6,16.8,10.7,16.7,10.9,16.6C10.9,16.6,10.9,16.6,10.9,16.6z M10.5,17.9c0.7-0.2,1.2-0.5,1.8-0.9c1.1-1,1.4-2.4,2.4-3.5
		c0.2-0.2,0.9-1,0.4-1.3c-0.1,0-0.1-0.1-0.2-0.1c0.1,0,0.1,0,0.2,0.1c0.5,0.3-0.1,1.1-0.4,1.3c-0.9,1.1-1.3,2.5-2.4,3.5
		C11.8,17.5,11.2,17.8,10.5,17.9c-0.2,0.1-0.4,0.1-0.6,0.1C10.1,18.1,10.3,18,10.5,17.9z M14.5,10.8c-1.3,1.4-2.5,2.8-4.1,3.9
		c-0.5,1,0.9,1.1,1,1.9c0,0,0,0,0,0c0-0.8-1.4-0.9-1-1.9c0,0,0,0,0,0C12,13.6,13.3,12.2,14.5,10.8c0.1-0.2,0.2-0.4,0-0.5
		c0,0-0.1-0.1-0.2-0.1c0.1,0,0.2,0,0.2,0.1C14.8,10.4,14.7,10.6,14.5,10.8z M7.3,15.9c0,0.1,0,0.1,0.1,0.1C7.3,16,7.3,15.9,7.3,15.9
		z M7.4,15.1c0-0.2,0-0.4-0.4-0.5C7.4,14.8,7.5,15,7.4,15.1z M6.6,15.2c-0.1,0-0.3-0.1-0.5-0.3l0,0C6.3,15.1,6.4,15.2,6.6,15.2z
		 M5.6,18C5.6,18,5.6,18,5.6,18c-0.4,0-0.5-0.2-0.4-0.5C5.1,17.8,5.2,18,5.6,18z M5.7,20c-0.9,0.1-0.3,1-0.8,1.4
		C5.4,20.9,4.8,20,5.7,20z M7,21.2c0,0.3,0,0.5,0,0.8C7,21.7,7,21.4,7,21.2z M15.6,24c-0.1,0.2-0.2,0.4,0,0.7
		C15.4,24.4,15.4,24.2,15.6,24z M16.4,27c-0.1-0.1-0.1-0.3-0.1-0.4C16.3,26.7,16.3,26.8,16.4,27z M22.4,20.3c0-0.5,0.2-0.8,0.7-0.8
		c0,0,0,0,0,0C22.6,19.4,22.4,19.7,22.4,20.3c0,0.6,0.4,0.7,0.8,0.6C22.8,20.9,22.4,20.9,22.4,20.3z M23.3,19.5c0.1,0,0.2,0,0.3,0
		C23.5,19.5,23.4,19.5,23.3,19.5z M24.8,20.6c0,0.3,0.1,0.4,0.3,0.4C24.9,21,24.8,20.9,24.8,20.6c0-0.2,0-0.5,0.1-0.6
		C24.8,20.2,24.8,20.4,24.8,20.6z M25.2,20c-0.1,0-0.1,0-0.2,0.1C25,20,25.1,20,25.2,20c0,0,0.1,0,0.2,0C25.3,20,25.2,20,25.2,20z
		 M26.1,20.9c0.4,0,0.8,0,1.2,0c0.1,0,0.2-0.1,0.3-0.1c-0.1,0.1-0.2,0.1-0.3,0.2C26.9,20.9,26.5,20.9,26.1,20.9z M41.3,12.3
		c-0.3,0-0.7,0.1-0.7,0.6c0,0.2,0,0.3,0.1,0.4c-0.1-0.1-0.1-0.2-0.1-0.4C40.6,12.3,41,12.2,41.3,12.3z M45.9,13.1
		c0.1,0.5-0.2,0.7-0.5,0.8C45.7,13.8,46,13.5,45.9,13.1z M42,10.7c1.4,0.3,2.8,0.5,4.3,0.6C44.9,11.2,43.4,11,42,10.7z M38.7,6.1
		c0-0.2,0-0.3-0.1-0.5C38.6,5.8,38.7,5.9,38.7,6.1c0,0.4-0.4,0.6-0.8,0.6C38.3,6.7,38.6,6.5,38.7,6.1z M34,4.2
		C34,3.5,33.7,3,34.3,2.7C33.7,3,34,3.5,34,4.2z M29.5,2.8C29.5,2.8,29.5,2.8,29.5,2.8C29.5,2.8,29.5,2.8,29.5,2.8z M29.1,2.8
		C29.2,2.8,29.2,2.8,29.1,2.8C29.2,2.8,29.2,2.8,29.1,2.8z M22.6,3.6c-1.4,0.4-2.7,1.3-4.2,1.5c-0.6,0.1-1,0.1-1.4,0.6
		c0,0.1-0.1,0.1-0.2,0.2c0.1,0,0.1-0.1,0.2-0.2c0.4-0.5,0.8-0.6,1.4-0.6C19.9,4.9,21.1,4,22.6,3.6C23,3.5,22.8,3,23,2.7
		C23,2.6,23,2.5,23,2.4c0,0.1,0,0.2-0.1,0.3C22.8,3,23,3.5,22.6,3.6z M16.8,5.9C16.7,5.9,16.7,5.9,16.8,5.9
		C16.7,5.9,16.7,5.9,16.8,5.9z M16.4,6C16.5,6,16.5,6,16.4,6C16.5,6,16.5,6,16.4,6z M8,13C8,13,8,13,8,13C8,13,8,13,8,13z M5.2,16.7
		c-0.1,0-0.3,0-0.4,0C5,16.6,5.1,16.7,5.2,16.7z M16.5,29.1c0.3-0.1,0.5-0.2,0.7-0.2C17,28.9,16.7,29,16.5,29.1
		c-0.1,0.1-0.3,0.1-0.4,0.1C16.2,29.2,16.4,29.2,16.5,29.1z M18.2,29c0.5,0,0.9-0.4,1.3-0.8c0.2-0.2,0.4-0.4,0.6-0.3
		c-0.2-0.1-0.4,0.1-0.6,0.3C19.1,28.7,18.7,29.1,18.2,29z M30.3,26.1c0.1-0.5,0.7-0.9,1.4-0.9C31,25.2,30.4,25.6,30.3,26.1
		C30.3,26.1,30.3,26.1,30.3,26.1z M32.9,27.5c0.4-0.1,0.6-0.5,0.6-1c0-1-1-0.9-1.5-1.2c0.6,0.3,1.5,0.1,1.5,1.2
		C33.4,27,33.2,27.4,32.9,27.5z M34.1,28.6c0.3,0,0.6,0,0.8,0C34.6,28.6,34.4,28.6,34.1,28.6z M44.3,4.6c-0.1,0.1-0.2,0.3-0.2,0.4
		c0,0.3,0.2,0.5,0.5,0.5c0.4,0,0.5-0.4,0.6-0.8C45.1,5,45,5.5,44.6,5.5c-0.3,0-0.5-0.2-0.5-0.5C44.1,4.8,44.2,4.7,44.3,4.6z M42.6,6
		c0.4-0.1,0.6-0.4,0.5-0.8c0,0,0,0,0,0C43.2,5.6,43.1,5.9,42.6,6c-0.3,0-0.5,0-0.5-0.3C42.2,6,42.4,6,42.6,6z M23,2.4
		c0-0.1-0.1-0.1-0.1-0.1C23,2.3,23,2.4,23,2.4z M16.1,4.7c-0.2,0.1-0.3,0.2-0.3,0.4C15.8,4.9,15.9,4.8,16.1,4.7z M15.7,5.4
		c0,0.2,0,0.4,0.3,0.5C16.1,6,16.2,6,16.3,6C16.2,6,16.1,6,16,6C15.7,5.9,15.7,5.6,15.7,5.4z M12.5,7.6c-0.3-0.1-0.5-0.2-0.6-0.4
		C12,7.4,12.2,7.5,12.5,7.6c0.7,0.2,1.7-0.6,1.7-1.3C14.2,7.1,13.2,7.8,12.5,7.6z M11.2,7.4c-0.8,0.4-1.8,0.4-2.6,1.1
		C9.4,7.8,10.4,7.8,11.2,7.4z M9.9,9.8c0.3,0,0.6,0,1.1,0.1c-0.1,0.2-0.3,0.4-0.5,0.6c0.2-0.2,0.3-0.4,0.4-0.6
		C10.6,9.9,10.2,9.9,9.9,9.8c-1.2-0.1-2,0.5-2.8,1.2c0,0,0,0,0,0C7.9,10.3,8.8,9.7,9.9,9.8z M6.8,11.4c-0.2,0.1-0.3,0.2-0.6,0.1
		C6.5,11.6,6.7,11.6,6.8,11.4z M4.7,18.8C4.6,18.3,4.5,18,3.9,18C4.5,18,4.6,18.3,4.7,18.8z M0.2,20.5c0,0.3,0.1,0.5,0.1,0.9
		C0.3,21.1,0.2,20.8,0.2,20.5z M1,23.6c0-0.1,0-0.1,0-0.2C1.1,23.5,1,23.6,1,23.6c0,0.1,0,0.2,0,0.3C1,23.8,1,23.7,1,23.6z M1,23.3
		L1,23.3c0.4,0.3,0.2,0.8,0.2,1.2C1.2,24.1,1.4,23.7,1,23.3z M5.5,27.9c-0.1,0-0.2-0.1-0.3,0C5.3,27.9,5.4,27.9,5.5,27.9
		c0.5,0.2,0.4,0.6,0.1,0.9C5.9,28.5,6,28.1,5.5,27.9z M8,28.7C8,28.7,7.9,28.7,8,28.7C7.9,28.7,8,28.7,8,28.7C8,28.7,8,28.7,8,28.7z
		 M7.9,28.5C7.9,28.5,7.9,28.5,7.9,28.5C7.9,28.5,7.9,28.5,7.9,28.5z M8.8,29.2C8.8,29.2,8.8,29.2,8.8,29.2c0,0.3,0.2,0.5,0.5,0.5
		C9,29.8,8.8,29.6,8.8,29.2z M9.6,29.6c0.2,0,0.4-0.1,0.6-0.2C10,29.5,9.8,29.6,9.6,29.6z M9.7,28.6c0.4,0,0.8,0,0.7,0.5
		C10.4,28.6,10,28.6,9.7,28.6z M14.5,29.8C14.5,29.8,14.5,29.8,14.5,29.8C14.5,29.8,14.5,29.8,14.5,29.8z M14.7,29.6
		C14.7,29.6,14.7,29.6,14.7,29.6C14.7,29.6,14.7,29.6,14.7,29.6z M14.7,29.3c0-0.4-0.2-0.5-0.6-0.5c-0.3,0.1-0.6,0.3-0.6,0.7
		c0,0,0,0,0,0c0-0.4,0.2-0.6,0.6-0.7C14.5,28.8,14.7,29,14.7,29.3C14.7,29.3,14.7,29.3,14.7,29.3z M15.1,29.8
		c-0.1-0.6,0.3-0.7,0.7-0.7C15.4,29.2,15,29.2,15.1,29.8c0.1,0.7,1.2,0.4,1.7,0.7C16.3,30.3,15.2,30.5,15.1,29.8z M25.6,28.8
		c-0.1-0.1-0.1-0.2-0.2-0.2C25.5,28.6,25.6,28.7,25.6,28.8c0.6,0.7,1.7,0.6,2.3,1.4C27.3,29.4,26.2,29.5,25.6,28.8z M28.9,29.8
		c0,0-0.1,0.1-0.1,0.1c-0.1,0.1-0.2,0.2-0.3,0.2c0.1-0.1,0.2-0.1,0.3-0.2C28.9,29.9,28.9,29.9,28.9,29.8c0.3-0.5-0.1-0.5-0.4-0.7
		C28.8,29.3,29.2,29.3,28.9,29.8z M38.6,30c0.1-0.2,0.1-0.3,0-0.5c-0.2-0.6-0.6-0.3-1-0.2c-1.1,0.4-2.1,0.5-3.2,0.2
		c1.1,0.3,2.2,0.2,3.2-0.2c0.4-0.1,0.8-0.4,1,0.2C38.8,29.6,38.7,29.8,38.6,30z M39.7,29.6c0.1-0.6,0.6-0.7,1-0.9
		C40.3,28.9,39.8,29,39.7,29.6c0,0.3,0,0.7,0.5,0.7c0,0,0,0,0,0C39.7,30.3,39.7,29.9,39.7,29.6z M43.7,29.2c-0.1,0-0.1,0.1-0.2,0.1
		C43.6,29.3,43.6,29.2,43.7,29.2c0.2-0.1,0.4-0.2,0.8-0.2C44.2,29,43.9,29,43.7,29.2z M43.4,25.6c0-0.3,0.1-0.6,0.3-0.7
		C43.4,25,43.3,25.3,43.4,25.6c0,0.3,0.1,0.5,0.1,0.8c0.3,0.1,0.6,0.2,0.9,0.3c0.2,0,0.5,0,0.7-0.1c0.1-0.1,0.2-0.1,0.3-0.2
		c-0.1,0.1-0.2,0.2-0.3,0.2c-0.2,0.1-0.5,0-0.7,0.1c0,0.2,0,0.5,0,0.7c0.1,0,0.2,0,0.3,0c-0.1,0-0.2,0-0.3,0c0-0.2,0-0.5,0-0.7
		c-0.3-0.1-0.6-0.2-1-0.3c-0.2,0.1-0.4,0.2-0.5,0.3c0.1-0.1,0.3-0.3,0.5-0.3C43.5,26.1,43.4,25.9,43.4,25.6z M52,11.5
		c-0.1,0.2-0.2,0.4-0.2,0.7C51.8,11.9,51.9,11.7,52,11.5z"/>
</g>
<g id="Layer_1">
	<path class="st1" d="M48.4,4.1c-0.7,0.2-1,0.9-1.3,1.5c-0.9,1.4-2.2,2.1-3.8,2.1c-2.4,0.1-4.8-0.2-7.3-0.4
		c-3.2-0.2-6.4-0.1-9.3,1.5c-1.4,0.8-3,1.4-4.5,1.9c-1.4,0.5-1.9,0.1-2-1.4c0-1.3,0-2.6,0-4c-3.7,1-7.1,2.6-10.3,4.5
		c0.3,0,0.6,0.1,1.1,0.1c-0.5,0.8-1.3,1.3-1.9,1.9c-0.4,0.4-1,0.6-1.1,1.4c0.1,0,0.3,0.1,0.4,0.1c0.1,0,0.2,0,0.3-0.1
		c0-0.3,0.1-0.5,0.4-0.6c2.6-1.7,5.3-3.4,7.9-5.2c0.3-0.2,0.6-0.4,1.1-0.3c-0.3,2.6-0.6,5.2-1.5,7.7c-0.9,2.2-2.7,3.4-4.6,4.4
		c-0.1,0.2-0.3,0.2-0.5,0.3c0.1,0.6-1.1,0.5-0.8,0.9c0.3,0.5,1.1,0.4,1.7,0.5c1.7,0.3,3.3,0.9,4.8,1.7c0.1,0.1,0.2,0.1,0.2,0.2
		c0.3,0,0.5,0,0.7,0.3c2.6,1.1,4.5,4.4,4,7.1C22,31,22.4,31,22.9,31c1.1,0.1,2.1-0.3,3.1-0.5c-0.1-1-1-1.2-1.6-1.8
		c-1.7-1.8-2.9-3.9-3.5-6.3c-0.7-2.7-1-5.4,0.7-7.9c1.2-1.7,3.1-2.6,5-3.4c4.1-1.7,8.3-1.4,12.6-0.8c0.2,0,0.5,0,0.7,0
		c-0.2-1-1.2-0.9-1.8-1.2c-0.3-0.1-0.7,0.2-0.8-0.3c-0.1-0.2,0-0.5,0.2-0.7c0.3-0.3,0.6-0.3,0.9-0.1c0.8,0.5,1.8,0.4,2.7,0.6
		c1.3,0.3,2.7-0.5,4,0.2C45.6,9,46.1,8.9,46,9.5C45.9,10,45.4,10.2,45,10c-1-0.4-2,0.1-3-0.2c-0.4-0.1-1.1-0.3-1.3,0.4
		c1.9,0.5,3.8,0.9,5.7,1c0,0,0.1,0,0.1,0c-0.1-0.3,0.1-0.5,0.2-0.8C47.5,8.4,48.7,6.4,48.4,4.1z M14.1,20.1
		c-0.3,0.1-0.4-0.1-0.4-0.4c0-0.4,0.2-0.6,0.6-0.7c0.4,0,0.6,0.1,0.6,0.5C14.8,19.9,14.4,20,14.1,20.1z M22.1,13
		c-0.5,0.7-1,1.4-1.8,1.7c-0.7,0.3-0.8,1.1-1,1.6c-0.4,1-1.3,2.3-0.5,3.3c0.5,0.7,0.8,1.5,1.4,2.1c0.5,0.5,0.4,0.9-0.1,1.2
		c-0.6,0.4-0.8-0.1-1-0.5c-0.4-0.8-0.8-1.4-1.9-1.1c-0.5,0.1-1.2-0.4-1.8-0.6c-0.2-0.1-0.4-0.3-0.3-0.6c0.1-0.3,0.3-0.4,0.6-0.4
		c0.4,0,0.7,0,1.3,0c-0.9-1-0.8-1.5,0.3-2.1c0.8-0.4,1.2-1.5,1.7-2.4c0.6-1.2,2-1.7,2.5-2.9c0.1-0.2,0.6-0.4,0.9-0.1
		C22.6,12.5,22.3,12.7,22.1,13z"/>
	<path class="st2" d="M49.4,25.5c-2-0.9-4-1.8-6.1-2.3c-0.3,0.4-0.1,1.1-0.8,1.2c-0.4,0.1-0.8,0.2-1-0.1c-0.3-0.4,0.1-0.7,0.4-1
		c0.3-0.3,0.7-0.2,1.1-0.2c-0.5-0.2-1-0.5-1.5-0.7c-0.4-0.1-0.6-0.4-0.4-0.8c0.7-1.3,1.1-2.8,2.4-3.7c1.7-1.3,3.5-2.2,5.5-2.8
		c0.3-0.1,0.5-0.3,0.8-0.4c-2.2-0.1-4.4-0.1-6.5,0.9c-1,0.5-1.8,1.1-2.7,1.8c-2.6,1.9-5.4,3.4-8.5,4.4c-1.2,0.4-2.5,0.8-3.9,0.6
		c1.2,1.9,6.3,4.1,13.9,4.4c-2,0.9-3.8,1.7-5.6,1.8c-2.2,0.2-4.4,0.3-6.6-0.3c-3.2-0.9-5.7-2.5-7.9-5c-0.3-0.4-0.5-0.8-1-0.9
		c0.5,2.5,1.8,4.5,3.5,6.3c0.5,0.6,1.5,0.8,1.6,1.8c0.7,0,1.3,0.3,2,0.5c5.3,1.3,10.6,1.5,15.8,0c2.4-0.6,4.4-1.9,5.9-3.9
		C50.3,26.3,50.3,25.8,49.4,25.5z M36.1,23.8c-0.1,0.5-0.5,0.8-1.2,0.6c-0.7,0.1-1.1-0.5-1.6-1.1c-0.4-0.4-0.2-0.7,0.1-1
		c0.3-0.3,0.8-0.3,0.9,0.1c0.2,0.6,0.7,0.6,1.2,0.9C35.8,23.4,36.2,23.3,36.1,23.8z M37.8,23.4c0,0.4-0.2,0.6-0.6,0.6
		c-0.2,0-0.3-0.2-0.3-0.4c0.1-0.3,0.3-0.5,0.6-0.6C37.8,23,37.8,23.2,37.8,23.4z M29,29.8c-0.2,0.4-0.8,0.7-1,0.3
		c-0.6-0.8-1.7-0.7-2.3-1.4c-0.2-0.2-0.4-0.4-0.3-0.7c0.1-0.2,0.3-0.4,0.6-0.4c0.1,0,0.3,0,0.3,0.1c0.3,1.2,1.5,0.8,2.3,1.3
		C28.9,29.3,29.3,29.3,29,29.8z M38.3,30.4c-0.9,0.8-1.9,0.4-2.8,0.4c-1.7,0.1-3.4-0.5-5.2-0.2c-0.3,0.1-0.7,0-0.8-0.4
		c-0.2-0.4,0-0.7,0.3-0.9c0.4-0.3,0.9-0.4,1.6-0.5c0.9,0.6,2.1,0.3,3.1,0.6c1.2,0.3,2.2,0.2,3.2-0.2c0.4-0.1,0.8-0.4,1,0.2
		C38.9,29.8,38.7,30.1,38.3,30.4z M41.4,29.2c-0.2,0.6-0.5,1-1.2,1c-0.5,0-0.5-0.3-0.5-0.7c0.1-0.7,0.8-0.7,1.2-0.9
		C41.4,28.6,41.5,28.9,41.4,29.2z M47.7,26.9c-0.5,1.1-2,2.1-3.2,2.1c-0.3,0-0.5,0-0.8,0.2c-0.3,0.2-0.6,0.5-1,0.2
		c-0.5-0.3-0.3-0.8-0.2-1.2c0.2-0.7,0-1.6,1-1.8c0-0.3-0.1-0.5-0.1-0.8c0-0.4,0.2-0.9,0.5-0.8c0.6,0.1,1.3,0.3,1.7,0.7
		c0.3,0.3,0,0.8-0.4,1.1c-0.2,0.1-0.5,0-0.7,0.1c0,0.2,0,0.5,0,0.7c0.1,0,0.2,0,0.3,0c0.8-0.5,1.6-0.7,2.4-0.9
		C47.5,26.4,48,26.3,47.7,26.9z"/>
	<path class="st0" d="M47.8,3.1c-1.5-0.8-3.2-1.1-4.9-1.3c-3.7-0.6-7.5-0.9-11.3-1.1c-6.8-0.5-13,1.2-18.8,4.7c0,0.1,0,0.2,0,0.2
		c0.1,0,0.2,0,0.4,0c0.6,0.1,1.4-0.3,1.3,0.8c-0.1,0.7-1,1.5-1.7,1.3C12,7.4,11.8,7,12.1,6.4c0.1-0.3,0.6-0.5,0.6-0.9
		c-0.1,0-0.2,0-0.2-0.1c-2.2,1-4.1,2.4-6,3.9c-0.2,0.6-0.2,1.3-0.2,1.9c0.5,0.6,0.8,0,1.1-0.2C8,10.3,8.8,9.6,10,9.8
		c3.2-1.9,6.6-3.6,10.3-4.5c0,1.4,0,2.7,0,4c0,1.5,0.6,1.9,2,1.4c1.5-0.6,3-1.2,4.5-1.9c3-1.5,6.1-1.7,9.3-1.5
		c2.4,0.2,4.8,0.5,7.3,0.4c1.6-0.1,2.9-0.7,3.8-2.1c0.3-0.5,0.6-1.2,1.3-1.5C48.5,3.5,48.2,3.3,47.8,3.1z M11.5,8
		c-0.7,0.6-1.9,0.5-2.3,1.3c-0.4,0-0.5-0.1-0.6-0.2C8.5,8.8,8.5,8.6,8.8,8.4c0.7-0.6,1.7-0.6,2.6-1.1C11.6,7.2,11.8,7.8,11.5,8z
		 M18.5,5c-0.6,0.1-1,0.1-1.4,0.6c-0.2,0.3-0.6,0.4-1,0.3c-0.3-0.1-0.3-0.4-0.3-0.7c0.1-0.5,0.4-0.6,0.8-0.7c2-0.2,3.7-1.2,5.4-2
		c0.3-0.1,0.5-0.4,0.9-0.3c0.2,0,0.2,0.2,0.1,0.4c-0.1,0.3,0,0.8-0.4,0.9C21.2,4,19.9,4.8,18.5,5z M38,6.7c-0.4,0-0.6-0.3-0.6-0.7
		c0-0.4,0.2-0.7,0.7-0.7c0.4,0.1,0.8,0.2,0.7,0.8C38.7,6.5,38.3,6.7,38,6.7z M39.8,3.6c-4.2,0.9-8.4,1.7-12.3,3.3
		c-1.3,0.5-2.6,0.9-3.9,1.4C22.6,8.7,21.8,8,22,6.8c0.7-2.9,2.5-5.2,6-5.2c0.4,0,0.8,0,1.2,0C32.2,2,35.1,2,38,2.6
		c0.5,0.1,1.1,0.1,1.7,0.1c0.4,0,0.8,0.3,0.8,0.6C40.6,3.7,40.1,3.6,39.8,3.6z M42.7,6c-0.3,0-0.5,0-0.5-0.3c0-0.5,0.3-0.7,0.6-0.9
		c0.3,0,0.4,0.3,0.4,0.5C43.3,5.6,43.1,5.9,42.7,6z M44.7,5.5c-0.3,0-0.5-0.2-0.5-0.5c0.1-0.4,0.3-0.6,0.7-0.7
		c0.3-0.1,0.4,0.2,0.4,0.5C45.1,5,45.1,5.4,44.7,5.5z"/>
	<path class="st2" d="M22.2,30.1c0.5-2.7-1.5-6-4-7.1c-0.1,0.5,0.2,0.9,0.4,1.3c1.2,2.1,0,4.1-2.4,4.2c-3.2,0.1-6.2-0.7-9.2-1.6
		c-1.9-0.5-3.7-1.2-5.3-2.3c0.1,2.4,1.2,3.8,3.1,3.8c0.1-0.5,0.4-0.8,0.9-0.7c0.5,0.2,0.4,0.6,0.1,0.9c0.1,0.6,0.6,0.5,1,0.5
		c0.1,0.3,0.5,0.3,0.5,0.7c2.5,0.8,5.1,1.2,7.7,1.4c2.7,0.2,5.4,0.4,8.1-0.4C22.4,31,22,31,22.2,30.1z M7.4,29.2
		c-0.2,0.1-0.5,0-0.7,0h0c-0.1-0.3-0.1-0.5,0.1-0.8c0.2-0.4,0.5-0.5,0.9-0.4C7.9,28.2,8,28.4,8,28.7C8,29.1,7.7,29.1,7.4,29.2z
		 M9.4,29.6c-0.3,0.1-0.5-0.1-0.5-0.5c0-0.6,0.5-0.6,0.9-0.6c0.4,0,0.8,0,0.7,0.5C10.3,29.6,9.8,29.5,9.4,29.6z M14.1,30
		c-0.3,0-0.5-0.1-0.5-0.5c0-0.4,0.2-0.6,0.6-0.7c0.4,0,0.6,0.1,0.6,0.5C14.8,29.7,14.6,30,14.1,30z M20.4,29.1
		c-0.9,1.3-2.2,1.3-3.5,1.4c-0.5-0.3-1.5,0-1.6-0.7c-0.2-1,0.9-0.5,1.4-0.7c0.5-0.3,1-0.3,1.5-0.1c0.7,0.2,1.1-0.3,1.5-0.7
		c0.3-0.3,0.5-0.5,0.9-0.1C20.9,28.5,20.6,28.8,20.4,29.1z"/>
	<path class="st1" d="M4.9,16.6C4.7,17.1,4,17.3,4,18c-0.1,0.1-0.2,0.2-0.2,0.2s-0.2,0.2-0.2,0.2c-0.2,0-0.2,0.1-0.2,0.3
		c-0.3,0.5-1,0.7-1,1.4c-0.3,0.2-0.4,0.2-0.4-0.2c0-0.3,0.2-0.7-0.2-0.6c-1.5,0.3-1.2-0.8-1.3-1.5c0-0.3,0.1-0.6,0.1-0.9
		c1-0.3,2.1-0.3,2.9-1.2c0.3-0.4,0.3-0.5,0-0.9c-0.6-0.9-1.3-0.2-2-0.2c0.6-1.3,1.5-2.4,2.9-3.1c0,0.3,0.1,0.5,0.3,0.7
		c0,1.4-0.3,2.9,0.2,4.3C4.8,16.6,4.8,16.6,4.9,16.6z"/>
	<path class="st3" d="M55.3,10.8c0.1,0.7,0,1.4,0,2.1c-0.1-0.6-0.5-1-0.4-1.7c0.3-0.9-0.4-1.1-1-0.9c-0.9,0.3-2.1,0.7-2.2,1.8
		c-0.1,1.2,1.2,1.1,2,1.4c0.1,0,0.2,0,0.2,0.1c1.5,0.2,1.6,0.5,1,2c-0.7,0.1-1.3-0.3-1.9-0.5c-1.4-0.5-2.7,0.1-4.1,0
		c0.3-0.1,0.5-0.3,0.8-0.4c1.7,0,0.7-1.3,0.9-2c0.2-0.8-0.4-0.9-1.1-0.9c-1.1,0-2.3,0.4-3.3-0.5c0,0,0.1,0,0.1,0
		c1-0.1,1.9,0.3,2.8,0.2c1.6-0.1,2.9-0.9,4.2-1.8c0.8-0.6,1.6-0.8,2.5,0C55.5,9.9,55.3,10.2,55.3,10.8z"/>
	<path class="st4" d="M56.9,15.2c-0.5,0.4-1,0.9-1.8,0.5c0.6-1.5,0.4-1.7-1-2c-0.1,0-0.2,0-0.2-0.1c-0.8-0.3-2.1-0.2-2-1.4
		c0.1-1.1,1.3-1.5,2.2-1.8c0.6-0.2,1.3-0.1,1,0.9c-0.2,0.6,0.3,1.1,0.4,1.7c0-0.7,0-1.4,0-2.1c0-0.6,0.2-1,0.7-1.2
		c0.3,0.2,0.3,0.6,0.3,0.9c0,1.2,0,2.3,0.7,3.3C57.3,14.2,57.4,14.7,56.9,15.2z"/>
	<path class="st5" d="M7.1,30c-1.7-0.3-3.3-0.8-4.7-1.7c-1.5-0.9-1.5-2.7-2-4.2c-0.1-0.3-0.1-0.7-0.1-1.1c0.2-0.5-0.4-1.4,0.8-1.3
		c0,0.5,0,1,0,1.5c0,0.4-0.2,0.9,0.2,1.2c0.1,0.1,0.1,0.2,0.2,0.3c0.1,2.4,1.2,3.8,3.1,3.8c0.3,0.3,0.6,0.2,0.9,0.2
		c0.1,0.6,0.6,0.5,1,0.5C6.8,29.5,7.2,29.6,7.1,30z"/>
	<path class="st1" d="M2.3,20.1c-0.3,0.2-0.4,0.2-0.4-0.2c0-0.3,0.2-0.7-0.2-0.6c-1.5,0.3-1.2-0.8-1.3-1.5c-0.7,1.8-0.6,3.5,0,5.3
		c0.2-0.5-0.4-1.4,0.8-1.3c0.4,0.1,0.8,0.2,1.2,0.3c0.2-0.4,0.6,0.1,0.9-0.2C2.6,21.4,2.2,20.9,2.3,20.1z M0.4,21.4
		c-0.1-0.6-0.3-1.2,0.2-1.5c0.1-0.1,0.4,0.1,0.5,0.3C1.3,20.6,1,21,0.4,21.4z"/>
	<path class="st1" d="M3.4,15.7c-0.8,0.9-1.9,0.9-2.9,1.2c0.3-0.7,0.1-1.7,0.9-2.3c0.7,0,1.4-0.6,2,0.2C3.6,15.2,3.7,15.3,3.4,15.7z
		"/>
	<path class="st1" d="M6.4,9.4c-0.2,0.6-0.2,1.3-0.2,1.9c-0.1,1.1-1,0.9-1.7,1c-0.2-0.2-0.3-0.4-0.3-0.7C4.5,10.3,5.5,9.9,6.4,9.4z"
		/>
	<path class="st6" d="M43.3,23.2c-0.3,0.4-0.1,1.1-0.8,1.2c-0.4,0.1-0.8,0.2-1-0.1c-0.3-0.4,0.1-0.7,0.4-1c0.3-0.3,0.7-0.2,1.1-0.2
		C43.2,23.1,43.3,23.1,43.3,23.2z"/>
	<path class="st7" d="M12.7,5.3c0,0.1,0,0.2,0,0.2l-0.1,0.1c-0.1,0-0.2,0-0.2-0.1C12.4,5.3,12.4,5.1,12.7,5.3z"/>
	<path class="st0" d="M50.8,12.6c0.2-0.8-0.4-0.9-1.1-0.9c-1.1,0-2.3,0.4-3.3-0.5c-1.9-0.1-3.8-0.5-5.7-1c-0.2,0-0.4,0-0.7,0
		c-0.2,0-0.5,0-0.7,0c-4.2-0.6-8.5-0.9-12.6,0.8c-1.9,0.8-3.8,1.7-5,3.4c-1.7,2.5-1.5,5.2-0.7,7.9c0.5,0.1,0.7,0.6,1,0.9
		c2.2,2.4,4.7,4.1,7.9,5c2.2,0.6,4.5,0.5,6.7,0.3c1.8-0.1,3.6-0.9,5.6-1.8c-7.6-0.2-12.7-2.5-13.9-4.4c1.4,0.2,2.7-0.3,3.9-0.6
		c3.1-0.9,5.9-2.5,8.5-4.4c0.8-0.6,1.7-1.3,2.7-1.8c2.1-1,4.3-1,6.5-0.9C51.6,14.6,50.6,13.4,50.8,12.6z M31.8,25.2
		c0.5,0.5,1.7,0.1,1.8,1.3c0,0.6-0.3,1.1-1,1c-1.2,0-2.1-0.8-2.1-1.5C30.5,25.6,31.1,25.2,31.8,25.2z M23.4,20.9
		c-0.5,0-0.9,0-0.9-0.6c0-0.5,0.2-0.9,0.7-0.8c0.4,0,1-0.2,1.2,0.5C24.2,20.4,23.9,20.8,23.4,20.9z M24.4,22.4
		c0-0.5,0.3-0.7,0.6-0.7c0.5,0,0.7,0.3,0.7,0.8c0,0.4-0.3,0.6-0.7,0.8C24.7,23.1,24.5,22.8,24.4,22.4z M26.2,24.5
		c-0.3,0-0.7,0-0.7-0.4c0-0.5,0.4-0.7,0.8-0.8c0.3,0,0.7,0,0.7,0.5C27,24.2,26.7,24.5,26.2,24.5z M27.3,20.9c-0.4,0-0.8,0-1.2,0
		c-0.3,0-0.5,0-0.7,0.1c-0.4,0.1-0.5,0-0.6-0.4c0-0.3,0-0.6,0.4-0.6c0.7,0,1.4,0,2.1,0c0.2,0,0.3,0.2,0.3,0.4
		C27.7,20.6,27.6,20.8,27.3,20.9z M30.6,21.3c-0.6,0.1-0.7-0.5-0.7-1c0-0.8,0.6-1.2,1.4-1.3c0.5-0.1,0.8,0.3,0.8,1.1
		C32,20.7,31.4,21.1,30.6,21.3z M34.7,19.6C34.4,19.5,34,19.4,34,19c0.1-0.6,0.3-1.2,1-1.2c0.5,0,0.6,0.2,0.6,0.7
		C35.7,19.1,35.4,19.5,34.7,19.6z M39.5,13.6c-0.7,1-1.7,1.5-2.7,2.1c-2,1.4-4.3,2.4-6.6,3.1c-1.5,0.5-3,0-4.4-0.5
		c-1.1-0.4-2.2-0.7-3-1.7c-0.4-0.5-0.4-0.9,0-1.2c1.8-1.7,3.7-3.2,6.1-3.6c1.9-0.3,3.8-0.7,5.3-0.6c1.8,0.1,3.2-0.1,4.5,0.4
		C39.8,12.1,40.1,12.6,39.5,13.6z M45.4,13.8c-1.1,0.2-2.3,0.2-3.3-0.4c-0.2-0.1-0.4-0.3-0.7-0.2c-0.4,0.1-0.7,0.2-0.7-0.4
		c0-0.6,0.3-0.7,0.7-0.6c1,0.3,2-0.3,2.8,0.6c0.2,0.3,0.7,0.1,1,0c0.3-0.1,0.7-0.2,0.8,0.3C46.1,13.5,45.8,13.8,45.4,13.8z"/>
	<path class="st0" d="M18.6,24.4c-0.2-0.4-0.5-0.8-0.4-1.3c-0.2-0.3-0.5-0.2-0.7-0.3c-0.1-0.1-0.2-0.1-0.2-0.2
		c-1.5-0.8-3.1-1.4-4.8-1.7c-0.6-0.1-1.4,0.1-1.7-0.5c-0.3-0.5,0.9-0.3,0.8-0.9c-0.4,0-0.8,0-1.2,0c-0.3,0.4-0.7,0.6-1.2,0.5
		c0.2,0.6,1.1,0.8,0.8,1.7c0.9,0.3,1.7,0.6,2.6,0.7c1.8,0.3,2.2,0.8,2.3,2.7c0.1,1.9-0.1,2.2-2,2.1c-3.8-0.2-7.1-1.7-10-4.1
		c-0.2-0.2-0.5-0.3-0.4-0.7c0-0.1,0-0.1,0-0.2v0c-0.4-0.1-0.8-0.2-1.2-0.3c0,0.5,0,1,0,1.5c0.4,0.3,0.2,0.8,0.2,1.2
		c0.1,0.1,0.1,0.2,0.2,0.3c1.6,1,3.4,1.7,5.3,2.3c3,0.9,6.1,1.6,9.2,1.6C18.5,28.5,19.8,26.5,18.6,24.4z M17.7,26.2
		c0,0.5,0,1-0.5,1.1c-0.6,0.1-0.8-0.4-0.9-0.8c-0.1-0.7-0.3-1.3-0.7-1.8c-0.4-0.6,0.2-0.9,0.6-1c0.5-0.2,0.9,0,0.9,0.6
		C17.1,25,18,25.5,17.7,26.2z"/>
	<path class="st0" d="M8.8,13.2c0-0.3,0.1-0.5,0.3-0.6c2.6-1.7,5.3-3.4,7.9-5.2c0.3-0.2,0.6-0.4,1.1-0.3c-0.3,2.6-0.6,5.2-1.5,7.6
		c-0.9,2.2-2.7,3.4-4.6,4.4c-0.2-1.3-1.2-0.5-1.9-0.7c-0.4-0.1-0.5,0.5-0.9,0.3c-1.4-0.7-1.5-0.7-1.5,0.9c-0.7-0.6-1.4-0.8-2.3-0.1
		c0.8-1.3,3-3,3.8-3.1c0.6,0,1.2,0.1,1.9,0.1c-0.2,0.1-0.4,0.2-0.5,0.2c-0.5,0-0.9,0.2-0.8,0.8c0.1,0.7,0.6,0.5,1,0.4
		c0.7-0.2,1.3-0.5,1.8-0.9c1.1-1,1.4-2.4,2.4-3.5c0.2-0.2,0.9-1,0.4-1.3c-0.6-0.3-0.9,0.6-1.2,1c-1,1-1,2.7-2.4,3.3
		c0-0.8-1.4-0.9-1-1.9c1.6-1.1,2.9-2.5,4.1-3.9c0.1-0.2,0.2-0.4,0.1-0.5c-0.1-0.1-0.3-0.1-0.4-0.1c-0.3,0.1-0.6,0.3-0.9,0.5
		C11.8,11.5,10.5,12.6,8.8,13.2L8.8,13.2z"/>
	<path class="st6" d="M17,19.7c-0.9-1-0.8-1.5,0.3-2.1c0.8-0.4,1.2-1.5,1.7-2.4c0.6-1.2,2-1.7,2.5-2.9c0.1-0.2,0.5-0.4,0.8-0.1
		c0.3,0.3,0,0.6-0.2,0.8c-0.5,0.7-1,1.4-1.8,1.7c-0.7,0.3-0.8,1.1-1,1.6c-0.4,1-1.3,2.3-0.5,3.3c0.5,0.7,0.8,1.5,1.4,2.1
		c0.5,0.5,0.4,0.9-0.1,1.2c-0.6,0.4-0.8-0.1-1-0.5c-0.4-0.8-0.8-1.4-1.9-1.1c-0.5,0.1-1.2-0.4-1.8-0.6c-0.2-0.1-0.4-0.3-0.3-0.6
		c0.1-0.3,0.3-0.4,0.6-0.4C16.1,19.7,16.4,19.7,17,19.7z"/>
	<path class="st1" d="M4.5,12.2c0.7-0.1,1.5,0.1,1.7-1c0.5,0.6,0.8,0,1-0.2C8,10.3,8.8,9.6,10,9.8c0.3,0,0.6,0.1,1.1,0.1
		c-0.5,0.8-1.3,1.3-1.9,1.9c-0.4,0.4-1.1,0.6-1.1,1.4c-0.1,0.6-0.6,0.7-1,1c-0.7-0.3-1,0-0.9,0.7c0,0.1,0,0.2,0,0.3
		c-0.8,0.2-1.2,0.7-1.4,1.4C4.2,15.1,4.5,13.7,4.5,12.2z"/>
	<path class="st6" d="M40.7,10.3c-0.2,0-0.4,0-0.7,0c-0.2-1-1.2-0.9-1.8-1.2C38,9,37.6,9.2,37.4,8.8c-0.1-0.2,0-0.5,0.2-0.7
		c0.3-0.3,0.6-0.3,0.9-0.1c0.8,0.5,1.8,0.4,2.7,0.6c1.3,0.3,2.7-0.5,4,0.2C45.6,9,46.1,8.9,46,9.5C45.9,10,45.4,10.2,45,10
		c-1-0.4-2,0.1-3-0.2C41.6,9.8,40.9,9.6,40.7,10.3z"/>
	<path class="st7" d="M7.1,14.2c0.4-0.3,0.9-0.4,1-1c0.1,0,0.3,0,0.4,0.1c0,0.1,0,0.1,0,0.2c0.4,0.3,0.7,0.9,1.3,0.6
		c1-0.6,0.6,0.3,0.7,0.6c-0.5,1,0.9,1.1,1,1.9c-0.2,0-0.3,0-0.5,0.1c-0.6,0-1.2-0.1-1.9-0.1c-0.1-0.1-0.1-0.3-0.2-0.4
		c-0.5-0.6-1.1,0.2-1.4-0.1s0.6-1.1-0.3-1.4C7.1,14.5,7.1,14.3,7.1,14.2z"/>
	<path class="st7" d="M10,18.5c0.6,0.2,1.6-0.6,1.9,0.7c-0.1,0.2-0.3,0.3-0.5,0.3c-0.4,0-0.8,0-1.2,0C10.2,19.1,10.1,18.8,10,18.5z"
		/>
	<path class="st6" d="M14.2,19c0.4,0,0.6,0.1,0.6,0.5c0,0.5-0.4,0.6-0.7,0.7c-0.3,0.1-0.4-0.1-0.4-0.4C13.6,19.3,13.8,19,14.2,19z"
		/>
	<path class="st2" d="M17.5,22.8c-0.1-0.1-0.2-0.1-0.2-0.2C17.3,22.6,17.4,22.7,17.5,22.8z"/>
	<path class="st0" d="M8.6,13.5c0-0.1,0-0.1,0-0.2c0.1,0,0.2,0,0.3-0.1l0,0.1C8.7,13.3,8.6,13.4,8.6,13.5z"/>
	<path class="st6" d="M31.4,28.8c0.9,0.6,2.1,0.3,3.1,0.6c1.2,0.4,2.2,0.2,3.2-0.2c0.4-0.1,0.8-0.4,1,0.2c0.2,0.4-0.1,0.7-0.4,1
		c-0.9,0.8-1.9,0.4-2.8,0.4c-1.7,0.1-3.5-0.5-5.2-0.2c-0.3,0.1-0.7-0.1-0.8-0.4c-0.2-0.4,0-0.7,0.3-0.9C30.3,29,30.8,28.9,31.4,28.8
		z"/>
	<path class="st6" d="M44.5,26.6c0,0.2,0,0.5,0,0.7c0.1,0.2,0.2,0.2,0.3,0c0.8-0.5,1.6-0.7,2.4-0.9c0.3-0.1,0.7-0.1,0.5,0.5
		c-0.5,1.1-2,2.1-3.2,2.1c-0.3,0-0.5,0-0.8,0.2c-0.3,0.2-0.6,0.5-1,0.2c-0.5-0.3-0.3-0.8-0.2-1.2c0.2-0.7,0-1.6,1-1.8
		C43.9,26.5,44.2,26.5,44.5,26.6z"/>
	<path class="st6" d="M26,27.6c0.1,0,0.3,0,0.3,0.1c0.3,1.2,1.5,0.8,2.3,1.3c0.3,0.2,0.7,0.3,0.4,0.7c-0.2,0.4-0.8,0.7-1,0.3
		c-0.6-0.8-1.7-0.7-2.3-1.4c-0.2-0.2-0.4-0.4-0.3-0.7C25.5,27.8,25.7,27.6,26,27.6z"/>
	<path class="st6" d="M34.9,24.4c-0.7,0.1-1.1-0.5-1.6-1.1c-0.4-0.5-0.2-0.7,0.1-1c0.3-0.3,0.8-0.3,0.9,0.1c0.2,0.6,0.7,0.6,1.2,0.8
		c0.3,0.1,0.7,0,0.6,0.5C36,24.2,35.6,24.5,34.9,24.4z"/>
	<path class="st1" d="M44.5,26.6c-0.3-0.1-0.6-0.2-0.9-0.3c0-0.3-0.1-0.5-0.1-0.8c0-0.4,0.2-0.9,0.5-0.8c0.6,0.1,1.3,0.3,1.7,0.7
		c0.3,0.3,0,0.8-0.4,1.1C45,26.7,44.8,26.6,44.5,26.6z"/>
	<path class="st6" d="M41,28.6c0.5,0,0.5,0.3,0.5,0.6c-0.2,0.6-0.5,1-1.2,1c-0.5,0-0.5-0.3-0.5-0.7C39.9,28.8,40.5,28.9,41,28.6z"/>
	<path class="st6" d="M37.6,22.9c0.3,0.1,0.3,0.3,0.3,0.5c0,0.4-0.2,0.6-0.6,0.6c-0.2,0-0.3-0.2-0.3-0.4C37,23.2,37.2,23,37.6,22.9z
		"/>
	<path class="st1" d="M44.8,27.4c-0.1,0.1-0.2,0.2-0.3,0C44.6,27.4,44.7,27.4,44.8,27.4z"/>
	<path class="st7" d="M39.7,2.7c-0.6,0-1.1,0-1.7-0.1C35.1,2,32.2,2,29.3,1.7c-0.4,0-0.8,0-1.2,0c-3.5-0.1-5.3,2.3-6,5.2
		c-0.3,1.2,0.5,1.8,1.6,1.4c1.3-0.5,2.6-0.9,3.9-1.4c4-1.6,8.2-2.4,12.3-3.3c0.3-0.1,0.8,0,0.7-0.4C40.5,2.9,40.1,2.7,39.7,2.7z
		 M24.5,5.2c-0.4,0-0.6-0.3-0.5-0.6c0-0.5,0.4-0.8,0.9-0.9c0.5-0.1,0.5,0.3,0.5,0.7C25.4,5,25,5.2,24.5,5.2z M30.6,4
		c-1-0.4-1.7,0.1-2.5,0.4c-0.6,0.2-1.1-0.4-1.6-0.7c-0.1,0,0-0.4,0.1-0.5C26.7,3,27,2.8,27.3,3.1c0.5,0.3,1,0.3,1.5-0.2
		C29.1,2.5,30.7,3,31,3.4c0,0,0.1,0.1,0.1,0.1c0,0.1,0,0.2,0,0.2C31,4,30.8,4.1,30.6,4z M31.8,4.1c-0.2-0.6-0.3-1,0.1-1.3
		c0.2-0.1,0.5-0.1,0.6,0.2C32.7,3.5,32.2,3.7,31.8,4.1z M34.1,4.1C34,3.5,33.8,3,34.4,2.7c0.2-0.1,0.4,0,0.5,0.2
		C35.1,3.5,34.6,3.7,34.1,4.1z"/>
	<path class="st7" d="M23,2.7c-0.1,0.3,0,0.8-0.4,0.9c-1.5,0.4-2.7,1.3-4.2,1.5c-0.6,0.1-1,0.1-1.4,0.6c-0.2,0.3-0.6,0.4-1,0.3
		c-0.3-0.1-0.3-0.4-0.3-0.7c0.1-0.5,0.4-0.6,0.8-0.7c2-0.2,3.7-1.2,5.4-2c0.3-0.1,0.5-0.4,0.9-0.3C23.1,2.3,23.1,2.5,23,2.7z"/>
	<path class="st7" d="M12.7,5.5c0.1,0,0.2,0,0.4,0c0.6,0.1,1.4-0.3,1.3,0.8c-0.1,0.7-1,1.5-1.7,1.3C12,7.4,11.8,7,12.1,6.4
		C12.2,6.1,12.6,5.9,12.7,5.5C12.6,5.5,12.7,5.5,12.7,5.5z"/>
	<path class="st7" d="M9.2,9.3c-0.4,0-0.5-0.1-0.6-0.2C8.5,8.8,8.5,8.6,8.8,8.4c0.7-0.6,1.7-0.6,2.6-1.1c0.3-0.2,0.4,0.4,0.2,0.7
		C10.7,8.6,9.6,8.5,9.2,9.3z"/>
	<path class="st2" d="M38,5.3c0.4,0.1,0.8,0.2,0.7,0.8c0,0.4-0.4,0.6-0.8,0.6c-0.4,0-0.6-0.3-0.6-0.7C37.4,5.6,37.6,5.3,38,5.3z"/>
	<path class="st7" d="M45.3,4.7c-0.1,0.3-0.2,0.7-0.6,0.8c-0.3,0-0.5-0.2-0.5-0.5c0-0.4,0.3-0.6,0.7-0.7C45.1,4.2,45.2,4.4,45.3,4.7
		z"/>
	<path class="st7" d="M42.8,4.7c0.3,0,0.4,0.3,0.4,0.5c0,0.4-0.1,0.7-0.5,0.8c-0.3,0.1-0.5,0-0.5-0.3C42.1,5.1,42.5,5,42.8,4.7z"/>
	<path class="st6" d="M16.8,30.5c-0.5-0.3-1.5,0-1.6-0.7c-0.2-1,0.9-0.5,1.4-0.7c0.5-0.3,1-0.3,1.5-0.1c0.7,0.2,1.1-0.3,1.5-0.7
		c0.3-0.3,0.5-0.5,0.9-0.1c0.4,0.4,0.2,0.6-0.1,1C19.5,30.4,18.2,30.4,16.8,30.5z"/>
	<path class="st6" d="M9.7,28.6c0.4,0,0.8,0,0.7,0.5c-0.1,0.5-0.6,0.5-1,0.6c-0.3,0.1-0.5-0.1-0.5-0.5C8.9,28.6,9.3,28.6,9.7,28.6z"
		/>
	<path class="st6" d="M6.7,29.3c-0.2-0.3-0.1-0.5,0-0.8c0.2-0.4,0.6-0.5,0.9-0.4c0.3,0.1,0.4,0.3,0.4,0.5c0,0.4-0.4,0.5-0.7,0.6
		C7.1,29.3,6.9,29.3,6.7,29.3C6.6,29.3,6.7,29.3,6.7,29.3z"/>
	<path class="st1" d="M14.2,28.8c0.4,0,0.6,0.1,0.6,0.5c0,0.4-0.2,0.7-0.6,0.7c-0.3,0-0.5-0.1-0.5-0.5
		C13.6,29.1,13.8,28.9,14.2,28.8z"/>
	<path class="st6" d="M5.7,28.8c-0.3,0-0.7,0.1-0.9-0.2c0.1-0.5,0.4-0.8,0.8-0.7C6.1,28.1,6,28.5,5.7,28.8z"/>
	<path class="st7" d="M2.3,22.1c0.2-0.4,0.6,0.1,0.9-0.2c-0.6-0.4-1.1-0.9-1-1.7c0-0.7,0.8-0.9,1-1.4c0.1-0.1,0.1-0.2,0.2-0.3l0,0
		c0.1-0.1,0.2-0.2,0.2-0.2l0,0C3.8,18.1,3.9,18.1,4,18l0,0c0.6,0,0.6,0.3,0.8,0.8c0.2,0.8-0.3,1.7,0.2,2.5c0.5-0.4-0.1-1.3,0.8-1.4
		c-0.1,0.3,0.1,0.5,0.4,0.5c0,0.2-0.5,0.3-0.2,0.6c0.4,0.4,0.7,0.3,1.1,0.1c0,0.4,0,0.9,0,1.3c0.1,0.9-0.5,0.9-1.1,0.8
		c0,0-0.1,0-0.1,0c-0.9-1-2.3-0.5-3.3-0.9C2.5,22.2,2.4,22.1,2.3,22.1L2.3,22.1z"/>
	<path class="st7" d="M7.6,19.7c-0.7-0.6-1.4-0.8-2.3-0.1c0.8-1.3,3-3,3.8-3.1c-0.1-0.1-0.1-0.3-0.2-0.4c-0.5-0.6-1.1,0.2-1.4-0.1
		s0.6-1-0.3-1.4c-0.2,0.6-0.5,0.8-1,0.3c0,0.1,0,0.2,0,0.3c0.2,1,0,1.6-1.2,1.5C4.7,17.1,4,17.3,4,18c0.6,0,0.6,0.3,0.8,0.8
		c0.2,0.8-0.3,1.7,0.2,2.5c0.5-0.4-0.1-1.3,0.8-1.4c0.1,0,0.2,0,0.3-0.1c0.4-0.2,0.9-0.2,0.9,0.2c0,0.5-0.5,0.2-0.8,0.3
		c0,0.2-0.5,0.3-0.2,0.6c0.4,0.4,0.7,0.3,1.1,0.1l0.1,0C7.2,20.6,7.8,20.3,7.6,19.7C7.6,19.7,7.6,19.7,7.6,19.7z M5.2,17.4
		c0-0.3,0.2-0.4,0.5-0.4c0.3,0,0.4,0.2,0.4,0.5c0,0.3-0.2,0.4-0.5,0.4C5.3,18,5.2,17.7,5.2,17.4z"/>
	<path class="st8" d="M6.1,15.1c0.2,1,0,1.6-1.2,1.4c-0.1,0-0.1,0-0.2,0C4.9,15.8,5.4,15.3,6.1,15.1z"/>
	<path class="st7" d="M4,18c-0.1,0.1-0.2,0.2-0.2,0.2C3.8,18.1,3.9,18.1,4,18z"/>
	<path class="st7" d="M3.5,18.5c-0.1,0.1-0.1,0.2-0.2,0.3C3.3,18.6,3.4,18.5,3.5,18.5z"/>
	<path class="st7" d="M3.8,18.2c-0.1,0.1-0.2,0.2-0.2,0.2C3.6,18.4,3.7,18.3,3.8,18.2z"/>
	<path class="st2" d="M1.1,23.3c0.4,0.3,0.2,0.8,0.2,1.2C1,24.1,1.2,23.7,1.1,23.3z"/>
	<path class="st2" d="M1.4,24.5c0.1,0.1,0.2,0.2,0.2,0.2C1.5,24.6,1.4,24.6,1.4,24.5z"/>
	<path class="st5" d="M0.4,21.4c-0.1-0.7-0.3-1.2,0.2-1.5c0.1-0.1,0.4,0.1,0.5,0.3C1.3,20.6,1,21,0.4,21.4z"/>
	<path class="st7" d="M38.8,11.7c-1.3-0.5-2.7-0.4-4.5-0.4c-1.5-0.2-3.4,0.2-5.3,0.6c-2.5,0.4-4.4,1.9-6.1,3.6
		c-0.4,0.4-0.4,0.8,0,1.2c0.8,0.9,1.9,1.3,3,1.7c1.4,0.5,2.9,1,4.4,0.5c2.4-0.7,4.6-1.7,6.6-3.1c0.9-0.6,2-1.1,2.7-2.1
		C40.1,12.6,39.8,12.1,38.8,11.7z M30.9,14.1c-0.8-0.1-1.2,0.2-1.6,0.9c-0.3,0.6-0.8,1-1.1,0c-0.1-0.3-0.3-0.5-0.6-0.3
		c-0.4,0.2,0,0.4,0,0.6c0.2,0.7-0.4,1.3-1.2,1.3c-0.4-0.1-0.7-0.2-1.2-0.1c-0.4,0.1-0.8-0.4-0.8-0.7c0-0.5,0.3-1,0.9-1
		c0.8,0,1.1-0.5,1.6-0.9c0.9-0.8,2.1-0.9,3.2-0.8c0.2,0,0.3,0.1,0.5,0c0.4-0.3,0.9-0.4,0.9,0.3C31.6,13.8,31.5,14.2,30.9,14.1z
		 M33.2,13.7c-0.4-0.1-1.1,0.3-1-0.5c0.1-0.6,0.6-0.9,1.3-0.9c0.5,0,1-0.1,1,0.6C34.5,13.9,33.7,13.6,33.2,13.7z M35.8,13.7
		c-0.4,0-0.8,0-0.8-0.4c0.1-0.6,0.5-1,1.1-1c0.3,0,0.7,0,0.7,0.4C36.7,13.3,36.3,13.7,35.8,13.7z"/>
	<path class="st2" d="M41.4,12.2c1,0.3,2-0.3,2.8,0.6c0.2,0.3,0.7,0.1,1,0c0.3-0.1,0.7-0.2,0.8,0.3c0.1,0.4-0.2,0.7-0.5,0.8
		c-1.1,0.2-2.3,0.2-3.3-0.4c-0.2-0.1-0.4-0.3-0.7-0.2c-0.4,0.1-0.7,0.2-0.7-0.4C40.7,12.3,41,12.2,41.4,12.2z"/>
	<path class="st2" d="M31.8,25.2c0.5,0.5,1.7,0.1,1.7,1.3c0,0.6-0.3,1.1-1,1c-1.2,0-2.1-0.8-2.1-1.5C30.5,25.6,31.1,25.2,31.8,25.2z
		"/>
	<path class="st2" d="M32.1,20c-0.1,0.6-0.7,1.1-1.4,1.2c-0.6,0.1-0.7-0.5-0.7-1c0-0.8,0.6-1.2,1.4-1.3C31.9,18.9,32.1,19.3,32.1,20
		z"/>
	<path class="st2" d="M26.2,20.9c-0.3,0-0.5,0-0.7,0.1c-0.4,0.1-0.5,0-0.5-0.4c0-0.3,0-0.6,0.4-0.6c0.7,0,1.4,0,2.1,0
		c0.2,0,0.3,0.2,0.4,0.4c0,0.3-0.1,0.5-0.4,0.5C26.9,20.9,26.5,20.9,26.2,20.9z"/>
	<path class="st2" d="M34.7,19.6C34.4,19.5,34,19.4,34,19c0.1-0.6,0.3-1.1,1-1.2c0.5,0,0.6,0.2,0.6,0.7
		C35.7,19.1,35.4,19.5,34.7,19.6z"/>
	<path class="st2" d="M24.4,19.9c-0.2,0.5-0.5,0.9-1,0.9c-0.5,0-0.9,0-0.9-0.6c0-0.5,0.2-0.9,0.7-0.8C23.6,19.5,24.2,19.2,24.4,19.9
		z"/>
	<path class="st2" d="M25.1,23.2c-0.4-0.1-0.7-0.4-0.7-0.8c0-0.5,0.3-0.7,0.6-0.7c0.5,0,0.7,0.3,0.7,0.8
		C25.8,22.9,25.5,23.1,25.1,23.2z"/>
	<path class="st2" d="M26.2,24.5c-0.3,0-0.7,0-0.7-0.4c0-0.5,0.4-0.7,0.8-0.7c0.3,0,0.7,0,0.7,0.5C27,24.2,26.7,24.5,26.2,24.5z"/>
	<path class="st7" d="M14.8,25c-0.1-1.9-0.6-2.4-2.3-2.7c-0.9-0.2-1.7-0.5-2.6-0.7c-0.7,0.1-1.6,0.9-1.8-0.5c-0.3,0-0.6,0-0.9,0
		l-0.1,0c0,0.4,0,0.9,0,1.3c0.1,0.9-0.5,0.9-1.1,0.8c0,0-0.1,0-0.1,0c-0.9-1-2.3-0.5-3.4-0.9c-0.1,0-0.1,0-0.2,0
		c0,0.3,0.2,0.5,0.4,0.7c2.9,2.4,6.2,4,10,4.1C14.7,27.2,14.9,26.9,14.8,25z M11.1,25.4c-1-0.3-1.8-1.1-2.9-1.2
		c-0.5-0.1-0.4-0.5-0.3-0.9c0.1-0.3,0.2-0.6,0.7-0.3c0.6,0.4,1.3,0.1,2,0.2c0.7,0.1,1.5,0.3,1.8,0.9C12.4,25.2,11.9,25.6,11.1,25.4z
		"/>
	<path class="st2" d="M17.7,26.2c0,0.5,0,1-0.5,1.1c-0.6,0.1-0.8-0.4-0.9-0.8c-0.1-0.7-0.3-1.3-0.7-1.8c-0.4-0.6,0.2-0.9,0.6-1
		c0.5-0.2,0.9,0,0.9,0.6C17.1,25,18,25.5,17.7,26.2z"/>
	<path class="st0" d="M9.9,21.6c-0.7,0.1-1.6,0.9-1.8-0.5c0.1,0,0.2-0.1,0.3-0.1c0.2,0.1,0.4,0.6,0.7,0.1c0.2-0.3-0.2-0.5-0.5-0.5
		C8.2,20.4,8,20.1,8,19.7c0.4-0.3,0.9-1,1,0.2C9.2,20.5,10.2,20.7,9.9,21.6z"/>
	<path class="st2" d="M9.1,19.9c-0.1-1.2-0.6-0.6-1-0.2c-0.1,0-0.3,0-0.4,0v0c0-1.6,0.1-1.6,1.5-0.9c0.4,0.2,0.5-0.4,0.9-0.3
		c0.1,0.3,0.1,0.6,0.2,1C9.9,19.8,9.6,20,9.1,19.9z"/>
	<path class="st3" d="M2.6,22.3c-0.1,0-0.2,0-0.2,0c0-0.1,0-0.1,0-0.2C2.4,22.1,2.5,22.2,2.6,22.3z"/>
	<path class="st7" d="M8.6,13.5c0.1-0.1,0.2-0.2,0.3-0.2c1.6-0.6,2.9-1.8,4.5-2.6c0.3-0.2,0.6-0.3,0.9-0.5c0.1-0.1,0.3,0,0.4,0.1
		c0.2,0.2,0.1,0.4-0.1,0.5c-1.3,1.4-2.5,2.8-4.1,3.9c-0.1-0.3,0.3-1.2-0.7-0.6C9.2,14.4,8.9,13.8,8.6,13.5z"/>
	<path class="st2" d="M10.9,16.6c0.2,0,0.3,0,0.5-0.1c1.4-0.7,1.5-2.3,2.4-3.4c0.4-0.4,0.6-1.3,1.2-1c0.6,0.3-0.1,1.1-0.4,1.3
		c-0.9,1.1-1.3,2.5-2.4,3.5c-0.5,0.5-1.1,0.8-1.8,0.9c-0.4,0.1-0.9,0.3-1-0.4c-0.1-0.6,0.3-0.7,0.8-0.8
		C10.6,16.8,10.8,16.7,10.9,16.6z"/>
	<path class="st8" d="M7.2,14.6c-0.2,0.6-0.5,0.8-1,0.3c-0.1-0.7,0.2-1,0.9-0.7C7.1,14.3,7.1,14.5,7.2,14.6z"/>
	<path class="st4" d="M31.1,3.6c0,0.4-0.2,0.6-0.5,0.5c-1-0.4-1.7,0.1-2.5,0.4c-0.6,0.2-1.1-0.4-1.6-0.7c-0.1,0,0-0.4,0.1-0.5
		C26.7,3,27,2.8,27.3,3c0.5,0.3,1,0.3,1.5-0.2C29.2,2.5,31,3.1,31.1,3.6z"/>
	<path class="st4" d="M25.4,4.3c0,0.6-0.4,0.8-0.9,0.9c-0.4,0-0.6-0.3-0.5-0.6c0-0.6,0.4-0.8,0.9-0.9C25.3,3.5,25.4,4,25.4,4.3z"/>
	<path class="st4" d="M31.8,4.1c-0.2-0.6-0.3-1,0.1-1.3c0.2-0.1,0.5-0.1,0.6,0.2C32.7,3.5,32.2,3.7,31.8,4.1z"/>
	<path class="st4" d="M34.1,4.1C34,3.5,33.8,3,34.4,2.7c0.2-0.1,0.4,0,0.5,0.2C35.1,3.5,34.6,3.7,34.1,4.1z"/>
	<path class="st8" d="M5.7,19.9c0.1,0,0.2,0,0.3-0.1c0.4-0.2,0.9-0.2,0.9,0.2c0,0.5-0.5,0.2-0.8,0.3C5.9,20.4,5.7,20.3,5.7,19.9z"/>
	<path class="st8" d="M7.6,19.7c0.1,0,0.3,0,0.4,0c0,0.4,0.2,0.7,0.6,0.9c0.2,0.1,0.6,0.2,0.5,0.5c-0.3,0.5-0.5,0-0.7-0.1
		c-0.1,0-0.2,0-0.3,0.1c-0.3,0-0.6,0-0.9,0C7.3,20.6,7.8,20.3,7.6,19.7z"/>
	<path class="st4" d="M6.1,17.5C6.1,17.8,6,18,5.7,18c-0.4,0-0.5-0.2-0.4-0.5c0-0.3,0.2-0.4,0.5-0.4C6,17.1,6.1,17.3,6.1,17.5z"/>
	<path class="st4" d="M26.5,16.5c-0.4-0.1-0.7-0.2-1.2-0.1c-0.4,0.1-0.8-0.3-0.8-0.7c0-0.5,0.3-1,0.9-1c0.8,0,1.1-0.5,1.6-0.9
		c0.9-0.8,2.1-0.9,3.2-0.8c0.2,0,0.3,0.1,0.5,0c0.4-0.3,0.9-0.4,0.9,0.3c0,0.5,0,0.9-0.7,0.9c-0.8-0.1-1.2,0.2-1.6,0.9
		c-0.3,0.6-0.8,1-1.1,0c-0.1-0.3-0.3-0.5-0.6-0.3c-0.4,0.2,0,0.4,0,0.6C27.8,16,27.3,16.6,26.5,16.5z"/>
	<path class="st4" d="M33.2,13.7c-0.4-0.1-1.1,0.3-1-0.5c0.1-0.6,0.6-0.9,1.3-0.9c0.5,0,1-0.1,1,0.7C34.5,13.9,33.7,13.6,33.2,13.7z
		"/>
	<path class="st4" d="M35.8,13.7c-0.4,0-0.8,0-0.8-0.4c0.1-0.6,0.5-1,1.1-1c0.3,0,0.7,0,0.7,0.4C36.7,13.3,36.3,13.7,35.8,13.7z"/>
	<path class="st4" d="M12.4,24.2c0,1-0.5,1.4-1.3,1.2c-1-0.3-1.8-1.1-2.9-1.2c-0.5-0.1-0.4-0.5-0.3-0.9c0.1-0.3,0.2-0.6,0.7-0.3
		c0.6,0.4,1.3,0.1,2,0.2C11.4,23.4,12.1,23.6,12.4,24.2z"/>
</g>
</svg>
