<?xml version="1.0" encoding="utf-8"?>
<!-- Generator: Adobe Illustrator 23.0.5, SVG Export Plug-In . SVG Version: 6.00 Build 0)  -->
<svg version="1.1" id="Layer_1" xmlns="http://www.w3.org/2000/svg" xmlns:xlink="http://www.w3.org/1999/xlink" x="0px" y="0px"
	 viewBox="0 0 188 457" style="enable-background:new 0 0 188 457;" xml:space="preserve">
<style type="text/css">
	.st0{fill:#F9B830;}
	.st1{fill:#FCE53E;}
	.st2{fill:#FAEDB4;}
</style>
<path class="st0" d="M7.36,66.05c2.44-12.07,5.36-24.06,7.18-36.22c1.97-13.16,5.01-24.35,22.09-21.81
	c-16.38,92.84-15.67,157.44,2.5,186.39c6.76-14.58-0.62-33.52,18.8-49.22c3.04,37.53,1.33,71.39,9.46,104.17
	c8.04,32.4,15.72,64.72,30.71,95.12c4.47-29.14-0.36-58.63,9.06-86.74c2.53-7.54,4.75-15.69,13.92-16.71
	c9.77-1.09,5.18,13.23,13.09,14.73c15.4-49.72,18.28-99.55,8.69-150.35c-1.47-7.76-6.9-26.58,10.65-21.34
	c15.78,4.71,12.22-2.75,10.6-9.67c-5.3-22.7-11.6-45.16-17.52-67.71c2.48-0.72,4.95-1.44,7.43-2.16c3.21,0.75,6.41,1.51,9.62,2.26
	c29.02,97.59,22.98,195.4,1.84,293.3c-9.46,26.96-18.91,53.92-28.36,80.87c-14.06,23.01-23.46,48.9-43.67,71.05
	c-19.58-17.49-26.6-42.2-40.33-62.29c-12.37-36.34-24.74-72.67-37.1-108.98C2.44,209.61-1.95,138.1,7.36,66.05z"/>
<path class="st1" d="M130.59,7.43c5.31-0.58,10.63-1.16,15.91-1.72c-0.03,0.02,0.09,0.96,0.09,0.96
	c5.92,22.55,12.22,45.02,17.52,67.71c1.61,6.92,5.17,14.38-10.6,9.67c-17.55-5.24-12.12,13.57-10.65,21.34
	c9.59,50.8,6.71,100.63-8.69,150.35c-7.91-1.51-3.32-15.82-13.09-14.73c-9.18,1.02-11.4,9.18-13.92,16.71
	c-9.42,28.11-4.59,57.6-9.06,86.74c-14.99-30.4-22.67-62.72-30.71-95.12c-8.14-32.78-6.42-66.64-9.46-104.17
	c-19.42,15.7-12.04,34.64-18.8,49.22c-18.17-28.95-18.88-93.55-2.5-186.39c6.25-0.56,12.5-1.13,18.75-1.69
	c-10.65,29.01-5.2,57.61,0.11,86.9c8.14-3.06,4.52-14.9,15.06-13.55c2.01,33.6,8.41,65.92,25.09,97.87
	c11.44-18.9-10.48-50.61,26.31-53.26C129.46,85.67,129.09,46.48,130.59,7.43z"/>
<path class="st2" d="M130.59,7.43c-1.49,39.05-1.13,78.24-8.63,116.85c-36.79,2.66-14.87,34.36-26.31,53.26
	c-16.68-31.95-23.09-64.27-25.09-97.87c-10.55-1.35-6.92,10.5-15.06,13.55c-5.31-29.29-10.76-57.89-0.11-86.9
	C62.68,6.16,69.99,6,77.29,5.84c11.6,9.4,2.73,25.75,14.2,38.55c3.22-13.83,6.01-25.8,8.8-37.77
	C110.39,6.89,120.49,7.16,130.59,7.43z"/>
</svg>
