<?xml version="1.0" encoding="utf-8"?>
<!-- Generator: Adobe Illustrator 23.0.5, SVG Export Plug-In . SVG Version: 6.00 Build 0)  -->
<svg version="1.1" id="Layer_1" xmlns="http://www.w3.org/2000/svg" xmlns:xlink="http://www.w3.org/1999/xlink" x="0px" y="0px"
	 viewBox="0 0 1024 997.43" style="enable-background:new 0 0 1024 997.43;" xml:space="preserve">
<style type="text/css">
	.st0{display:none;}
	.st1{display:inline;fill:#2E3192;}
	.st2{opacity:0.6;fill:#BABCBE;enable-background:new    ;}
	.st3{fill:url(#SVGID_1_);}
	.st4{fill:url(#SVGID_2_);}
	.st5{fill:#657483;}
	.st6{opacity:0.6;fill:#B3B5B8;enable-background:new    ;}
	.st7{fill:url(#SVGID_3_);}
	.st8{fill:url(#SVGID_4_);}
	.st9{fill:url(#SVGID_5_);}
	.st10{fill:url(#SVGID_6_);}
	.st11{fill:url(#SVGID_7_);}
	.st12{fill:url(#SVGID_8_);}
	.st13{fill:url(#SVGID_9_);}
	.st14{fill:#FFFFFF;}
	.st15{fill:url(#SVGID_10_);}
	.st16{fill:url(#SVGID_11_);}
	.st17{fill:url(#SVGID_12_);}
	.st18{fill:url(#SVGID_13_);}
	.st19{fill:url(#SVGID_14_);}
	.st20{fill:url(#SVGID_15_);}
	.st21{fill:#C2BFC0;}
	.st22{fill:#303134;}
	.st23{fill:#A9ABAE;}
	.st24{fill:url(#SVGID_16_);}
	.st25{fill:#5A5B5D;}
	.st26{fill:#757578;}
</style>
<g class="st0">
	<rect y="-217.26" class="st1" width="1024" height="1280"/>
</g>
<g>
	<g>
		<path class="st2" d="M686.8,839.05c6.85-0.43,14.77-0.94,23.52-1.5l4.2-461.59c-11.51-24.24-23.06-54.91-28.48-83.58
			c-4.82-25.55-14.34-44.62-24.14-58.4c-0.02-0.01-0.02-0.02-0.02-0.02c-7.82-10.97-15.79-18.58-21.78-23.41
			C620.27,109.06,579.73,42.32,550.32,13.3c-5.85-6.37-13.72-12.24-23.07-13.12C526.32,0.07,525.41,0,524.52,0
			c-0.9,0-1.82,0.06-2.74,0.18c-9.34,0.9-17.22,6.75-23.08,13.12c-29.42,29.02-69.96,95.76-89.78,197.25
			c-5.98,4.82-13.96,12.44-21.77,23.39c0,0-0.02,0.03-0.02,0.04c-6.73,9.44-14.7,25.81-19.73,40.61l1.42,564.47H686.8V839.05z"/>
		<g>
			<g>
				
					<linearGradient id="SVGID_1_" gradientUnits="userSpaceOnUse" x1="575.6244" y1="25.6389" x2="602.4413" y2="-198.0728" gradientTransform="matrix(1 0 0 -1 0 845.4798)">
					<stop  offset="0.4575" style="stop-color:#E5E0DF"/>
					<stop  offset="1" style="stop-color:#8CA99C"/>
				</linearGradient>
				<path class="st3" d="M613.77,856.4h-38.38c0,0-35.79,52.77-33.87,132.62c0,0,21.53,8.91,53.06,8.52
					c31.52,0.39,53.04-8.52,53.04-8.52C649.56,909.16,613.77,856.4,613.77,856.4z"/>
				<g>
					
						<linearGradient id="SVGID_2_" gradientUnits="userSpaceOnUse" x1="585.4551" y1="26.8132" x2="612.2698" y2="-196.8795" gradientTransform="matrix(1 0 0 -1 0 845.4798)">
						<stop  offset="0.4575" style="stop-color:#E5E0DF"/>
						<stop  offset="1" style="stop-color:#8CA99C"/>
					</linearGradient>
					<path class="st4" d="M631.54,893.07c-8.75-23.36-17.77-36.67-17.77-36.67h-38.38c0,0-9.24,13.64-18.08,37.52
						C573.62,896.93,599.13,898.96,631.54,893.07z"/>
					<path class="st5" d="M541.62,973.59c-0.08,2.17-0.13,4.37-0.14,6.59c8.78,2.68,25.58,6.57,48.99,6.57
						c16.08,0,35.32-1.89,57.18-7.22c-0.02-2.16-0.08-4.3-0.15-6.42C592.75,986.75,554.37,977.61,541.62,973.59z"/>
					<path class="st5" d="M543.16,953.18c-0.24,2.12-0.46,4.26-0.65,6.42c9.02,2.66,25.41,6.27,47.97,6.27
						c15.83,0,34.69-1.8,56.09-6.94c-0.18-2.12-0.41-4.21-0.66-6.3C594.04,965.23,557.11,957.34,543.16,953.18z"/>
					<path class="st5" d="M639.59,918.76c-0.53-2.07-1.07-4.1-1.62-6.08c-40.15,8.4-70.5,4.58-87,0.8c-0.56,2.02-1.1,4.07-1.64,6.18
						c9.54,2.25,23.44,4.48,41.15,4.48C604.55,924.14,621.05,922.68,639.59,918.76z"/>
					<path class="st5" d="M546.29,933.19c-0.41,2.07-0.8,4.15-1.17,6.28c9.43,2.54,24.83,5.53,45.35,5.53
						c15.16,0,33.1-1.66,53.4-6.31c-0.36-2.1-0.75-4.16-1.16-6.19C595.97,943.22,561.79,937.34,546.29,933.19z"/>
					<path class="st5" d="M633.68,899.07c-0.71-2.07-1.43-4.07-2.14-6c-32.41,5.89-57.92,3.86-74.23,0.85
						c-0.74,1.95-1.45,4-2.17,6.1c9.08,1.75,20.93,3.24,35.34,3.24C603.04,903.26,617.54,902.1,633.68,899.07z"/>
				</g>
				<path class="st6" d="M613.77,856.4h-38.38c0,0-35.79,52.77-33.87,132.62c0,0,1.57,0.63,4.4,1.56
					c-1.08-18.51,3.64-37.42,6.69-55.47c2.01-11.92,7.59-40.31,25.3-39.07c19.6,1.38,15.47,82.58,16.06,101.49
					c0.2,0,0.41,0.01,0.61,0c31.52,0.39,53.04-8.52,53.04-8.52C649.56,909.16,613.77,856.4,613.77,856.4z"/>
				<path class="st6" d="M613.77,856.4h-19.69c20.25,42.37,28.09,91.59,30.25,138.76c14.51-2.53,23.29-6.14,23.29-6.14
					C649.56,909.16,613.77,856.4,613.77,856.4z"/>
			</g>
			<g>
				
					<linearGradient id="SVGID_3_" gradientUnits="userSpaceOnUse" x1="434.5121" y1="25.6399" x2="461.3292" y2="-198.072" gradientTransform="matrix(1 0 0 -1 0 845.4798)">
					<stop  offset="0.4575" style="stop-color:#E5E0DF"/>
					<stop  offset="1" style="stop-color:#8CA99C"/>
				</linearGradient>
				<path class="st7" d="M472.65,856.4h-38.38c0,0-35.79,52.77-33.86,132.62c0,0,21.53,8.91,53.06,8.52
					c31.52,0.39,53.04-8.52,53.04-8.52C508.44,909.16,472.65,856.4,472.65,856.4z"/>
				<g>
					
						<linearGradient id="SVGID_4_" gradientUnits="userSpaceOnUse" x1="444.3302" y1="26.8128" x2="471.1449" y2="-196.8797" gradientTransform="matrix(1 0 0 -1 0 845.4798)">
						<stop  offset="0.4575" style="stop-color:#E5E0DF"/>
						<stop  offset="1" style="stop-color:#8CA99C"/>
					</linearGradient>
					<path class="st8" d="M490.42,893.07c-8.76-23.36-17.77-36.67-17.77-36.67h-38.38c0,0-9.24,13.64-18.09,37.52
						C432.49,896.93,458.01,898.96,490.42,893.07z"/>
					<path class="st5" d="M400.5,973.59c-0.08,2.17-0.13,4.37-0.15,6.59c8.8,2.68,25.59,6.57,49.01,6.57
						c16.08,0,35.32-1.89,57.18-7.22c-0.03-2.16-0.08-4.3-0.15-6.42C451.63,986.75,413.24,977.61,400.5,973.59z"/>
					<path class="st5" d="M402.04,953.18c-0.24,2.12-0.47,4.26-0.66,6.42c9.02,2.66,25.41,6.27,47.98,6.27
						c15.83,0,34.69-1.8,56.09-6.94c-0.19-2.12-0.41-4.21-0.66-6.3C452.92,965.23,415.99,957.34,402.04,953.18z"/>
					<path class="st5" d="M498.47,918.76c-0.53-2.07-1.07-4.1-1.62-6.08c-40.15,8.4-70.5,4.58-87,0.8
						c-0.56,2.02-1.12,4.07-1.65,6.18c9.55,2.25,23.46,4.48,41.16,4.48C463.43,924.14,479.93,922.68,498.47,918.76z"/>
					<path class="st5" d="M405.16,933.19c-0.41,2.07-0.79,4.15-1.16,6.28c9.42,2.54,24.83,5.53,45.35,5.53
						c15.16,0,33.1-1.66,53.4-6.31c-0.37-2.1-0.75-4.16-1.17-6.19C454.85,943.22,420.66,937.34,405.16,933.19z"/>
					<path class="st5" d="M492.55,899.07c-0.71-2.07-1.42-4.07-2.13-6c-32.4,5.89-57.93,3.86-74.24,0.85c-0.72,1.95-1.45,4-2.17,6.1
						c9.09,1.75,20.94,3.24,35.35,3.24C461.92,903.26,476.4,902.1,492.55,899.07z"/>
				</g>
				<path class="st6" d="M472.65,856.4h-38.38c0,0-35.79,52.77-33.86,132.62c0,0,1.57,0.63,4.39,1.56
					c-1.07-18.51,3.65-37.42,6.69-55.47c2.02-11.92,7.6-40.31,25.31-39.07c19.6,1.38,15.47,82.58,16.06,101.49
					c0.2,0,0.41,0.01,0.61,0c31.52,0.39,53.04-8.52,53.04-8.52C508.44,909.16,472.65,856.4,472.65,856.4z"/>
				<path class="st6" d="M472.65,856.4h-19.7c20.26,42.37,28.1,91.59,30.23,138.76c14.53-2.53,23.32-6.14,23.32-6.14
					C508.44,909.16,472.65,856.4,472.65,856.4z"/>
			</g>
			<g>
				
					<linearGradient id="SVGID_5_" gradientUnits="userSpaceOnUse" x1="794.5124" y1="448.2966" x2="821.3294" y2="224.5846" gradientTransform="matrix(1 0 0 -1 0 845.4798)">
					<stop  offset="0.4575" style="stop-color:#E5E0DF"/>
					<stop  offset="1" style="stop-color:#8CA99C"/>
				</linearGradient>
				<path class="st9" d="M832.65,433.74h-38.38c0,0-35.79,52.77-33.86,132.62c0,0,21.53,8.91,53.06,8.52
					c31.52,0.39,53.04-8.52,53.04-8.52C868.44,486.51,832.65,433.74,832.65,433.74z"/>
				<g>
					
						<linearGradient id="SVGID_6_" gradientUnits="userSpaceOnUse" x1="804.3305" y1="449.4694" x2="831.1452" y2="225.7769" gradientTransform="matrix(1 0 0 -1 0 845.4798)">
						<stop  offset="0.4575" style="stop-color:#E5E0DF"/>
						<stop  offset="1" style="stop-color:#8CA99C"/>
					</linearGradient>
					<path class="st10" d="M850.42,470.41c-8.76-23.36-17.77-36.67-17.77-36.67h-38.38c0,0-9.24,13.64-18.09,37.52
						C792.49,474.27,818.01,476.3,850.42,470.41z"/>
					<path class="st5" d="M760.5,550.93c-0.08,2.17-0.13,4.37-0.15,6.59c8.8,2.68,25.59,6.57,49.01,6.57
						c16.08,0,35.32-1.89,57.18-7.22c-0.03-2.16-0.08-4.3-0.15-6.42C811.63,564.1,773.24,554.96,760.5,550.93z"/>
					<path class="st5" d="M762.04,530.52c-0.24,2.12-0.47,4.26-0.66,6.42c9.02,2.66,25.41,6.27,47.98,6.27
						c15.83,0,34.69-1.8,56.09-6.94c-0.19-2.12-0.41-4.21-0.66-6.3C812.92,542.57,775.99,534.69,762.04,530.52z"/>
					<path class="st5" d="M858.47,496.1c-0.53-2.07-1.07-4.1-1.62-6.08c-40.15,8.4-70.5,4.58-87,0.8c-0.56,2.02-1.12,4.07-1.65,6.18
						c9.55,2.25,23.46,4.48,41.16,4.48C823.43,501.48,839.93,500.02,858.47,496.1z"/>
					<path class="st5" d="M765.16,510.53c-0.41,2.07-0.79,4.15-1.16,6.28c9.42,2.54,24.83,5.53,45.35,5.53
						c15.16,0,33.1-1.66,53.4-6.31c-0.37-2.1-0.75-4.16-1.17-6.19C814.85,520.56,780.66,514.68,765.16,510.53z"/>
					<path class="st5" d="M852.55,476.41c-0.71-2.07-1.42-4.07-2.13-6c-32.4,5.89-57.93,3.86-74.24,0.85c-0.72,1.95-1.45,4-2.17,6.1
						c9.09,1.75,20.94,3.24,35.35,3.24C821.92,480.6,836.4,479.45,852.55,476.41z"/>
				</g>
				<path class="st6" d="M832.65,433.74h-38.38c0,0-35.79,52.77-33.86,132.62c0,0,1.57,0.63,4.39,1.56
					c-1.07-18.51,3.65-37.42,6.69-55.47c2.02-11.92,7.6-40.31,25.31-39.07c19.6,1.38,15.47,82.58,16.06,101.49
					c0.2,0,0.41,0.01,0.61,0c31.52,0.39,53.04-8.52,53.04-8.52C868.44,486.51,832.65,433.74,832.65,433.74z"/>
				<path class="st6" d="M832.65,433.74h-19.7c20.26,42.37,28.1,91.59,30.23,138.76c14.53-2.53,23.32-6.14,23.32-6.14
					C868.44,486.51,832.65,433.74,832.65,433.74z"/>
			</g>
			<g>
				
					<linearGradient id="SVGID_7_" gradientUnits="userSpaceOnUse" x1="215.5127" y1="448.2966" x2="242.3297" y2="224.5847" gradientTransform="matrix(-1 0 0 -1 468.9003 845.4798)">
					<stop  offset="0.4575" style="stop-color:#E5E0DF"/>
					<stop  offset="1" style="stop-color:#8CA99C"/>
				</linearGradient>
				<path class="st11" d="M215.25,433.74h38.38c0,0,35.79,52.77,33.86,132.62c0,0-21.53,8.91-53.06,8.52
					c-31.52,0.39-53.04-8.52-53.04-8.52C179.46,486.51,215.25,433.74,215.25,433.74z"/>
				<g>
					
						<linearGradient id="SVGID_8_" gradientUnits="userSpaceOnUse" x1="225.3308" y1="449.4695" x2="252.1455" y2="225.777" gradientTransform="matrix(-1 0 0 -1 468.9003 845.4798)">
						<stop  offset="0.4575" style="stop-color:#E5E0DF"/>
						<stop  offset="1" style="stop-color:#8CA99C"/>
					</linearGradient>
					<path class="st12" d="M197.48,470.41c8.76-23.36,17.77-36.67,17.77-36.67h38.38c0,0,9.24,13.64,18.09,37.52
						C255.41,474.27,229.89,476.3,197.48,470.41z"/>
					<path class="st5" d="M287.4,550.93c0.08,2.17,0.13,4.37,0.15,6.59c-8.8,2.68-25.59,6.57-49.01,6.57
						c-16.08,0-35.32-1.89-57.18-7.22c0.03-2.16,0.08-4.3,0.15-6.42C236.27,564.1,274.66,554.96,287.4,550.93z"/>
					<path class="st5" d="M285.86,530.52c0.24,2.12,0.47,4.26,0.66,6.42c-9.02,2.66-25.41,6.27-47.98,6.27
						c-15.83,0-34.69-1.8-56.09-6.94c0.19-2.12,0.41-4.21,0.66-6.3C234.98,542.57,271.91,534.69,285.86,530.52z"/>
					<path class="st5" d="M189.44,496.1c0.53-2.07,1.07-4.1,1.62-6.08c40.15,8.4,70.5,4.58,87,0.8c0.56,2.02,1.12,4.07,1.65,6.18
						c-9.55,2.25-23.46,4.48-41.16,4.48C224.47,501.48,207.97,500.02,189.44,496.1z"/>
					<path class="st5" d="M282.74,510.53c0.41,2.07,0.79,4.15,1.16,6.28c-9.42,2.54-24.83,5.53-45.35,5.53
						c-15.16,0-33.1-1.66-53.4-6.31c0.37-2.1,0.75-4.16,1.17-6.19C233.05,520.56,267.24,514.68,282.74,510.53z"/>
					<path class="st5" d="M195.35,476.41c0.71-2.07,1.42-4.07,2.13-6c32.4,5.89,57.93,3.86,74.24,0.85c0.72,1.95,1.45,4,2.17,6.1
						c-9.09,1.75-20.94,3.24-35.35,3.24C225.98,480.6,211.5,479.45,195.35,476.41z"/>
				</g>
				<path class="st6" d="M215.25,433.74h38.38c0,0,35.79,52.77,33.86,132.62c0,0-1.57,0.63-4.39,1.56
					c1.07-18.51-3.65-37.42-6.69-55.47c-2.02-11.92-7.6-40.31-25.31-39.07c-19.6,1.38-15.47,82.58-16.06,101.49
					c-0.2,0-0.41,0.01-0.61,0c-31.52,0.39-53.04-8.52-53.04-8.52C179.46,486.51,215.25,433.74,215.25,433.74z"/>
				<path class="st6" d="M215.25,433.74h19.7c-20.26,42.37-28.1,91.59-30.23,138.76c-14.53-2.53-23.32-6.14-23.32-6.14
					C179.46,486.51,215.25,433.74,215.25,433.74z"/>
			</g>
			<g>
				
					<linearGradient id="SVGID_9_" gradientUnits="userSpaceOnUse" x1="12.2945" y1="677.2501" x2="420.7474" y2="73.2617" gradientTransform="matrix(1 0 0 -1 0 845.4798)">
					<stop  offset="0.4575" style="stop-color:#E5E0DF"/>
					<stop  offset="1" style="stop-color:#454949"/>
				</linearGradient>
				<path class="st13" d="M418.63,229.83c0,0-43.26,22.97-55.66,88.61c-12.41,65.65-34.84,119.45-94.6,162.43
					S92.29,638.28,102.65,836.7c0,0-1.94,10.86,13.28,12.31c15.21,1.45,273.03,17.8,273.03,17.8h42.72L418.63,229.83z"/>
				<path class="st14" d="M420.86,323.38c0,0-35.84,19.04-46.13,73.44c-10.28,54.39-28.86,98.97-78.38,134.6
					c-49.52,35.62-145.91,130.43-137.32,294.86c0,0-1.61,9,10.99,10.2c12.59,1.19,226.25,14.75,226.25,14.75h35.4L420.86,323.38z"/>
				
					<linearGradient id="SVGID_10_" gradientUnits="userSpaceOnUse" x1="225.0175" y1="324.3915" x2="576.4977" y2="166.0311" gradientTransform="matrix(1 0 0 -1 0 845.4798)">
					<stop  offset="0.4575" style="stop-color:#E5E0DF"/>
					<stop  offset="1" style="stop-color:#454949"/>
				</linearGradient>
				<path class="st15" d="M418.63,229.83c0,0-16.12,8.59-31.5,30.21c-3.3,55.3-22.58,378.92-27.87,462.73
					c-5.79,91.72-58.9,95.59-122.63,97.52s-108.16-16.41-111.05-74.36c-2.89-57.91,57.07-180.21,57.12-180.33
					c-46.02,61.36-86.31,150.78-80.04,271.1c0,0-1.94,10.86,13.28,12.31c15.21,1.45,273.03,17.8,273.03,17.8h42.72L418.63,229.83z"
					/>
				<path class="st14" d="M365.52,323.38c0,0-11.58,86.91-62.27,135.19c-50.7,48.27-113.94,72.9-141.46,159.32
					c0,0,18.82-62.28,88.84-109.11C320.62,461.95,363.59,422.84,365.52,323.38z"/>
			</g>
			<g>
				
					<linearGradient id="SVGID_11_" gradientUnits="userSpaceOnUse" x1="843.4939" y1="677.2398" x2="1251.9358" y2="73.2678" gradientTransform="matrix(-1 0 0 -1 1880.1973 845.4798)">
					<stop  offset="0.4575" style="stop-color:#E5E0DF"/>
					<stop  offset="1" style="stop-color:#454949"/>
				</linearGradient>
				<path class="st16" d="M630.37,229.83c0,0,43.26,22.97,55.67,88.61c12.41,65.65,34.84,119.45,94.6,162.43
					c59.75,42.98,176.08,157.41,165.71,355.83c0,0,1.95,10.86-13.25,12.31c-15.21,1.45-273.05,17.8-273.05,17.8h-42.7L630.37,229.83
					z"/>
				<path class="st14" d="M628.14,323.38c0,0,35.84,19.04,46.14,73.44c10.28,54.39,28.86,98.97,78.38,134.6
					c49.53,35.62,145.92,130.43,137.33,294.86c0,0,1.61,9-10.98,10.2c-12.62,1.19-226.26,14.75-226.26,14.75h-35.39L628.14,323.38z"
					/>
				
					<linearGradient id="SVGID_12_" gradientUnits="userSpaceOnUse" x1="1056.199" y1="324.3919" x2="1407.6733" y2="166.0341" gradientTransform="matrix(-1 0 0 -1 1880.1973 845.4798)">
					<stop  offset="0.4575" style="stop-color:#E5E0DF"/>
					<stop  offset="1" style="stop-color:#454949"/>
				</linearGradient>
				<path class="st17" d="M630.37,229.83c0,0,16.13,8.59,31.53,30.21c3.28,55.3,22.57,378.92,27.86,462.73
					c5.8,91.72,58.91,95.59,122.63,97.52c63.73,1.93,108.14-16.41,111.05-74.36c2.89-57.91-57.06-180.21-57.11-180.33
					c46.01,61.36,86.31,150.78,80.02,271.1c0,0,1.95,10.86-13.25,12.31c-15.21,1.45-273.05,17.8-273.05,17.8h-42.7L630.37,229.83z"
					/>
				<path class="st14" d="M683.48,323.38c0,0,11.6,86.91,62.3,135.19c50.7,48.27,113.93,72.9,141.45,159.32
					c0,0-18.84-62.28-88.82-109.11C728.38,461.95,685.41,422.84,683.48,323.38z"/>
			</g>
			<g>
				
					<linearGradient id="SVGID_13_" gradientUnits="userSpaceOnUse" x1="372.2853" y1="376.6699" x2="710.2631" y2="376.6699" gradientTransform="matrix(1 0 0 -1 0 845.4798)">
					<stop  offset="0.6933" style="stop-color:#E5E0DF"/>
					<stop  offset="1" style="stop-color:#B2B8B4"/>
				</linearGradient>
				<path class="st18" d="M649.71,306.83c-11.47-141.34-63.66-232.22-99.4-267.47c-5.85-6.37-13.72-12.24-23.07-13.12
					c-0.93-0.11-1.84-0.18-2.73-0.18c-0.9,0-1.82,0.06-2.74,0.18c-9.34,0.9-17.22,6.75-23.08,13.12
					c-35.74,35.25-87.92,126.13-99.39,267.47c-11.7,144.08-6.07,559.99-6.07,559.99s2.39,23.23,54.29,36.24
					c18.6,4.66,43.53,8.01,76.98,8.5c33.45-0.5,58.39-3.85,76.97-8.5c51.91-13.01,54.3-36.24,54.3-36.24S661.4,450.91,649.71,306.83
					z"/>
			</g>
			
				<linearGradient id="SVGID_14_" gradientUnits="userSpaceOnUse" x1="362.1082" y1="325.46" x2="672.4359" y2="185.6409" gradientTransform="matrix(1 0 0 -1 0 845.4798)">
				<stop  offset="0.4575" style="stop-color:#E5E0DF"/>
				<stop  offset="1" style="stop-color:#454949"/>
			</linearGradient>
			<path class="st19" d="M494.04,258.32c0,0-69.27,14.48-74.34,83.04c-5.08,68.57,0,505.01,0,505.01s-3.35,28,23.41,37.66
				c26.77,9.65,88.93,16.41,86.34-40.57c-2.6-56.97,0-536.14,0-536.14S533.96,250.59,494.04,258.32z"/>
			
				<linearGradient id="SVGID_15_" gradientUnits="userSpaceOnUse" x1="469.8511" y1="743.8065" x2="541.6642" y2="711.4509" gradientTransform="matrix(1 0 0 -1 0 845.4798)">
				<stop  offset="0.4575" style="stop-color:#E5E0DF"/>
				<stop  offset="1" style="stop-color:#454949"/>
			</linearGradient>
			<path class="st20" d="M519.21,33.73c0,0-18.01,5.88-42.15,44.5s-51.66,107.18-35.25,99.94c0,0,19.62-21.73,77.4-30.41
				c0,0,8.54-1.93,8.54-15.46C527.75,118.78,531.44,29.78,519.21,33.73z"/>
			<g>
				<path class="st21" d="M649.71,306.83c-11.47-141.34-63.66-232.22-99.4-267.47c-5.85-6.37-13.72-12.24-23.07-13.12
					c-0.93-0.11-1.84-0.18-2.73-0.18c-0.9,0-1.82,0.06-2.74,0.18c-0.36,0.03-0.71,0.13-1.07,0.18c5.88,1.66,28.12,10.71,44.93,54.96
					c19.56,51.41,21.01,72.65,21.01,72.65s-0.39,14.29-11.79,11.37c-11.37-2.92-48.26-2.65-66.38-2.79l28.03,64.15
					c0,0,42.9,5.24,62.46,47.97c19.56,42.74,10.14,584.43,10.14,584.43s-2.18,31.14-41.28,37.66
					c-39.12,6.51-141.22,10.86-161.51-42.01c-8.2-21.4-12.13-47.31-13.9-70.57c0.37,50.04,0.83,82.58,0.83,82.58
					s2.39,23.23,54.29,36.24c18.6,4.66,43.53,8.01,76.98,8.5c33.45-0.5,58.39-3.85,76.97-8.5c51.91-13.01,54.3-36.24,54.3-36.24
					S661.4,450.91,649.71,306.83z"/>
			</g>
			<path class="st22" d="M615.43,214.98c-4.43-17.54-17.58-29.88-32.71-38.64c-8.83-5.1-18.73-8.59-28.74-10.56
				c-23.03-4.53-45.95-4.23-68.8,1.04c0,0-47.07,10.87-56.48,48.16c-9.42,37.3-15.94,93.07-10.86,92.34
				c5.08-0.72,3.17-26.64,13.76-39.11c15.71-18.51,34.57-33.64,59.25-38.57c24.75-4.96,54.55-5.19,78.19,4.44
				c14.65,5.97,27.62,15.84,38.17,27.56c1.89,2.12,3.5,4.42,5.33,6.58c10.59,12.46,8.69,38.38,13.76,39.11
				C631.36,308.05,624.85,252.29,615.43,214.98z"/>
			<path class="st22" d="M615.43,214.98c-4.43-17.54-17.58-29.88-32.71-38.64c-8.83-5.1-18.73-8.59-28.74-10.56
				c-6.04-1.19-12.07-2.03-18.09-2.54c0.5,5.18,8.67,44.5-17.05,49.2c-10.27,1.87-20.31,3.15-30.21,6.64
				c-37.01,12.99-70.37,44.51-68.62,85.56c2.62-7.03,2.92-26.22,11.58-36.43c15.71-18.51,34.57-33.64,59.25-38.57
				c24.75-4.96,54.55-5.19,78.19,4.44c14.65,5.97,27.62,15.84,38.17,27.56c1.89,2.12,3.5,4.42,5.33,6.58
				c10.59,12.46,8.69,38.38,13.76,39.11C631.36,308.05,624.85,252.29,615.43,214.98z"/>
			<path class="st23" d="M454.33,189.04c7.43-7.21,17.28-12.2,27.51-15.65c12.15-4.43,24.57-6.35,37.37-7.98
				c-44.86,0.58-63.27,14.81-75.78,28.22c-7.36,7.91-11.54,17.75-13.83,25.17C435.36,207.39,444.27,197.15,454.33,189.04z"/>
			<g>
				
					<linearGradient id="SVGID_16_" gradientUnits="userSpaceOnUse" x1="294.5555" y1="114.2736" x2="636.718" y2="114.2736" gradientTransform="matrix(1 0 0 -1 0 845.4798)">
					<stop  offset="0.4575" style="stop-color:#E5E0DF"/>
					<stop  offset="1" style="stop-color:#454949"/>
				</linearGradient>
				<path class="st24" d="M391.91,676.84c0.06,34.08,0.22,65.9,0.41,93.41c43.12,13.02,146.26,35.2,264.41-3
					c0.18-27.63,0.33-59.44,0.38-93.42C538.42,712.33,434.82,689.87,391.91,676.84z"/>
			</g>
			<path class="st14" d="M552.51,624.81c-2.89-19.55-25.28-17.38-25.28-17.38h-5.45c0,0-22.39-2.17-25.28,17.38
				c-2.91,19.56,12.64,288.23,12.64,288.23s-2.65,15.23,12.64,19.46h5.45c15.29-4.23,12.64-19.46,12.64-19.46
				S555.4,644.37,552.51,624.81z"/>
			<path class="st25" d="M552.51,624.81c-2.89-19.55-25.28-17.38-25.28-17.38h-5.45c0,0-22.39-2.17-25.28,17.38
				c-2.91,19.56,12.64,288.23,12.64,288.23s-2.65,15.23,12.64,19.46h5.45c15.29-4.23,12.64-19.46,12.64-19.46
				S555.4,644.37,552.51,624.81z"/>
			<path class="st14" d="M527.35,630.77c-0.43-14.76-9.38-12.78-9.38-12.78l-1.92,0.08c0,0-7.97-1.35-8.45,13.42
				c-0.5,14.76,7.59,288.28,7.59,288.28S535.47,903.26,527.35,630.77z"/>
		</g>
		<g>
			<path class="st25" d="M647.51,423.47c0,4.53-3.67,8.21-8.2,8.21l0,0c-4.53,0-8.2-3.68-8.2-8.21v-5.81c0-4.53,3.67-8.21,8.2-8.21
				l0,0c4.53,0,8.2,3.68,8.2,8.21V423.47z"/>
			<path class="st25" d="M647.51,479.61c0,4.53-3.67,8.21-8.2,8.21l0,0c-4.53,0-8.2-3.68-8.2-8.21v-5.81c0-4.53,3.67-8.2,8.2-8.2
				l0,0c4.53,0,8.2,3.67,8.2,8.2V479.61z"/>
			<path class="st25" d="M647.51,535.76c0,4.52-3.67,8.2-8.2,8.2l0,0c-4.53,0-8.2-3.68-8.2-8.2v-5.83c0-4.53,3.67-8.2,8.2-8.2l0,0
				c4.53,0,8.2,3.67,8.2,8.2V535.76z"/>
			<path class="st25" d="M647.51,591.89c0,4.53-3.67,8.21-8.2,8.21l0,0c-4.53,0-8.2-3.68-8.2-8.21v-5.81c0-4.53,3.67-8.2,8.2-8.2
				l0,0c4.53,0,8.2,3.67,8.2,8.2V591.89z"/>
		</g>
		<g>
			<path class="st26" d="M416.4,423.47c0,4.53-3.67,8.21-8.21,8.21l0,0c-4.52,0-8.2-3.68-8.2-8.21v-5.81c0-4.53,3.68-8.21,8.2-8.21
				l0,0c4.54,0,8.21,3.68,8.21,8.21V423.47z"/>
			<path class="st26" d="M416.4,479.61c0,4.53-3.67,8.21-8.21,8.21l0,0c-4.52,0-8.2-3.68-8.2-8.21v-5.81c0-4.53,3.68-8.2,8.2-8.2
				l0,0c4.54,0,8.21,3.67,8.21,8.2V479.61z"/>
			<path class="st26" d="M416.4,535.76c0,4.52-3.67,8.2-8.21,8.2l0,0c-4.52,0-8.2-3.68-8.2-8.2v-5.83c0-4.53,3.68-8.2,8.2-8.2l0,0
				c4.54,0,8.21,3.67,8.21,8.2V535.76z"/>
			<path class="st26" d="M416.4,591.89c0,4.53-3.67,8.21-8.21,8.21l0,0c-4.52,0-8.2-3.68-8.2-8.21v-5.81c0-4.53,3.68-8.2,8.2-8.2
				l0,0c4.54,0,8.21,3.67,8.21,8.2V591.89z"/>
		</g>
		<g>
			<path class="st25" d="M181.57,828.46c0,2.34-1.88,4.23-4.21,4.23s-4.24-1.89-4.24-4.23s1.9-4.21,4.24-4.21
				S181.57,826.12,181.57,828.46z"/>
			<path class="st25" d="M222.37,832.69c0,2.34-1.88,4.23-4.21,4.23s-4.23-1.89-4.23-4.23c0-2.32,1.89-4.23,4.23-4.23
				S222.37,830.36,222.37,832.69z"/>
			<path class="st25" d="M263.17,834.82c0,2.34-1.89,4.23-4.23,4.23s-4.22-1.89-4.22-4.23c0-2.32,1.88-4.23,4.22-4.23
				S263.17,832.5,263.17,834.82z"/>
			<path class="st25" d="M303.98,837.95c0,2.34-1.9,4.23-4.24,4.23s-4.21-1.89-4.21-4.23c0-2.32,1.88-4.21,4.21-4.21
				S303.98,835.63,303.98,837.95z"/>
			<path class="st25" d="M344.78,837.43c0,2.34-1.89,4.23-4.23,4.23s-4.23-1.89-4.23-4.23c0-2.32,1.89-4.23,4.23-4.23
				S344.78,835.11,344.78,837.43z"/>
			<path class="st25" d="M385.57,841.66c0,2.34-1.89,4.23-4.21,4.23c-2.34,0-4.24-1.89-4.24-4.23c0-2.33,1.9-4.23,4.24-4.23
				C383.68,837.43,385.57,839.33,385.57,841.66z"/>
		</g>
		<g>
			<path class="st25" d="M872.35,828.46c0,2.34,1.88,4.23,4.21,4.23c2.34,0,4.24-1.89,4.24-4.23s-1.9-4.21-4.24-4.21
				C874.23,824.25,872.35,826.12,872.35,828.46z"/>
			<path class="st25" d="M831.55,832.69c0,2.34,1.88,4.23,4.22,4.23c2.33,0,4.23-1.89,4.23-4.23c0-2.32-1.89-4.23-4.23-4.23
				S831.55,830.36,831.55,832.69z"/>
			<path class="st25" d="M790.75,834.82c0,2.34,1.89,4.23,4.23,4.23s4.21-1.89,4.21-4.23c0-2.32-1.88-4.23-4.21-4.23
				S790.75,832.5,790.75,834.82z"/>
			<path class="st25" d="M749.94,837.95c0,2.34,1.9,4.23,4.24,4.23c2.34,0,4.21-1.89,4.21-4.23c0-2.32-1.88-4.21-4.21-4.21
				C751.84,833.74,749.94,835.63,749.94,837.95z"/>
			<path class="st25" d="M709.14,837.43c0,2.34,1.89,4.23,4.23,4.23c2.34,0,4.23-1.89,4.23-4.23c0-2.32-1.89-4.23-4.23-4.23
				C711.03,833.21,709.14,835.11,709.14,837.43z"/>
			<path class="st25" d="M668.35,841.66c0,2.34,1.89,4.23,4.21,4.23c2.34,0,4.24-1.89,4.24-4.23c0-2.33-1.9-4.23-4.24-4.23
				C670.24,837.43,668.35,839.33,668.35,841.66z"/>
		</g>
	</g>
</g>
</svg>
